<?xml version="1.0" encoding="utf-8"?>
<!-- Generator: Adobe Illustrator 18.0.0, SVG Export Plug-In . SVG Version: 6.00 Build 0)  -->
<!DOCTYPE svg PUBLIC "-//W3C//DTD SVG 1.1 Tiny//EN" "http://www.w3.org/Graphics/SVG/1.1/DTD/svg11-tiny.dtd">
<svg version="1.1" baseProfile="tiny" id="Camada_1"
	 xmlns="http://www.w3.org/2000/svg" xmlns:xlink="http://www.w3.org/1999/xlink" x="0px" y="0px" viewBox="0 0 149 34"
	 xml:space="preserve">
<path fill-rule="evenodd" fill="none" stroke="#1B5986" stroke-width="2" stroke-miterlimit="10" d="M17.7,1.3h113.7
	c9.3,0,16.8,7,16.8,15.7c0,8.7-7.5,15.7-16.8,15.7H17.7c-9.3,0-16.8-7-16.8-15.7C0.8,8.3,8.4,1.3,17.7,1.3z"/>
<g>
	<path fill="#165986" d="M57.3,11.5c0.1-0.3,0.2-0.4,0.3-0.5s0.2,0,0.3,0.1c0,0,0.1,0.2,0.2,0.6c0.1,0.3,0.2,0.8,0.4,1.3
		c0.2,0.5,0.3,1.1,0.5,1.7s0.4,1.3,0.6,2c0.2,0.7,0.4,1.3,0.6,2s0.4,1.2,0.5,1.7c0.2,0.5,0.3,0.9,0.4,1.2c0.1,0.3,0.2,0.4,0.2,0.4
		s0.1-0.2,0.2-0.5c0.1-0.3,0.2-0.7,0.4-1.2c0.1-0.5,0.3-1.1,0.5-1.7c0.2-0.7,0.4-1.3,0.6-2c0.2-0.7,0.4-1.3,0.6-2s0.4-1.2,0.5-1.7
		c0.2-0.5,0.3-0.9,0.4-1.2c0.1-0.3,0.2-0.5,0.3-0.4c0.1,0,0.2,0,0.3,0c0.1,0,0.1,0,0.1,0c0,0,0.1,0,0.1,0.1s0.1,0.1,0.1,0.2
		c0,0.1,0,0.3-0.1,0.7c-0.1,0.4-0.2,0.9-0.4,1.5c-0.2,0.6-0.3,1.3-0.6,2c-0.2,0.8-0.4,1.5-0.7,2.3c-0.2,0.8-0.5,1.5-0.7,2.3
		c-0.2,0.7-0.5,1.4-0.7,2c-0.2,0.6-0.4,1-0.6,1.4s-0.3,0.5-0.4,0.5c-0.1,0-0.2-0.2-0.4-0.5c-0.2-0.4-0.3-0.8-0.6-1.4
		c-0.2-0.6-0.4-1.2-0.7-2c-0.2-0.7-0.5-1.5-0.7-2.3c-0.2-0.8-0.5-1.6-0.7-2.3c-0.2-0.8-0.4-1.4-0.6-2.1c-0.2-0.6-0.3-1.1-0.4-1.5
		C57.3,11.8,57.3,11.6,57.3,11.5z"/>
	<path fill="#165986" d="M73.8,23.2c-0.3,0.4-0.8,0.8-1.3,1c-0.6,0.2-1.2,0.3-1.8,0.3c-0.6,0-1.2,0-1.7-0.2S68,24,67.8,23.8
		c-0.3-0.3-0.5-0.7-0.6-1.4c-0.2-0.7-0.3-1.4-0.3-2.2s-0.1-1.7,0-2.6c0-0.9,0.1-1.8,0.2-2.6c0.1-0.8,0.2-1.5,0.4-2.1s0.3-1,0.6-1.1
		c0.3-0.2,0.7-0.4,1.2-0.5c0.5-0.1,1-0.2,1.6-0.2c0.6,0,1.1,0,1.6,0.1s1,0.3,1.4,0.6c0.1,0.1,0.3,0.4,0.4,0.9
		c0.1,0.5,0.3,1.1,0.4,1.8c0.1,0.7,0.2,1.5,0.2,2.3c0,0.8,0,1.7,0,2.5c0,0.8-0.1,1.6-0.3,2.3S74,22.8,73.8,23.2z M68.8,12.6
		c-0.2,0.2-0.4,0.6-0.5,1.2c-0.1,0.6-0.2,1.2-0.3,1.9c-0.1,0.7-0.1,1.5-0.1,2.3c0,0.8,0,1.5,0.1,2.2s0.1,1.3,0.2,1.8
		c0.1,0.5,0.3,0.8,0.4,1c0.2,0.2,0.6,0.3,1,0.4c0.4,0.1,0.8,0.1,1.3,0c0.4,0,0.9-0.2,1.3-0.3c0.4-0.2,0.7-0.4,0.9-0.7
		c0.1-0.2,0.2-0.5,0.3-1c0.1-0.5,0.2-1.1,0.2-1.8c0-0.7,0.1-1.4,0.1-2.2c0-0.8,0-1.5-0.1-2.2c-0.1-0.7-0.1-1.3-0.3-1.8
		c-0.1-0.5-0.3-0.8-0.4-1c-0.2-0.2-0.6-0.3-1-0.4c-0.4-0.1-0.8-0.1-1.2-0.1c-0.4,0-0.8,0.1-1.1,0.2C69.2,12.2,69,12.4,68.8,12.6z"/>
	<path fill="#165986" d="M77,11.5c0,0,0.1-0.1,0.2-0.2c0.1-0.1,0.2-0.1,0.3-0.1c0.1,0,0.2,0,0.3,0c0.1,0,0.2,0.1,0.2,0.3
		c0,0.1,0,0.3,0,0.7s0,0.8-0.1,1.4c0,0.6-0.1,1.2-0.1,1.9c0,0.7-0.1,1.4-0.1,2.1c0,0.7-0.1,1.4-0.1,2.1c0,0.7-0.1,1.3-0.1,1.8
		s0,1,0,1.3s0,0.5,0.1,0.6c0.1,0.1,0.2,0.1,0.4,0.1c0.2,0,0.4,0,0.7,0c0.3,0,0.6,0,0.9-0.1s0.6-0.1,0.9-0.1s0.5,0,0.6,0
		c0.2,0,0.3,0.1,0.3,0.2c0,0.2,0,0.4,0,0.6c0,0.1-0.1,0.2-0.2,0.2c-0.1,0-0.2,0-0.4,0c-0.2,0-0.5,0.1-0.8,0.1c-0.3,0-0.7,0.1-1,0.1
		c-0.4,0-0.7,0.1-1,0.1c-0.3,0-0.6,0-0.8,0c-0.2,0-0.3,0-0.4-0.1c0,0,0-0.3-0.1-0.6c0-0.4,0-0.9,0-1.5s0-1.3,0-2.1
		c0-0.8,0-1.5,0-2.3c0-0.8,0-1.6,0-2.3c0-0.8,0-1.4,0.1-2c0-0.6,0-1.1,0.1-1.5C77,11.7,77,11.5,77,11.5z"/>
	<path fill="#165986" d="M83.5,11.2c0,0,0.2-0.1,0.5-0.1c0.3,0,0.6-0.1,1-0.1c0.4,0,0.8-0.1,1.3-0.1c0.5,0,0.9,0,1.3,0s0.8,0,1,0
		s0.5,0,0.5,0.1c0.1,0.1,0.2,0.2,0.3,0.4s0,0.3-0.2,0.5C89.2,12,89.1,12,88.9,12c-0.2,0-0.4,0-0.6,0c-0.2,0-0.4,0-0.6,0.1
		c-0.2,0-0.3,0.1-0.4,0.2c0,0-0.1,0.2-0.1,0.6c0,0.4,0,0.8-0.1,1.4c0,0.5,0,1.2,0,1.9c0,0.7,0,1.4,0,2.1c0,0.7,0,1.4,0,2.1
		c0,0.7,0,1.3,0,1.9c0,0.6,0,1,0,1.4c0,0.4,0,0.6-0.1,0.6c-0.1,0.2-0.3,0.3-0.5,0.3c-0.2,0-0.4-0.1-0.5-0.2c0,0,0-0.2-0.1-0.6
		c0-0.4,0-0.8,0-1.4c0-0.6,0-1.2,0.1-1.9c0-0.7,0.1-1.5,0.1-2.2s0.1-1.5,0.1-2.2c0-0.7,0-1.4,0-1.9c0-0.6,0-1,0-1.4
		c0-0.4-0.1-0.5-0.1-0.6c-0.1,0-0.3-0.1-0.6,0c-0.3,0-0.5,0-0.8,0.1s-0.5,0-0.8,0.1c-0.2,0-0.4,0-0.5-0.1c-0.2-0.1-0.2-0.3-0.2-0.5
		C83.4,11.5,83.4,11.3,83.5,11.2z"/>
	<path fill="#165986" d="M95.7,10.9c0.1,0,0.2,0,0.3,0c0.1,0,0.2,0.1,0.3,0.1c0.1,0.1,0.1,0.2,0.2,0.3c0.1,0.1,0.1,0.3,0.1,0.6
		c0,0.1,0,0.4,0.1,0.8c0.1,0.4,0.2,0.8,0.3,1.4c0.1,0.5,0.2,1.1,0.4,1.8c0.1,0.7,0.3,1.3,0.5,2s0.3,1.3,0.5,1.9
		c0.2,0.6,0.3,1.2,0.4,1.7c0.1,0.5,0.2,0.9,0.3,1.2c0.1,0.3,0.1,0.5,0.1,0.5c0,0.1,0,0.2,0.1,0.3c0,0.1,0,0.2,0,0.3
		c0,0.1,0,0.2-0.1,0.3c0,0.1-0.1,0.1-0.2,0.2c-0.1,0-0.2,0-0.3,0c-0.1,0-0.2-0.1-0.3-0.2s-0.2-0.2-0.2-0.3c-0.1-0.1-0.1-0.2-0.1-0.3
		c0,0,0-0.1-0.1-0.3c0-0.2-0.1-0.4-0.1-0.6c0-0.3-0.1-0.5-0.1-0.9c-0.1-0.3-0.1-0.7-0.2-1c0,0-0.1,0-0.2,0s-0.3,0-0.5,0
		c-0.2,0-0.4,0-0.7,0.1c-0.3,0-0.5,0-0.8,0.1c-0.5,0-1,0.1-1.5,0.1s-0.7,0.1-0.7,0.2c-0.2,0.7-0.3,1.1-0.4,1.4s-0.1,0.5-0.1,0.5
		c0,0.1-0.1,0.3-0.2,0.5c-0.1,0.2-0.2,0.4-0.3,0.6c-0.1,0.2-0.2,0.3-0.4,0.5s-0.3,0.2-0.5,0.1c-0.1,0-0.2-0.1-0.2-0.2
		c0-0.1,0-0.3,0-0.5c0-0.2,0.1-0.4,0.2-0.7c0.1-0.2,0.2-0.5,0.3-0.8c0.1-0.1,0.2-0.5,0.4-1s0.4-1.2,0.7-2c0.3-0.8,0.6-1.6,0.9-2.4
		c0.3-0.9,0.6-1.7,0.8-2.4s0.5-1.4,0.6-1.9c0.2-0.5,0.3-0.8,0.3-0.9c0.1-0.2,0.1-0.4,0.2-0.7C95.5,11,95.6,10.9,95.7,10.9z
		 M93.5,19.7c0,0,0,0.1,0.1,0.1c0.1,0,0.2,0,0.4,0c0.2,0,0.4,0,0.6,0s0.5,0,0.7-0.1c0.5,0,0.9-0.1,1.3-0.1c0.4,0,0.5-0.1,0.5-0.1
		c-0.1-0.7-0.3-1.4-0.4-2c-0.1-0.7-0.3-1.3-0.4-1.8c-0.1-0.5-0.2-1-0.4-1.3c-0.1-0.3-0.2-0.5-0.3-0.5c-0.1,0-0.2,0.2-0.4,0.5
		c-0.2,0.4-0.3,0.8-0.6,1.4c-0.2,0.6-0.4,1.2-0.6,1.9C93.9,18.3,93.7,19,93.5,19.7z"/>
	<path fill="#165986" d="M100.9,11.3c0-0.1,0-0.2,0.1-0.3c0.1-0.1,0.1-0.1,0.2-0.2s0.2-0.1,0.3-0.1c0.1,0,0.2,0,0.3-0.1
		c0.1,0,0.3,0,0.5,0c0.3,0,0.6,0,1,0.1c0.4,0.1,0.8,0.2,1.3,0.4s0.9,0.5,1.2,0.8c0.4,0.4,0.7,0.8,0.9,1.4c0.2,0.6,0.3,1.3,0.3,2.1
		c0,0.9-0.2,1.7-0.4,2.4c-0.2,0.6-0.5,1.1-0.8,1.5c-0.3,0.4-0.7,0.7-1.1,0.9c-0.4,0.2-0.8,0.3-1.2,0.4c-0.1,0-0.1,0.1-0.1,0.1
		s0.1,0.1,0.1,0.1c0.3,0.3,0.7,0.6,1.1,0.9s0.7,0.6,1,0.8s0.6,0.5,0.8,0.6c0.2,0.2,0.4,0.3,0.4,0.3c0.1,0.1,0.1,0.2,0.1,0.3
		c0,0.1,0,0.3-0.1,0.4c-0.1,0.1-0.2,0.2-0.3,0.3c-0.1,0.1-0.3,0.1-0.4,0c-0.1,0-0.3-0.2-0.6-0.4c-0.3-0.3-0.6-0.6-1-0.9
		s-0.8-0.7-1.2-1.1c-0.4-0.4-0.8-0.7-1.1-1c-0.1-0.1-0.1-0.1-0.1-0.1c0,0,0,0-0.1,0c0,0-0.1,0.2-0.1,0.5c0,0.3,0,0.6,0,1
		c0,0.4,0,0.7,0,1c0,0.3,0,0.5-0.1,0.6c-0.1,0.2-0.2,0.3-0.4,0.3c-0.2,0-0.3,0-0.4-0.2c0-0.1-0.1-0.3-0.1-0.5c0-0.3,0-0.6,0-1.2
		c0-0.5,0-1.2,0-2c0-0.8,0-1.8,0.1-2.9c0-0.7,0-1.5,0-2.2c0-0.7,0-1.4,0-2s0-1.1,0-1.5S100.9,11.5,100.9,11.3z M101.8,12.3
		c0,0,0,0.2,0,0.6c0,0.4,0,0.8,0,1.3c0,0.5,0,1.1,0,1.7c0,0.6,0,1.2,0,1.7s0,0.9,0,1.3s0,0.5,0,0.6c0,0,0,0.1,0,0.2
		c0,0.1,0,0.1,0,0.2s0.1,0.1,0.1,0.1c0.1,0,0.1,0.1,0.3,0c0.1,0,0.2,0,0.4-0.1c0.2,0,0.5-0.1,0.7-0.2c0.3-0.1,0.6-0.2,0.9-0.4
		s0.6-0.4,0.9-0.7s0.5-0.7,0.6-1.1c0.2-0.5,0.3-1,0.3-1.7c0-0.7-0.1-1.2-0.2-1.7c-0.2-0.5-0.4-0.8-0.6-1.1c-0.3-0.3-0.5-0.5-0.9-0.6
		c-0.3-0.1-0.6-0.2-0.9-0.3c-0.3-0.1-0.6-0.1-0.8-0.1c-0.2,0-0.4,0-0.5,0c-0.3,0-0.4,0-0.5,0.1S101.8,12.2,101.8,12.3z"/>
</g>
<path fill-rule="evenodd" fill="#165986" d="M15.2,25.8c0.5,5.1-2.8,7.2-2.8,7.2c5.4-1.1,9-3.6,11.3-5.8c1.7-0.1,3.3-0.4,4.8-0.9
	c-1.8-1-3.2-2.2-4.3-3.3c-7.5-0.4-13.4-4.9-13.4-10.4c0-0.8,0.1-1.6,0.4-2.3c-2,1.8-3.2,4-3.2,6.5C7.9,20.6,10.8,24,15.2,25.8z
	 M26.5,21.4c2.3,2.3,5.8,4.7,11.3,5.8c0,0-3.3-2-2.8-7.2c4.1-1.7,7-4.8,7.3-8.4c0-0.2,0-0.4,0-0.6c0-5.8-6.5-10.4-14.6-10.4
	c-8.1,0-14.6,4.7-14.6,10.4C13.1,16.5,19,20.9,26.5,21.4z M28,5.2v3.6h5.9v4.8H28v3.6l-7-6L28,5.2z"/>
</svg>
