<?xml version="1.0" encoding="utf-8"?>
<!-- Generator: Adobe Illustrator 18.0.0, SVG Export Plug-In . SVG Version: 6.00 Build 0)  -->
<!DOCTYPE svg PUBLIC "-//W3C//DTD SVG 1.1 Tiny//EN" "http://www.w3.org/Graphics/SVG/1.1/DTD/svg11-tiny.dtd">
<svg version="1.1" baseProfile="tiny" id="Camada_1"
	 xmlns="http://www.w3.org/2000/svg" xmlns:xlink="http://www.w3.org/1999/xlink" x="0px" y="0px" viewBox="0 0 149 34"
	 xml:space="preserve">
<path fill-rule="evenodd" fill="none" stroke="#F5F21B" stroke-width="2" stroke-miterlimit="10" d="M17.7,1.3h113.7
	c9.3,0,16.8,7,16.8,15.7c0,8.7-7.5,15.7-16.8,15.7H17.7c-9.3,0-16.8-7-16.8-15.7C0.8,8.3,8.4,1.3,17.7,1.3z"/>
<g>
	<path fill="#F9C410" stroke="#F5C313" stroke-miterlimit="10" d="M13.2,12.4c0.1,0.1,0.2,0.1,0.2,0.2c0,0.1,0.1,0.2,0.1,0.3
		c0,0.1-0.1,0.2-0.1,0.2c-0.1,0.1-0.2,0.1-0.3,0.1c-0.1,0-0.3,0-0.5,0s-0.3,0-0.5-0.1c-0.2,0-0.3,0-0.5,0s-0.3,0.1-0.5,0.2
		c-0.3,0.3-0.5,0.6-0.7,1.1c-0.2,0.5-0.3,1-0.4,1.6c-0.1,0.6-0.1,1.2-0.1,1.9c0,0.7,0.1,1.3,0.2,1.9c0.1,0.6,0.2,1.1,0.4,1.6
		c0.1,0.5,0.3,0.8,0.5,1.1c0.2,0.2,0.4,0.4,0.6,0.4c0.2,0,0.5,0,0.7-0.1s0.5-0.1,0.7-0.2s0.3-0.1,0.4,0c0.2,0.1,0.3,0.3,0.4,0.4
		s0,0.3-0.2,0.4c-0.1,0.1-0.3,0.2-0.5,0.2c-0.2,0.1-0.5,0.1-0.8,0.2c-0.3,0-0.6,0-0.9,0c-0.3,0-0.6-0.2-0.9-0.4
		c-0.3-0.2-0.5-0.6-0.7-1.1s-0.3-1.1-0.5-1.8c-0.1-0.7-0.2-1.4-0.2-2.1s0-1.5,0.1-2.2c0.1-0.7,0.2-1.4,0.4-1.9
		c0.2-0.6,0.4-1,0.7-1.4c0.3-0.4,0.6-0.6,1-0.7s0.6-0.2,0.9-0.2s0.5,0,0.7,0.1C13,12.4,13.1,12.4,13.2,12.4z"/>
	<path fill="#F9C410" stroke="#F5C313" stroke-miterlimit="10" d="M15.6,12.6c0,0,0.1-0.1,0.2-0.1s0.2-0.1,0.3-0.1
		c0.1,0,0.2,0,0.3,0s0.1,0.1,0.2,0.3c0,0.1,0,0.3,0,0.6c0,0.3,0,0.7,0,1.2c0,0.5,0,1-0.1,1.7c0,0.6-0.1,1.2-0.1,1.9
		c0,0.6-0.1,1.2-0.1,1.8c0,0.6-0.1,1.1-0.1,1.6c0,0.5,0,0.9,0,1.2c0,0.3,0,0.5,0.1,0.5c0,0.1,0.2,0.1,0.3,0.1c0.2,0,0.4,0,0.6,0
		c0.2,0,0.5,0,0.7-0.1s0.5-0.1,0.7-0.1c0.2,0,0.4,0,0.6,0c0.1,0,0.2,0.1,0.2,0.1c0,0.2,0,0.4,0,0.5s-0.1,0.2-0.2,0.2
		c0,0-0.2,0-0.4,0c-0.2,0-0.4,0.1-0.7,0.1c-0.3,0-0.6,0.1-0.9,0.1c-0.3,0-0.6,0.1-0.9,0.1c-0.3,0-0.5,0-0.7,0s-0.3,0-0.3-0.1
		c0,0,0-0.2,0-0.6c0-0.3,0-0.8,0-1.3s0-1.1,0-1.8c0-0.7,0-1.4,0-2.1c0-0.7,0-1.4,0-2.1c0-0.7,0-1.3,0-1.8s0-1,0.1-1.3
		C15.6,12.8,15.6,12.6,15.6,12.6z"/>
	<path fill="#F9C410" stroke="#F5C313" stroke-miterlimit="10" d="M21.2,12.4c0,0,0.1-0.1,0.2-0.1c0.1,0,0.2,0,0.3,0
		c0.1,0,0.2,0,0.3,0s0.2,0.1,0.2,0.1c0,0.1,0.1,0.1,0.1,0.3c0,0.1,0,0.3,0,0.4s0,0.3,0,0.5s0,0.4-0.1,0.6c0,0.1,0,0.5,0,1
		s0,1.2,0,1.9c0,0.7,0,1.5-0.1,2.3c0,0.8,0,1.6-0.1,2.3c0,0.7,0,1.3-0.1,1.7c0,0.5,0,0.7-0.1,0.8c-0.1,0.1-0.2,0.2-0.3,0.3
		s-0.3,0-0.3-0.3c0-0.1,0-0.2,0-0.4c0-0.2,0-0.3,0-0.5c0-0.2,0-0.3,0-0.5c0-0.2,0-0.3,0-0.4c0,0,0-0.2,0-0.5c0-0.3,0-0.7,0-1.2
		c0-0.5,0-1,0-1.6c0-0.6,0-1.2,0-1.8c0-0.6,0-1.2,0-1.8c0-0.6,0-1.1,0-1.6c0-0.5,0-0.8,0-1.1S21.2,12.4,21.2,12.4z"/>
	<path fill="#F9C410" stroke="#F5C313" stroke-miterlimit="10" d="M29,12.9c0.3,0.2,0.5,0.6,0.7,1s0.3,1,0.4,1.6
		c0.1,0.6,0.2,1.2,0.2,1.9c0,0.7,0,1.3-0.1,2s-0.2,1.3-0.4,1.9c-0.2,0.6-0.4,1.1-0.7,1.6C29,22.9,29,23,29,23s0,0.1,0.1,0.2
		c0.2,0.3,0.4,0.5,0.5,0.7c0.1,0.2,0.1,0.3,0.1,0.4c-0.1,0.2-0.3,0.3-0.4,0.3c-0.1,0-0.2,0-0.3,0c0,0-0.2-0.3-0.5-0.7
		c-0.1-0.1-0.2-0.2-0.2-0.1c-0.1,0-0.1,0.1-0.1,0.1c-0.2,0.1-0.4,0.2-0.6,0.2c-0.2,0.1-0.5,0.1-0.8,0.1c-0.3,0-0.5-0.1-0.8-0.2
		c-0.3-0.1-0.5-0.3-0.7-0.5c-0.3-0.3-0.6-0.8-0.8-1.3C24.2,21.6,24,21,24,20.3c0-0.7,0-1.4,0-2.1s0.2-1.4,0.3-2.1
		c0.1-0.7,0.3-1.2,0.4-1.7c0.2-0.5,0.4-0.8,0.5-1c0.2-0.2,0.5-0.5,0.8-0.6c0.3-0.2,0.6-0.3,0.9-0.4c0.3-0.1,0.7-0.1,1,0
		C28.3,12.4,28.7,12.6,29,12.9z M28.5,22.1c0.2-0.4,0.4-0.9,0.5-1.4c0.1-0.5,0.2-1.1,0.3-1.7c0.1-0.6,0.1-1.2,0.1-1.8s0-1.1-0.1-1.6
		c-0.1-0.5-0.2-0.9-0.3-1.3c-0.2-0.4-0.3-0.6-0.6-0.8c-0.4-0.3-0.9-0.4-1.3-0.3c-0.5,0-0.9,0.3-1.2,0.8c-0.1,0.2-0.2,0.5-0.4,0.9
		c-0.1,0.4-0.2,0.9-0.3,1.5c-0.1,0.6-0.2,1.2-0.2,1.8c0,0.7,0,1.3,0,1.9c0,0.6,0.2,1.2,0.3,1.7c0.2,0.5,0.4,0.9,0.8,1.1
		c0.2,0.2,0.5,0.3,0.7,0.3c0.2,0,0.5,0,0.7-0.1c0.2-0.1,0.4-0.2,0.6-0.4C28.2,22.5,28.4,22.3,28.5,22.1z"/>
	<path fill="#F9C410" stroke="#F5C313" stroke-miterlimit="10" d="M36.8,12.5c0-0.1,0.1-0.2,0.2-0.2c0.1-0.1,0.2-0.1,0.3-0.1
		c0.1,0,0.2,0,0.3,0.1c0.1,0.1,0.1,0.1,0.1,0.3c0,0.1,0,0.3,0,0.8s0,0.9,0,1.5s0,1.2,0,1.9s0,1.4,0,2c0,0.6,0,1.2,0,1.7
		c0,0.5,0,0.8,0,1c0,0.3-0.1,0.6-0.2,0.9c-0.1,0.3-0.3,0.7-0.5,0.9s-0.5,0.5-0.8,0.8c-0.3,0.2-0.8,0.3-1.3,0.4
		c-0.5,0-0.9-0.1-1.2-0.2c-0.3-0.2-0.6-0.4-0.8-0.7s-0.4-0.6-0.5-0.9c-0.1-0.3-0.2-0.6-0.2-0.9c0-0.3-0.1-0.6-0.1-1.2
		c0-0.5,0-1.1,0-1.7c0-0.6,0-1.3,0-1.9c0-0.7,0-1.3,0-1.8c0-0.6,0-1,0-1.4c0-0.4,0-0.6,0-0.6c0-0.2,0.1-0.3,0.2-0.3
		c0.1,0,0.2-0.1,0.3,0c0.1,0,0.2,0.1,0.3,0.2c0.1,0.1,0.1,0.2,0.1,0.3c0,0.1,0,0.3,0,0.6c0,0.4,0,0.8,0,1.4c0,0.5,0,1.2-0.1,1.8
		c0,0.7,0,1.3,0,1.9c0,0.6,0,1.2,0,1.7c0,0.5,0.1,0.9,0.1,1.1c0,0.2,0.1,0.4,0.2,0.7c0.1,0.2,0.2,0.4,0.3,0.7
		c0.1,0.2,0.3,0.4,0.5,0.5c0.2,0.1,0.4,0.2,0.6,0.2c0.3,0,0.6,0,0.8-0.1c0.3-0.1,0.5-0.3,0.7-0.5c0.2-0.2,0.3-0.4,0.4-0.7
		c0.1-0.3,0.2-0.6,0.2-0.9c0.1-1.2,0.2-2.3,0.2-3.4c0-1,0-2,0-2.7c0-0.8-0.1-1.4-0.1-1.9C36.8,12.9,36.8,12.6,36.8,12.5z"/>
	<path fill="#F9C410" stroke="#F5C313" stroke-miterlimit="10" d="M39.6,12.2c0.1-0.1,0.3-0.1,0.7-0.2c0.4,0,0.8,0,1.3,0
		c0.4,0,0.9,0,1.2,0.1s0.6,0.1,0.6,0.1c0,0,0.1,0.1,0.1,0.1c0,0.1,0.1,0.1,0.1,0.2c0,0.1,0,0.1,0,0.2c0,0.1-0.1,0.1-0.2,0.1
		c-0.1,0-0.3,0-0.5,0.1s-0.5,0-0.9,0c-0.3,0-0.6,0-0.9,0.1c-0.3,0-0.5,0.1-0.6,0.1c-0.1,0-0.1,0.2-0.2,0.6c0,0.3-0.1,0.7-0.1,1.2
		s-0.1,1-0.1,1.5c0,0.5,0,1.1,0,1.5s0,0.9,0,1.2s0.1,0.5,0.1,0.5c0.1,0,0.3,0,0.6,0s0.6-0.1,1-0.1s0.7-0.1,1-0.1
		c0.3,0,0.5,0,0.5,0.1c0.1,0.1,0.1,0.3,0.1,0.5c0,0.2-0.1,0.3-0.3,0.4c-0.1,0-0.3,0-0.5,0c-0.3,0-0.6,0-0.9,0s-0.6,0-0.9,0
		c-0.3,0-0.4,0.1-0.5,0.2c0,0.1-0.1,0.3-0.1,0.5c0,0.2,0,0.5,0,0.7c0,0.2,0,0.5,0.1,0.7c0,0.2,0.1,0.3,0.2,0.4
		c0.1,0,0.3,0.1,0.6,0.1c0.3,0,0.7,0,1.1,0.1c0.4,0,0.7,0,1.1,0.1s0.5,0.1,0.6,0.1c0.1,0.1,0.1,0.1,0.2,0.2s0.1,0.2,0.1,0.3
		s0,0.2,0,0.3c0,0.1-0.1,0.1-0.1,0.2c0,0-0.2,0-0.4,0c-0.2,0-0.5,0-0.7,0s-0.6,0-0.9,0c-0.3,0-0.6,0-0.9,0s-0.6,0-0.8,0
		c-0.2,0-0.4,0-0.4-0.1c0,0-0.1-0.2-0.1-0.6c0-0.4-0.1-0.8-0.1-1.4c0-0.5-0.1-1.2-0.1-1.9c0-0.7-0.1-1.4-0.1-2.1c0-0.7,0-1.4,0-2.1
		c0-0.7,0-1.3,0-1.9c0-0.6,0-1,0.1-1.4C39.5,12.5,39.6,12.3,39.6,12.2z"/>
	<path fill="#F9C410" stroke="#F5C313" stroke-miterlimit="10" d="M50.8,12.2c0.1-0.1,0.3-0.1,0.7-0.2c0.4,0,0.8,0,1.3,0
		c0.4,0,0.9,0,1.2,0.1s0.6,0.1,0.6,0.1c0,0,0.1,0.1,0.1,0.1c0,0.1,0.1,0.1,0.1,0.2c0,0.1,0,0.1,0,0.2c0,0.1-0.1,0.1-0.2,0.1
		c-0.1,0-0.3,0-0.5,0.1s-0.5,0-0.9,0c-0.3,0-0.6,0-0.9,0.1c-0.3,0-0.5,0.1-0.6,0.1c-0.1,0-0.1,0.2-0.2,0.6c0,0.3-0.1,0.7-0.1,1.2
		s-0.1,1-0.1,1.5c0,0.5,0,1.1,0,1.5s0,0.9,0,1.2s0.1,0.5,0.1,0.5c0.1,0,0.3,0,0.6,0s0.6-0.1,1-0.1s0.7-0.1,1-0.1
		c0.3,0,0.5,0,0.5,0.1c0.1,0.1,0.1,0.3,0.1,0.5c0,0.2-0.1,0.3-0.3,0.4c-0.1,0-0.3,0-0.5,0c-0.3,0-0.6,0-0.9,0s-0.6,0-0.9,0
		c-0.3,0-0.4,0.1-0.5,0.2c0,0.1-0.1,0.3-0.1,0.5c0,0.2,0,0.5,0,0.7c0,0.2,0,0.5,0.1,0.7c0,0.2,0.1,0.3,0.2,0.4
		c0.1,0,0.3,0.1,0.6,0.1c0.3,0,0.7,0,1.1,0.1c0.4,0,0.7,0,1.1,0.1s0.5,0.1,0.6,0.1c0.1,0.1,0.1,0.1,0.2,0.2s0.1,0.2,0.1,0.3
		s0,0.2,0,0.3c0,0.1-0.1,0.1-0.1,0.2c0,0-0.2,0-0.4,0c-0.2,0-0.5,0-0.7,0s-0.6,0-0.9,0c-0.3,0-0.6,0-0.9,0s-0.6,0-0.8,0
		c-0.2,0-0.4,0-0.4-0.1c0,0-0.1-0.2-0.1-0.6c0-0.4-0.1-0.8-0.1-1.4c0-0.5-0.1-1.2-0.1-1.9c0-0.7-0.1-1.4-0.1-2.1c0-0.7,0-1.4,0-2.1
		c0-0.7,0-1.3,0-1.9c0-0.6,0-1,0.1-1.4C50.7,12.5,50.7,12.3,50.8,12.2z"/>
	<path fill="#F9C410" stroke="#F5C313" stroke-miterlimit="10" d="M61.6,12.6c0.1-0.2,0.2-0.4,0.3-0.4c0.1-0.1,0.2,0,0.3,0.1
		c0,0,0.1,0.2,0.2,0.5c0.1,0.3,0.2,0.7,0.3,1.1c0.1,0.5,0.3,1,0.4,1.5c0.2,0.6,0.3,1.2,0.5,1.8c0.2,0.6,0.3,1.2,0.5,1.7
		s0.3,1.1,0.4,1.5c0.1,0.4,0.2,0.8,0.3,1.1C65,21.8,65,22,65,22c0,0,0.1-0.1,0.2-0.4s0.2-0.6,0.3-1.1s0.3-1,0.4-1.5s0.3-1.2,0.5-1.8
		c0.2-0.6,0.3-1.2,0.5-1.8s0.3-1.1,0.5-1.5c0.1-0.4,0.3-0.8,0.4-1.1c0.1-0.3,0.2-0.4,0.2-0.4c0.1,0,0.2,0,0.2,0c0,0,0.1,0,0.1,0
		c0,0,0,0,0.1,0.1c0,0,0.1,0.1,0.1,0.2c0,0,0,0.2-0.1,0.6s-0.2,0.8-0.3,1.3c-0.1,0.5-0.3,1.1-0.5,1.8c-0.2,0.7-0.4,1.4-0.6,2
		c-0.2,0.7-0.4,1.4-0.6,2c-0.2,0.7-0.4,1.2-0.6,1.8s-0.3,0.9-0.5,1.2C65.2,23.8,65.1,24,65,24c-0.1,0-0.2-0.1-0.3-0.5
		c-0.1-0.3-0.3-0.7-0.5-1.2c-0.2-0.5-0.4-1.1-0.6-1.8c-0.2-0.7-0.4-1.3-0.6-2s-0.4-1.4-0.6-2.1c-0.2-0.7-0.3-1.3-0.5-1.8
		c-0.1-0.5-0.2-1-0.3-1.3C61.6,12.9,61.6,12.7,61.6,12.6z"/>
	<path fill="#F9C410" stroke="#F5C313" stroke-miterlimit="10" d="M70,12.2c0.1-0.1,0.3-0.1,0.7-0.2c0.4,0,0.8,0,1.3,0
		c0.4,0,0.9,0,1.2,0.1s0.6,0.1,0.6,0.1c0,0,0.1,0.1,0.1,0.1c0,0.1,0.1,0.1,0.1,0.2c0,0.1,0,0.1,0,0.2c0,0.1-0.1,0.1-0.2,0.1
		c-0.1,0-0.3,0-0.5,0.1s-0.5,0-0.9,0c-0.3,0-0.6,0-0.9,0.1c-0.3,0-0.5,0.1-0.6,0.1c-0.1,0-0.1,0.2-0.2,0.6c0,0.3-0.1,0.7-0.1,1.2
		s-0.1,1-0.1,1.5c0,0.5,0,1.1,0,1.5s0,0.9,0,1.2s0.1,0.5,0.1,0.5c0.1,0,0.3,0,0.6,0s0.6-0.1,1-0.1s0.7-0.1,1-0.1
		c0.3,0,0.5,0,0.5,0.1c0.1,0.1,0.1,0.3,0.1,0.5c0,0.2-0.1,0.3-0.3,0.4c-0.1,0-0.3,0-0.5,0c-0.3,0-0.6,0-0.9,0s-0.6,0-0.9,0
		c-0.3,0-0.4,0.1-0.5,0.2c0,0.1-0.1,0.3-0.1,0.5c0,0.2,0,0.5,0,0.7c0,0.2,0,0.5,0.1,0.7c0,0.2,0.1,0.3,0.2,0.4
		c0.1,0,0.3,0.1,0.6,0.1c0.3,0,0.7,0,1.1,0.1c0.4,0,0.7,0,1.1,0.1s0.5,0.1,0.6,0.1c0.1,0.1,0.1,0.1,0.2,0.2s0.1,0.2,0.1,0.3
		s0,0.2,0,0.3c0,0.1-0.1,0.1-0.1,0.2c0,0-0.2,0-0.4,0c-0.2,0-0.5,0-0.7,0s-0.6,0-0.9,0c-0.3,0-0.6,0-0.9,0s-0.6,0-0.8,0
		c-0.2,0-0.4,0-0.4-0.1c0,0-0.1-0.2-0.1-0.6c0-0.4-0.1-0.8-0.1-1.4c0-0.5-0.1-1.2-0.1-1.9c0-0.7-0.1-1.4-0.1-2.1c0-0.7,0-1.4,0-2.1
		c0-0.7,0-1.3,0-1.9c0-0.6,0-1,0.1-1.4C69.9,12.5,69.9,12.3,70,12.2z"/>
	<path fill="#F9C410" stroke="#F5C313" stroke-miterlimit="10" d="M80.2,12.5c0-0.1,0.1-0.2,0.2-0.2c0.1-0.1,0.2-0.1,0.3-0.1
		c0.1,0,0.2,0,0.3,0.1s0.1,0.1,0.1,0.3c0,0.1,0,0.3,0,0.8s0,0.9,0,1.5c0,0.6,0,1.2,0,1.9s0,1.4,0,2c0,0.6,0,1.2,0,1.7s0,0.8,0,1
		c0,0.3-0.1,0.6-0.2,0.9c-0.1,0.3-0.2,0.7-0.4,0.9c-0.2,0.3-0.4,0.5-0.7,0.8c-0.3,0.2-0.7,0.3-1.2,0.4c-0.4,0-0.7,0-1-0.2
		c-0.3-0.1-0.5-0.3-0.7-0.6c-0.2-0.2-0.3-0.5-0.4-0.8s-0.2-0.6-0.2-0.8c0-0.3-0.1-0.5-0.1-0.8s0-0.4,0-0.5c0-0.2,0.1-0.3,0.2-0.3
		c0.1,0,0.2-0.1,0.3,0c0.1,0,0.2,0.1,0.3,0.2c0.1,0.1,0.1,0.2,0.1,0.3c0,0.1,0,0.3,0,0.6c0,0.3,0,0.6,0.1,0.9
		c0.1,0.3,0.2,0.6,0.4,0.9c0.2,0.3,0.4,0.4,0.8,0.4c0.3,0,0.6,0,0.8-0.1c0.2-0.1,0.4-0.3,0.5-0.5c0.1-0.2,0.2-0.4,0.3-0.7
		c0.1-0.3,0.1-0.6,0.1-0.9c0.1-1.2,0.2-2.3,0.2-3.4c0-1,0-2,0-2.7c0-0.8-0.1-1.4-0.1-1.9S80.2,12.6,80.2,12.5z"/>
	<path fill="#F9C410" stroke="#F5C313" stroke-miterlimit="10" d="M86.8,12.1c0.1,0,0.1,0,0.2,0c0.1,0,0.2,0.1,0.2,0.1
		c0.1,0.1,0.1,0.2,0.2,0.3c0,0.1,0.1,0.3,0.1,0.5c0,0.1,0,0.3,0.1,0.7c0.1,0.3,0.1,0.7,0.2,1.2c0.1,0.5,0.2,1,0.3,1.6
		c0.1,0.6,0.3,1.2,0.4,1.8c0.1,0.6,0.3,1.2,0.4,1.7c0.1,0.6,0.3,1.1,0.4,1.5c0.1,0.4,0.2,0.8,0.2,1.1c0.1,0.3,0.1,0.4,0.1,0.5
		c0,0.1,0,0.1,0,0.2c0,0.1,0,0.2,0,0.2c0,0.1,0,0.2-0.1,0.2s-0.1,0.1-0.2,0.2s-0.2,0-0.3,0c-0.1,0-0.2-0.1-0.2-0.2
		c-0.1-0.1-0.1-0.2-0.2-0.3s-0.1-0.2-0.1-0.3c0,0,0-0.1-0.1-0.3c0-0.2-0.1-0.3-0.1-0.6s-0.1-0.5-0.1-0.8c0-0.3-0.1-0.6-0.1-0.9
		c0,0-0.1,0-0.2,0s-0.2,0-0.4,0c-0.2,0-0.4,0-0.6,0c-0.2,0-0.4,0-0.7,0.1c-0.5,0-0.9,0.1-1.2,0.1s-0.6,0.1-0.6,0.1
		c-0.1,0.6-0.3,1-0.3,1.3c-0.1,0.3-0.1,0.4-0.1,0.4c0,0.1-0.1,0.3-0.2,0.4s-0.1,0.4-0.2,0.5s-0.2,0.3-0.3,0.4
		c-0.1,0.1-0.3,0.1-0.4,0.1c-0.1,0-0.2-0.1-0.2-0.2c0-0.1,0-0.3,0-0.4c0-0.2,0.1-0.4,0.1-0.6s0.1-0.4,0.2-0.7c0-0.1,0.2-0.4,0.3-0.9
		c0.2-0.5,0.4-1.1,0.6-1.8c0.2-0.7,0.5-1.4,0.7-2.2s0.5-1.5,0.7-2.1c0.2-0.7,0.4-1.2,0.6-1.7c0.1-0.5,0.2-0.7,0.3-0.8
		c0.1-0.2,0.1-0.4,0.2-0.6C86.5,12.2,86.6,12.1,86.8,12.1z M84.9,19.9C84.9,20,84.9,20,84.9,19.9c0.2,0.1,0.3,0.1,0.4,0.1
		c0.1,0,0.3,0,0.5,0c0.2,0,0.4,0,0.6-0.1c0.4,0,0.8-0.1,1.1-0.1c0.3,0,0.5-0.1,0.4-0.1c-0.1-0.6-0.2-1.2-0.3-1.8
		c-0.1-0.6-0.2-1.1-0.3-1.6c-0.1-0.5-0.2-0.9-0.3-1.2s-0.2-0.4-0.2-0.4c-0.1,0-0.2,0.2-0.3,0.5c-0.1,0.3-0.3,0.7-0.5,1.2
		c-0.2,0.5-0.4,1.1-0.5,1.7S85.1,19.3,84.9,19.9z"/>
	<path fill="#F9C410" stroke="#F5C313" stroke-miterlimit="10" d="M97.6,13.9c0,0.3-0.1,0.6-0.1,1c0,0.4-0.1,1-0.2,1.8
		c-0.1,0.8-0.1,1.7-0.2,2.9s-0.2,2.6-0.3,4.4c0,0-0.1,0.1-0.2,0.1s-0.2,0.1-0.3,0.1c-0.1,0-0.2,0-0.3,0c-0.1,0-0.2-0.1-0.2-0.1
		c0-0.1,0-0.4,0-0.7c0-0.3,0.1-0.6,0.1-1c0-0.1,0-0.3,0.1-0.6c0-0.3,0.1-0.7,0.1-1.1c0-0.4,0.1-0.9,0.2-1.5c0.1-0.6,0.1-1.1,0.2-1.7
		s0.1-1.1,0.2-1.7c0.1-0.5,0.1-1,0.2-1.5s0.1-0.8,0.1-1.1s0.1-0.5,0.1-0.5c0-0.1,0.1-0.2,0.2-0.3c0.1-0.1,0.3-0.1,0.4-0.1
		s0.3,0,0.4,0.1c0.1,0.1,0.2,0.1,0.3,0.2c0.1,0.2,0.2,0.5,0.3,0.8c0.1,0.4,0.2,0.8,0.4,1.2c0.1,0.5,0.3,0.9,0.4,1.4
		c0.1,0.5,0.3,1,0.4,1.4s0.2,0.8,0.3,1.2c0.1,0.3,0.2,0.6,0.2,0.7c0,0.1,0.1,0.2,0.1,0.2c0,0,0.1,0,0.1,0c0,0,0-0.1,0.1-0.2
		c0-0.1,0.1-0.4,0.2-0.7c0.1-0.3,0.2-0.7,0.4-1.1c0.1-0.4,0.3-0.9,0.4-1.4c0.1-0.5,0.3-1,0.4-1.4s0.3-0.9,0.4-1.2
		c0.1-0.4,0.2-0.6,0.3-0.8c0.1-0.2,0.2-0.3,0.3-0.4c0.1-0.1,0.3-0.1,0.5-0.1c0.2,0,0.3,0.1,0.4,0.2c0.1,0.1,0.2,0.2,0.2,0.4
		c0,0,0,0.3,0.1,0.7s0.1,0.9,0.1,1.5c0,0.6,0.1,1.3,0.1,2c0,0.7,0.1,1.4,0.1,2s0.1,1.2,0.1,1.7c0,0.5,0,0.8,0.1,1
		c0,0.5,0,0.9,0.1,1.3c0,0.3,0.1,0.6,0.1,0.7c0,0.1,0,0.2-0.1,0.2c-0.1,0.1-0.2,0.2-0.3,0.2c-0.1,0-0.2,0-0.3-0.1
		c-0.1-0.1-0.1-0.2-0.1-0.5l-0.6-9.8c0,0-0.1-0.1-0.1-0.1c0,0-0.1,0-0.1,0.1c-0.1,0.2-0.2,0.5-0.3,1s-0.3,0.9-0.4,1.4
		c-0.2,0.5-0.3,1-0.5,1.6s-0.3,1-0.5,1.5c-0.1,0.4-0.3,0.8-0.4,1.1s-0.2,0.5-0.3,0.5c-0.1,0.1-0.3,0.1-0.4,0.1
		c-0.2,0-0.3-0.1-0.4-0.2c0,0-0.1-0.2-0.2-0.5c-0.1-0.3-0.2-0.7-0.4-1.1c-0.1-0.5-0.3-1-0.4-1.5c-0.2-0.5-0.3-1.1-0.5-1.6
		c-0.2-0.5-0.3-1-0.4-1.4c-0.1-0.4-0.2-0.7-0.3-0.9c0,0-0.1-0.1-0.1-0.1C97.7,13.7,97.6,13.8,97.6,13.9z"/>
	<path fill="#F9C410" stroke="#F5C313" stroke-miterlimit="10" d="M110.4,12.1c0.1,0,0.1,0,0.2,0c0.1,0,0.2,0.1,0.2,0.1
		c0.1,0.1,0.1,0.2,0.2,0.3c0,0.1,0.1,0.3,0.1,0.5c0,0.1,0,0.3,0.1,0.7c0.1,0.3,0.1,0.7,0.2,1.2c0.1,0.5,0.2,1,0.3,1.6
		c0.1,0.6,0.3,1.2,0.4,1.8c0.1,0.6,0.3,1.2,0.4,1.7c0.1,0.6,0.3,1.1,0.4,1.5c0.1,0.4,0.2,0.8,0.2,1.1c0.1,0.3,0.1,0.4,0.1,0.5
		c0,0.1,0,0.1,0,0.2c0,0.1,0,0.2,0,0.2c0,0.1,0,0.2-0.1,0.2s-0.1,0.1-0.2,0.2s-0.2,0-0.3,0c-0.1,0-0.2-0.1-0.2-0.2
		c-0.1-0.1-0.1-0.2-0.2-0.3s-0.1-0.2-0.1-0.3c0,0,0-0.1-0.1-0.3c0-0.2-0.1-0.3-0.1-0.6s-0.1-0.5-0.1-0.8c0-0.3-0.1-0.6-0.1-0.9
		c0,0-0.1,0-0.2,0s-0.2,0-0.4,0c-0.2,0-0.4,0-0.6,0c-0.2,0-0.4,0-0.7,0.1c-0.5,0-0.9,0.1-1.2,0.1s-0.6,0.1-0.6,0.1
		c-0.1,0.6-0.3,1-0.3,1.3c-0.1,0.3-0.1,0.4-0.1,0.4c0,0.1-0.1,0.3-0.2,0.4s-0.1,0.4-0.2,0.5s-0.2,0.3-0.3,0.4
		c-0.1,0.1-0.3,0.1-0.4,0.1c-0.1,0-0.2-0.1-0.2-0.2c0-0.1,0-0.3,0-0.4c0-0.2,0.1-0.4,0.1-0.6s0.1-0.4,0.2-0.7c0-0.1,0.2-0.4,0.3-0.9
		c0.2-0.5,0.4-1.1,0.6-1.8c0.2-0.7,0.5-1.4,0.7-2.2s0.5-1.5,0.7-2.1c0.2-0.7,0.4-1.2,0.6-1.7c0.1-0.5,0.2-0.7,0.3-0.8
		c0.1-0.2,0.1-0.4,0.2-0.6C110.1,12.2,110.2,12.1,110.4,12.1z M108.5,19.9C108.5,20,108.5,20,108.5,19.9c0.2,0.1,0.3,0.1,0.4,0.1
		c0.1,0,0.3,0,0.5,0c0.2,0,0.4,0,0.6-0.1c0.4,0,0.8-0.1,1.1-0.1c0.3,0,0.5-0.1,0.4-0.1c-0.1-0.6-0.2-1.2-0.3-1.8
		c-0.1-0.6-0.2-1.1-0.3-1.6c-0.1-0.5-0.2-0.9-0.3-1.2s-0.2-0.4-0.2-0.4c-0.1,0-0.2,0.2-0.3,0.5c-0.1,0.3-0.3,0.7-0.5,1.2
		c-0.2,0.5-0.4,1.1-0.5,1.7S108.6,19.3,108.5,19.9z"/>
	<path fill="#F9C410" stroke="#F5C313" stroke-miterlimit="10" d="M114.8,12.4c0,0,0.1-0.1,0.2-0.1c0.1,0,0.2,0,0.3,0
		c0.1,0,0.2,0,0.3,0s0.2,0.1,0.2,0.1c0,0.1,0.1,0.1,0.1,0.3c0,0.1,0,0.3,0,0.4s0,0.3,0,0.5s0,0.4-0.1,0.6c0,0.1,0,0.5,0,1
		s0,1.2,0,1.9c0,0.7,0,1.5-0.1,2.3c0,0.8,0,1.6-0.1,2.3c0,0.7,0,1.3-0.1,1.7c0,0.5,0,0.7-0.1,0.8c-0.1,0.1-0.2,0.2-0.3,0.3
		s-0.3,0-0.3-0.3c0-0.1,0-0.2,0-0.4c0-0.2,0-0.3,0-0.5c0-0.2,0-0.3,0-0.5c0-0.2,0-0.3,0-0.4c0,0,0-0.2,0-0.5c0-0.3,0-0.7,0-1.2
		c0-0.5,0-1,0-1.6c0-0.6,0-1.2,0-1.8c0-0.6,0-1.2,0-1.8c0-0.6,0-1.1,0-1.6c0-0.5,0-0.8,0-1.1S114.8,12.4,114.8,12.4z"/>
	<path fill="#F9C410" stroke="#F5C313" stroke-miterlimit="10" d="M122.1,13.5c0.1,0.1,0.1,0.2,0,0.3S122,14,122,14
		c-0.1,0.1-0.2,0.1-0.3,0.1c-0.1,0-0.2,0-0.3-0.1c-0.1-0.1-0.2-0.2-0.2-0.3s-0.1-0.3-0.1-0.4c-0.1-0.1-0.2-0.2-0.4-0.3
		c-0.2-0.1-0.5-0.1-0.9-0.1c-0.2,0-0.5,0.1-0.6,0.3c-0.2,0.2-0.3,0.5-0.4,0.9c-0.1,0.4-0.2,0.8-0.2,1.4c0,0.5-0.1,1.1-0.1,1.7
		c0,0.4,0.1,0.8,0.3,1.1c0.2,0.3,0.4,0.5,0.7,0.8s0.5,0.4,0.8,0.6c0.3,0.2,0.6,0.4,0.9,0.6c0.3,0.2,0.5,0.5,0.7,0.8
		c0.2,0.3,0.3,0.6,0.3,1c0,0.6-0.1,1.1-0.3,1.4s-0.5,0.6-0.9,0.7c-0.4,0.1-0.9,0.2-1.4,0.1c-0.5-0.1-1.1-0.3-1.7-0.5
		c-0.1-0.1-0.2-0.1-0.2-0.3c0-0.1,0-0.2,0.1-0.3c0.1-0.1,0.2-0.2,0.3-0.2c0.1,0,0.3,0,0.5,0.1c0.2,0.1,0.4,0.2,0.7,0.3
		s0.6,0.1,0.9,0.1c0.3,0,0.6-0.1,0.8-0.2s0.3-0.4,0.3-0.8s-0.1-0.7-0.3-1c-0.2-0.3-0.4-0.5-0.7-0.7c-0.3-0.2-0.6-0.4-0.9-0.7
		c-0.3-0.2-0.6-0.5-0.9-0.7c-0.3-0.3-0.5-0.6-0.7-1c-0.2-0.4-0.3-0.8-0.3-1.3c0-0.6,0-1.2,0.1-1.8c0-0.6,0.1-1.1,0.3-1.6
		c0.2-0.5,0.4-0.9,0.7-1.2c0.3-0.3,0.7-0.5,1.2-0.5c0.5,0,0.9,0,1.2,0.2c0.3,0.1,0.5,0.3,0.7,0.5s0.3,0.4,0.3,0.5
		S122.1,13.4,122.1,13.5z"/>
</g>
<g>
	<path fill="#F9C410" d="M145,18.9c0.1,1-0.5,1.6-1.8,1.6c-0.3,0-1,0-2.2-0.2c-1.7-0.2-3.1-0.4-4.2-0.5c-0.1,3.8-0.2,6-0.3,6.6
		c-0.2,1.4-0.8,2.1-1.6,2.2c-1,0.1-1.6-0.6-1.7-2c0-0.1,0-0.8,0.1-2.2c0.1-1.6,0.2-3.2,0.2-4.8c-2.1,0-4.2,0-6.3,0
		c-1.4-0.1-2.1-0.6-2.2-1.5c-0.1-1.1,0.7-1.7,2.3-1.8c1.7-0.1,3.8-0.1,6.3,0c0-2.1,0-4.2,0-6.3c0.1-1.3,0.7-2,1.6-2.1
		c1.1-0.1,1.7,0.7,1.8,2.2c0,0.2,0,0.9,0,2.1c0,1.5,0,2.9,0.1,4.3c3.3,0.3,5.3,0.5,6,0.7C144.3,17.6,145,18.1,145,18.9z"/>
</g>
</svg>
