<?xml version="1.0" encoding="utf-8"?>
<!-- Generator: Adobe Illustrator 18.0.0, SVG Export Plug-In . SVG Version: 6.00 Build 0)  -->
<!DOCTYPE svg PUBLIC "-//W3C//DTD SVG 1.1 Tiny//EN" "http://www.w3.org/Graphics/SVG/1.1/DTD/svg11-tiny.dtd">
<svg version="1.1" baseProfile="tiny" id="Camada_3"
	 xmlns="http://www.w3.org/2000/svg" xmlns:xlink="http://www.w3.org/1999/xlink" x="0px" y="0px" viewBox="0 0 1243.5 143.2"
	 xml:space="preserve">
<g>
	<path fill="none" d="M104.4,57.8c1.1,0,2.1-0.9,2.1-2c0-1.2-0.9-2.1-2-2.1c-1.1,0-2.1,0.9-2.1,2C102.3,56.8,103.2,57.8,104.4,57.8z
		"/>
	<path fill="none" d="M106.6,15.2l2.9,0.1c-1.3-0.3-2.6-0.7-3.9-1.1C105.7,14.7,106.1,15.2,106.6,15.2z"/>
	<path fill="none" d="M876.8,5.4c-1.9,2.5-2.1,6.3-0.4,10.9c0,0.1,0.1,0.3,0.2,0.4c2.4-2.2,5.2-4.3,8.5-6.2c0.1-0.4,0.3-0.8,0.4-1.1
		c-2-1.9-3.8-4-5.4-6.4C878.7,3.6,877.6,4.3,876.8,5.4z"/>
	<path fill="none" d="M534.4,59.2l-7-0.8c0.9,1.6,1.8,3.2,3,4.6c3,3.8,6.9,6.8,11.5,8.6c-1.1-1.1-2-2.3-2.9-3.5
		C537.1,65.5,535.5,62.5,534.4,59.2z"/>
	<path fill="none" d="M195.2,33.7c-0.8-1.9-1.7-3.8-2.8-5.5c-3-0.7-5.9-1.5-8.7-2.5l-0.8,6.6L195.2,33.7z"/>
	<path fill="none" d="M204.4,34.8c-0.8-1.4-1.6-2.7-2.6-3.9c-0.4-0.4-0.7-0.9-1.1-1.3c-1.8-0.2-3.6-0.4-5.3-0.8
		c0.9,1.7,1.7,3.4,2.4,5.2L204.4,34.8z"/>
	<path fill="none" d="M167.8,30.5l12.9,1.5l0.8-7.2c-1.9-0.8-3.7-1.6-5.5-2.5c-1,0.7-2,1.4-2.9,2.3
		C171.1,26.3,169.3,28.3,167.8,30.5z"/>
	<path fill="none" d="M540.8,66.9c1.8,2.4,3.9,4.6,6.2,6.4c0.5,0.1,1,0.2,1.5,0.3L550,61l-13.1-1.5
		C537.9,62.2,539.2,64.6,540.8,66.9z"/>
	<path fill="none" d="M935.7,78.5c-0.9,3.1,0.9,6.4,4.1,7.3l11.6,3.3c3.1,0.9,6.4-0.9,7.3-4.1l0.2-0.6l-23-6.5L935.7,78.5z"/>
	<circle fill="none" cx="121.1" cy="30.6" r="1.1"/>
	<path fill="none" d="M430,83c1.5-0.1,1.9-1.6,1.6-3.3c-0.9-3.1-2.9-5.4-4.9-7.7C425.3,75.3,425.5,83.3,430,83z"/>
	<path fill="none" d="M534.8,44.2c-0.4,4.5,0.1,8.9,1.3,12.9l14.1,1.6l1.4-12.6L534.8,44.2z"/>
	<path fill="none" d="M158.5,29.5l6.7,0.8c1.8-2.8,3.9-5.3,6.3-7.4c0.7-0.6,1.4-1.2,2.2-1.7c-0.2-0.1-0.4-0.2-0.5-0.3
		c-4.1,1-8,2.8-11.3,5.4C160.7,27.2,159.6,28.3,158.5,29.5z"/>
	<path fill="none" d="M118.6,36.1c0.1-0.6,0.4-1.2,0.9-1.6c0.3-0.3,0.3-0.8,0-1.2c-0.1-0.1-0.3-0.2-0.4-0.2c-0.3-0.1-0.5,0-0.7,0.2
		c-0.7,0.7-1.1,1.5-1.3,2.4c-0.4,1.7,0.2,3.6,1.9,4.8c0.4,0.3,0.9,0.2,1.1-0.2c0.3-0.4,0.2-0.9-0.2-1.1
		C118.7,38.5,118.4,37.3,118.6,36.1z"/>
	<path fill="none" d="M885.4,20.2c-0.6,2.9-0.8,5.7-0.9,8.5c1.9,2,4,3.9,6.3,5.7c2.1,1.6,4.2,3,6.4,4.2c2.4-0.5,4.9-1.2,7.4-2.1
		c2.6-0.9,5-2,7.2-3.2c0.8-2.4,1.5-4.9,2-7.6c0.4-2.2,0.7-4.4,0.8-6.5c-1.4,0.2-2.7,0.3-4.1,0.4c-8.1,0.2-15.7-2.6-21.9-7.4
		c-0.4,0.2-0.7,0.4-1.1,0.6C886.6,15,885.9,17.5,885.4,20.2z M898.1,18.9c2.2-0.8,4.6,0.3,5.4,2.5c0.8,2.2-0.3,4.6-2.5,5.4
		c-2.2,0.8-4.6-0.3-5.4-2.5C894.8,22.2,895.9,19.7,898.1,18.9z"/>
	<path fill="none" d="M564.7,62.7l-12.4-1.4l-1.4,12.4c0.3,0,0.6,0,0.9,0c2.7-1.2,5.2-2.8,7.5-4.8C561.3,67.2,563.1,65.1,564.7,62.7
		z"/>
	<path fill="none" d="M476.4,40.4l0.5,0c-0.5-0.2-1-0.5-1.4-0.7C475.6,40.1,476,40.4,476.4,40.4z"/>
	<path fill="none" d="M199.7,49.3l8.2,0.9c0.3-4.6-0.5-9-2.3-13l-7.2-0.8C199.6,40.4,200.1,44.8,199.7,49.3z"/>
	<path fill="none" d="M196,36.1l-13.4-1.5l-1.4,12.6l16.2,1.9C197.8,44.5,197.3,40.1,196,36.1z"/>
	<path fill="none" d="M470.3,18.5c-0.1,0.2-0.1,0.3-0.2,0.5c0.8,0.5,1.5,1.1,2.1,1.7l0.1-4.8c-0.3-0.2-0.7-0.3-1-0.5
		C471,16.4,470.6,17.5,470.3,18.5z"/>
	<path fill="none" d="M187.7,73.7c-1.1,1-2.4,1.9-3.6,2.7c4.9-0.8,9.4-2.8,13.2-5.8c1.4-1.1,2.8-2.4,4-3.8l-7-0.8
		C192.4,68.9,190.2,71.5,187.7,73.7z"/>
	<path fill="none" d="M349.2,10.8c-0.1,0.2-0.2,0.4-0.3,0.5c0.3-0.1,0.6-0.2,0.8-0.3C349.6,11,349.4,10.9,349.2,10.8z"/>
	<path fill="none" d="M375.4,26.6l22-10.9l-1.3-0.9l-21.1,10.4C375.2,25.6,375.3,26.1,375.4,26.6z"/>
	<path fill="none" d="M886.3,42.5c0,0,0,0.1,0,0.1c1.8,4.9,4.6,7.8,7.8,8.4c1.4,0.3,2.7,0.1,4.2-0.4c2.3-0.8,4.7-2.7,6.9-5.4
		c-2.8-0.8-5.7-2.1-8.5-3.6C893,42.4,889.6,42.7,886.3,42.5z"/>
	<path fill="none" d="M191.7,65.7l-12.4-1.4l-1.4,12.4c0.3,0,0.6,0,0.9,0c2.7-1.2,5.2-2.8,7.5-4.8C188.3,70.2,190.1,68.1,191.7,65.7
		z"/>
	<path fill="none" d="M195.5,63.8l7.4,0.9c2.5-3.5,4.2-7.7,4.8-12.2l-8.2-0.9C198.8,56,197.4,60.1,195.5,63.8z"/>
	<path fill="none" d="M164,32.4l-7.2-0.8c-2.6,3.5-4.4,7.6-5.2,12.2l8.2,0.9C160.5,40.2,161.9,36.1,164,32.4z"/>
	<path fill="none" d="M179,46.9l1.4-12.6l-14-1.6c-2.1,3.6-3.6,7.8-4.3,12.3L179,46.9z"/>
	<path fill="none" d="M193,63.6c2.1-3.7,3.5-7.8,4.2-12.3L181,49.4L179.5,62L193,63.6z"/>
	<path fill="none" d="M159.6,46.9l-8.2-1c-0.4,4.6,0.3,9,1.9,13l7.4,0.8C159.6,55.8,159.2,51.4,159.6,46.9z"/>
	<path fill="none" d="M167.8,69.9c1.8,2.4,3.9,4.6,6.2,6.4c0.5,0.1,1,0.2,1.5,0.3L177,64l-13.1-1.5
		C164.9,65.2,166.2,67.6,167.8,69.9z"/>
	<path fill="none" d="M161.4,62.2l-7-0.8c0.9,1.6,1.8,3.2,3,4.6c3,3.8,6.9,6.8,11.5,8.6c-1.1-1.1-2-2.3-2.9-3.5
		C164.1,68.5,162.5,65.5,161.4,62.2z"/>
	<path fill="none" d="M161.8,47.2c-0.4,4.5,0.1,8.9,1.3,12.9l14.1,1.6l1.4-12.6L161.8,47.2z"/>
	<path fill="none" d="M715.6,20.4c-1.5-0.7-3.2,0.1-4,1.7c-0.7,1.6-0.1,3.4,1.3,4.1c1.5,0.7,3.2-0.1,4-1.7
		C717.7,22.9,717.1,21.1,715.6,20.4z"/>
	<path fill="none" d="M569,33.1l-13.4-1.5l-1.4,12.6l16.2,1.9C570.8,41.5,570.3,37.1,569,33.1z"/>
	<path fill="none" d="M769.2,11.8l-21.1,10.4c0.1,0.5,0.2,0.9,0.3,1.4l22-10.9L769.2,11.8z"/>
	<path fill="none" d="M773.9,15.5l-0.2-0.5l-2.5-1.8l1.5,2.9L749,27.8c0,0.5,0.1,1,0.1,1.5l24.2-11.9l0.4,0.9
		c0.4-0.8,0.9-1.6,1.2-2.3l-0.8-0.6L773.9,15.5z"/>
	<path fill="none" d="M566,60.6c2.1-3.7,3.5-7.8,4.2-12.3L554,46.4L552.5,59L566,60.6z"/>
	<path fill="none" d="M531.5,26.5l6.7,0.8c1.8-2.8,3.9-5.3,6.3-7.4c0.7-0.6,1.4-1.2,2.2-1.7c-0.2-0.1-0.4-0.2-0.5-0.3
		c-4.1,1-8,2.8-11.3,5.4C533.7,24.2,532.6,25.3,531.5,26.5z"/>
	<path fill="none" d="M764.2,8.1l-18.1,9c0.2,0.4,0.4,0.8,0.6,1.3l18.8-9.3L764.2,8.1z"/>
	<path fill="none" d="M417.7,60.9c-0.5,0.1-1.1,0.1-1.6-0.1c1.4,1.4,2.8,2.7,2.9,2.8c0.3-0.4,0.5-0.8,0.6-1.2
		c0.8-2.2-0.7-5.3-3.3-4.8c5.1-3,7.6,4.5,5.1,7.7c0,0,1.7,1.7,2.2,2.2c2.7-7.5-1.9-15.7-9.9-10.5C414.8,58.5,416.2,60,417.7,60.9z"
		/>
	<path fill="none" d="M1233.8,0h-1.7c1.8,4.2,3.1,8.8,3.7,13.3C1236.2,8.7,1235.4,4.2,1233.8,0z"/>
	<path fill="none" d="M905.5,39.2c-1.4,0.5-2.9,1-4.3,1.4c2,0.9,4,1.6,5.9,2.1c1.1-1.6,2-3.4,2.9-5.4
		C908.6,38,907.1,38.7,905.5,39.2z"/>
	<path fill="none" d="M537,29.4l-7.2-0.8c-2.6,3.5-4.4,7.6-5.2,12.2l8.2,0.9C533.5,37.2,534.9,33.1,537,29.4z"/>
	<path fill="none" d="M916.7,26.1c-0.3,1.6-0.7,3.2-1.1,4.7c1.8-1.2,3.3-2.4,4.7-3.7c-1-2-1.8-4.2-2.4-6.4c-0.1-0.2-0.3-0.3-0.4-0.5
		C917.3,22.2,917,24.2,916.7,26.1z"/>
	<path fill="none" d="M910.2,43.4c3.3,0.5,6.2,0.4,8.5-0.4c1.5-0.6,2.7-1.4,3.6-2.6c1.4-1.8,1.9-4.2,1.4-7.1
		c-0.7-1.1-1.4-2.2-2.1-3.3c-2.2,1.9-4.7,3.7-7.6,5.3C913,38.3,911.7,41,910.2,43.4z"/>
	<path fill="none" d="M883.6,14.9c-2.2,1.5-4.2,3.1-5.8,4.7c1,1.9,2.3,3.9,3.9,5.9c0.2-1.9,0.4-3.8,0.8-5.8
		C882.8,18,883.1,16.4,883.6,14.9z"/>
	<path fill="none" d="M722.2,7.8c-0.1,0.2-0.2,0.4-0.3,0.5c0.3-0.1,0.6-0.2,0.8-0.3C722.6,8,722.4,7.9,722.2,7.8z"/>
	<path fill="none" d="M540.8,27.5l12.9,1.5l0.8-7.2c-1.9-0.8-3.7-1.6-5.5-2.5c-1,0.7-2,1.4-2.9,2.3
		C544.1,23.3,542.3,25.3,540.8,27.5z"/>
	<path fill="none" d="M552,43.9l1.4-12.6l-14-1.6c-2.1,3.6-3.6,7.8-4.3,12.3L552,43.9z"/>
	<path fill="none" d="M730.1,48.4c-2.4-1.1-5.4,0.1-6.6,2.8c-1.2,2.7-0.2,5.7,2.2,6.9c2.4,1.1,5.4-0.2,6.6-2.8
		C733.6,52.6,732.6,49.5,730.1,48.4z"/>
	<path fill="none" d="M568.5,60.8l7.4,0.9c2.5-3.5,4.2-7.7,4.8-12.2l-8.2-0.9C571.8,53,570.4,57.1,568.5,60.8z"/>
	<path fill="none" d="M788.1,62.7c1.1-0.1,2.2-0.4,3.1-1.4c-0.1-0.1-6.2-5.5-6.3-5.5C783,58.8,784.7,63,788.1,62.7z"/>
	<path fill="none" d="M742.8,27.3c0.7-1.6,0.1-3.4-1.3-4.1c-1.5-0.7-3.2,0.1-4,1.7c-0.7,1.6-0.1,3.4,1.3,4.1
		C740.3,29.7,742,28.9,742.8,27.3z"/>
	<path fill="none" d="M743.3,34.3c-1.5-0.7-3.2,0.1-4,1.7c-0.7,1.6-0.1,3.4,1.3,4.1c1.5,0.7,3.2-0.1,4-1.7
		C745.3,36.8,744.7,35,743.3,34.3z"/>
	<path fill="none" d="M577.4,31.8c-0.8-1.4-1.6-2.7-2.6-3.9c-0.4-0.4-0.7-0.9-1.1-1.3c-1.8-0.2-3.6-0.4-5.3-0.8
		c0.9,1.7,1.7,3.4,2.4,5.2L577.4,31.8z"/>
	<path fill="none" d="M560.7,70.7c-1.1,1-2.4,1.9-3.6,2.7c4.9-0.8,9.4-2.8,13.2-5.8c1.4-1.1,2.8-2.4,4-3.8l-7-0.8
		C565.4,65.9,563.2,68.5,560.7,70.7z"/>
	<path fill="none" d="M477.4,54.8c1.1,0,2.1-0.9,2.1-2c0-1.2-0.9-2.1-2-2.1c-1.1,0-2.1,0.9-2.1,2C475.3,53.8,476.2,54.8,477.4,54.8z
		"/>
	<path fill="none" d="M532.6,43.9l-8.2-1c-0.4,4.6,0.3,9,1.9,13l7.4,0.8C532.6,52.8,532.2,48.4,532.6,43.9z"/>
	<path fill="none" d="M412.7,55.2c0.1-0.1,0.1-0.1,0.2-0.1c-0.1,0-0.2-0.1-0.3-0.1C412.6,55,412.6,55.1,412.7,55.2z"/>
	<path fill="none" d="M743.7,13.7l19.1-9.5l0.2-1.7l-7.8,3.8c-1.4,0.8-2.8,1.5-4.4,2.2l-8.3,4.1C743,13,743.4,13.4,743.7,13.7z"/>
	<path fill="none" d="M394.4,41.6l1.4-0.7c0-0.3,0-0.8-0.3-1.4l-3.1,1.6C393.1,41.3,393.8,41.5,394.4,41.6z"/>
	<path fill="none" d="M568.2,30.7c-0.8-1.9-1.7-3.8-2.8-5.5c-3-0.7-5.9-1.5-8.7-2.5l-0.8,6.6L568.2,30.7z"/>
	<path fill="none" d="M725.6,18.1c0.7-1.6,0.1-3.4-1.3-4.1c-1.5-0.7-3.2,0.1-4,1.7c-0.7,1.6-0.1,3.4,1.3,4.1
		C723.1,20.5,724.9,19.7,725.6,18.1z"/>
	<path fill="none" d="M390.1,43.7l2.9-1.4c-0.4-0.4-0.8-0.7-1.1-1l-2.4,1.2L390.1,43.7z"/>
	<path fill="none" d="M735.8,14.4c-1.5-0.7-3.2,0.1-4,1.7c-0.7,1.6-0.1,3.4,1.3,4.1c1.5,0.7,3.2-0.1,4-1.7
		C737.9,16.9,737.3,15.1,735.8,14.4z"/>
	<path fill="none" d="M373.7,21.3l8.7-4.3c-0.7-0.1-1.4-0.3-2-0.6l-7.3,3.6C373.3,20.5,373.5,20.9,373.7,21.3z"/>
	<path fill="none" d="M46.9,2.3l3.5,1.4c0.6,0.2,1.3,0,1.5-0.6L53.2,0h-6.6l-0.3,0.8C46,1.4,46.3,2.1,46.9,2.3z"/>
	<path fill="none" d="M823.7,3.6l3.1-1.3c1.1-0.5,1.8-1.3,2.3-2.3h-1.7c-0.3,0.4-0.7,0.7-1.2,0.9l-3.1,1.3c-1.5,0.7-3.3,0-3.9-1.6
		L818.9,0h-1.6l0.5,1.3C818.8,3.5,821.4,4.6,823.7,3.6z"/>
	<path fill="none" d="M72.8,2.8l3.5,1.4c0.6,0.2,1.3,0,1.5-0.6l1.4-3.5c0,0,0-0.1,0-0.1h-6.6l-0.5,1.3C71.9,1.9,72.2,2.6,72.8,2.8z"
		/>
	<path fill="none" d="M598.4,79.2c1.4,0.4,1.4,0.1,0.2-0.7c-3-1.9-5.3-4.7-6.6-8.1c-1.2-3.4-1.2-7-0.2-10.4c0.4-1.4,0.2-1.6-0.6-0.4
		c-2.4,3.8-3.2,8-1.8,11.8C590.8,75.1,594.1,77.8,598.4,79.2z"/>
	<path fill="none" d="M61.8,8.4l3.5,1.4c0.6,0.2,1.3,0,1.5-0.6l1.4-3.5c0.2-0.6,0-1.3-0.6-1.5l-3.5-1.4c-0.6-0.2-1.3,0-1.5,0.6
		l-1.4,3.5C60.9,7.5,61.2,8.2,61.8,8.4z"/>
	<path fill="none" d="M1175.9,83.1c0.9,4.3,1.7,8.5,4.4,12c1.6,1.7,3.7,2.5,5,0.9C1189.4,91.3,1180.6,84.4,1175.9,83.1z"/>
	<path fill="none" d="M53.7,3.8c-0.2,0.6,0,1.3,0.6,1.5l3.5,1.4c0.6,0.2,1.3,0,1.5-0.6l1.4-3.5c0.2-0.6,0-1.3-0.6-1.5L57.5,0h-2.1
		c-0.1,0.1-0.2,0.2-0.2,0.3L53.7,3.8z"/>
	<path fill="none" d="M572.7,46.3l8.2,0.9c0.3-4.6-0.5-9-2.3-13l-7.2-0.8C572.6,37.4,573.1,41.8,572.7,46.3z"/>
	<path fill="none" d="M70.4,0.6L70.6,0h-4.8l3,1.2C69.5,1.5,70.1,1.2,70.4,0.6z"/>
	<path fill="none" d="M428.3,8.7c0-0.6,0.1-1.1,0.1-1.7l-2.5-1l-0.1,1.7L428.3,8.7z"/>
	<path fill="none" d="M872.6,32.8c1.1,3.1,4.6,5.4,9.7,6.4c-0.6-2.9-0.9-6-0.9-9.3c-2.3-2.6-4.3-5.2-5.8-7.9
		C872.5,25.9,871.4,29.7,872.6,32.8z"/>
	<path fill="none" d="M441.8,14.3c1.7,0.7,2.5,2.6,1.8,4.3l-1.4,3.4c-0.7,1.7-2.6,2.5-4.3,1.8c0,0.6-0.1,1.1-0.1,1.6
		c2.3,0.7,4.9-0.5,5.8-2.8l1.4-3.4c1-2.5-0.2-5.3-2.7-6.3l-3.9-1.6c0,0.6-0.1,1.1-0.1,1.7L441.8,14.3z"/>
	<path fill="none" d="M640.1,71.1c-1.1,3.3,0.6,6.8,3.9,7.9l12.1,4.1c3.3,1.1,6.8-0.6,7.9-3.9l0.2-0.7l-23.9-8.1L640.1,71.1z"/>
	<path fill="none" d="M803,80c1.5-0.1,1.9-1.6,1.6-3.3c-0.9-3.1-2.9-5.4-4.9-7.7C798.3,72.3,798.5,80.3,803,80z"/>
	<path fill="none" d="M1178.5,64.8c3.2-3.6,0.1-9-5-9.3c0,0,0.8,11.4,0.8,11.6C1176.2,66.9,1177.4,66,1178.5,64.8z"/>
	<path fill="none" d="M1191.3,35.1c0.9-1.1,0.8-2.8-0.3-3.7c-1.1-0.9-2.8-0.8-3.7,0.3c-0.9,1.1-0.8,2.8,0.3,3.7
		C1188.7,36.4,1190.3,36.2,1191.3,35.1z"/>
	<path fill="none" d="M835.7,31.9c-1.3,1.9-3.2,3.4-5.5,4.1c-2.3,0.7-4.6,0.7-6.9-0.1c-0.9-0.3-1-0.2-0.3,0.4
		c2.4,1.7,5.2,2.3,7.7,1.4c2.5-0.8,4.4-2.9,5.3-5.7C836.4,31.1,836.3,31.1,835.7,31.9z"/>
	<path fill="none" d="M989.3,47.3l21.8-1.7c-0.1-0.5-0.1-1-0.1-1.6l-22.4,1.8C988.8,46.2,989.1,46.7,989.3,47.3z"/>
	<path fill="none" d="M41.6,18.9l22.8,9.3c2.5,1,5.3-0.2,6.3-2.7l1.4-3.4c1-2.5-0.2-5.3-2.7-6.3L46.6,6.5c-2.5-1-5.3,0.2-6.3,2.7
		l-1.4,3.4C37.9,15,39.1,17.8,41.6,18.9z M40.4,13.1l1.4-3.4c0.7-1.7,2.6-2.5,4.3-1.8l22.8,9.3c1.7,0.7,2.5,2.6,1.8,4.3l-1.4,3.4
		c-0.7,1.7-2.6,2.5-4.3,1.8l-22.8-9.3C40.5,16.7,39.7,14.8,40.4,13.1z"/>
	<path fill="none" d="M1031.4,46c0.8,1.9,2.9,2.8,4.8,2c1.9-0.8,2.8-2.9,2-4.8c-0.8-1.9-2.9-2.8-4.8-2
		C1031.5,42,1030.6,44.2,1031.4,46z"/>
	<path fill="none" d="M413.2,65.3c0.6,0.3,1.2,0.4,2,0.4c1.1-0.1,2.2-0.4,3.1-1.4c-0.1-0.1-1.7-1.6-3.4-3c0.6,1.2,1.2,2.4,1.5,3.6
		C414.6,62.7,413.8,63.6,413.2,65.3z"/>
	<path fill="none" d="M1001.1,40.1c-1.2-0.4-2.3-0.8-3.4-1.3l-18.6,1.5l-0.2-2.1c-0.6,0.6-1.1,1.1-1.7,1.7l5.9,1.7L1001.1,40.1z"/>
	<path fill="none" d="M267.1,74.1c-1.1,3.3,0.6,6.8,3.9,7.9l12.1,4.1c3.3,1.1,6.8-0.6,7.9-3.9l0.2-0.7l-23.9-8.1L267.1,74.1z"/>
	<path fill="none" d="M1243.5,2.2c-0.1,6.8-3.5,12.1-7.3,17.2c-0.1,0.1-0.2,0.3-0.3,0.4c-0.9,1.2-1.8,2.4-2.7,3.5
		c0.3-6.9-9.3-10.6-11.3-17c-0.7-2.2-0.7-4.3-0.3-6.4h-45.2c-3.1,2.2-7.4,3.3-11.9,2.3l32.2,27.2c1.1,0.9,1.2,2.5,0.3,3.6l-6.8,8
		c-0.9,1.1-2.5,1.2-3.6,0.3l-6.4-5.4l4.2-5c0.5-0.5,0.4-1.3-0.1-1.8c-0.5-0.5-1.3-0.4-1.8,0.1l-4.2,5l-2-1.7l4.2-5
		c0.5-0.5,0.4-1.3-0.1-1.8c-0.5-0.5-1.4-0.4-1.8,0.1l-4.2,5l-2-1.7l6.2-7.3c0.5-0.5,0.4-1.4-0.1-1.8c-0.5-0.5-1.4-0.4-1.8,0.2
		l-6.2,7.3l-2-1.7l4.2-5c0.5-0.5,0.4-1.3-0.1-1.8c-0.5-0.5-1.4-0.4-1.8,0.2l-4.2,5l-2-1.7l4.2-5c0.5-0.5,0.4-1.4-0.2-1.8
		c-0.5-0.5-1.3-0.4-1.8,0.2l-4.2,5l-1.8-1.5l4.2-5c0.5-0.5,0.4-1.4-0.2-1.8c-0.5-0.5-1.4-0.4-1.8,0.2l-4.2,5l-2-1.7l4.2-5
		c0.5-0.5,0.4-1.3-0.2-1.8c-0.5-0.5-1.3-0.4-1.8,0.2l-4.3,5l-2.1-1.7l6.2-7.3c0.5-0.5,0.4-1.3-0.1-1.8c-0.5-0.5-1.4-0.4-1.8,0.1
		l-6.2,7.3l-2-1.7l4.3-5c0.5-0.5,0.4-1.3-0.2-1.8c-0.5-0.5-1.4-0.4-1.8,0.1l-4.3,5l-0.4-0.3l6.9,44.7c-1.3-1.7-2.8-1.9-3.8-1.8
		c-0.7,0.1-1.1,0.1-1.6,0.8l-7-47.5c-0.4,0.3-0.9,0.5-1.4,0.8l7.5,48.3c-0.1,0.1-0.1,0.3-0.2,0.4c-1.1-1.3-2.3-1.9-3.4-1.7
		c-1.1,0.2-2,1.1-2.6,2.6l-7.2-46.6c-0.4,0.2-0.8,0.3-1.3,0.5l7.1,45.1c-0.7-0.4-1.4-0.6-2.1-0.5c-1.7,0.3-2.9,2.2-3.2,5.2
		l-7.5-47.9c-3.3,0.8-6.8,1.3-10.3,1.3c-2.6,0-5.2-0.1-7.8-0.5c2.9,1.7,5.5,3.7,7.8,6.2c-2.8,1.9-5.9,3.5-9.2,4.6
		c-2.8-5.6-6.7-10.6-11.6-14.6c0,1.9-0.2,3.9-0.5,5.7c0.8,0.8,1.6,1.6,2.3,2.4c2,2.3,3.8,4.9,5.2,7.7c-3.4,0.7-6.9,1-10.5,0.9
		c-0.6,1.5-1.4,3-2.2,4.5c0.4,0,0.8,0.1,1.2,0.1c4.6,0.3,9.1-0.1,13.4-1.1c0.9,2.3,1.5,4.6,2,7c-10.2,1.1-19.9,3.7-29,7.6
		c-2.7,1.8-5.6,3.2-8.7,4.2c-2,1.1-4.1,2.3-6,3.6l-0.8,6.1c13.1-9.2,28.5-15.2,45.1-16.9c0.1,1.9,0.2,3.7,0,5.7
		c-0.1,1.7-0.4,3.4-0.7,5.1c-14,0.5-26.5,7.7-34.3,18.6c-4.3-3-7.8-6.9-10.3-11.4l-1.7,12.8l6.6,16l1.1-0.5c2.4-1,5.2,0.2,6.2,2.6
		c1,2.4-0.2,5.2-2.6,6.2l-16.1,6.7c-2.4,1-5.2-0.2-6.2-2.6c-1-2.4,0.1-5.2,2.6-6.2l1.6-0.6l-6.6-16l-28-21.5l0.2,2.2l-4.6,0.4
		l-0.4-4.6l2-0.2l-1.9-1.5l-0.2,0l0-0.2l-1.1-0.8c-0.3-0.2-0.5-0.4-0.7-0.7l0.1,1.8l-22.7,1.8c0,0.2-0.1,0.4-0.1,0.6l-0.3,1
		l23.3-1.9l0.4,4.6l-25,2l-0.5,1.6l25.6-2l0.4,4.6l-27.3,2.2l-0.5,1.6l27.9-2.2l0.4,4.5l1.6-0.1l-0.4-4.5l4.6-0.4l0.4,4.6l-35.8,2.8
		l-3,10.6c-1,3.5-4.1,5.9-7.5,6.3l2.4-8.5c2.1-7.3-1.2-14.9-7.6-18.5l1-3.5c0.2-0.8-0.2-1.7-1.1-1.9l-4-1.1
		c-0.8-0.2-1.7,0.2-1.9,1.1l-0.9,3.1l-14.3-4.1l0.9-3.1c0.2-0.8-0.2-1.7-1.1-1.9l-4-1.1c-0.8-0.2-1.7,0.2-1.9,1.1l-1,3.6
		c-7.3-0.3-14.1,4.4-16.2,11.8l-2.4,8.5c-2.7-2.1-4-5.8-3-9.3l6.1-21.5c-1.3,1.6-3,2.8-4.9,3.5c-3.2,1.1-7.1,1.2-11.3,0.4
		c-2.7,3.6-5.7,6.2-9,7.4c-1.9,0.7-3.8,0.9-5.8,0.5c-4.7-0.9-8.1-4.9-10-10.3c0,0,0,0,0,0c-0.2-0.5-0.3-1-0.5-1.4
		c-6.4-0.9-11.5-3.6-13.4-8.5c-1.7-4.8,0.3-10.1,4.4-14.8c-0.3-0.6-0.5-1.1-0.7-1.7c0,0,0,0,0,0c-1.9-5.1-1.9-10.1,0.9-13.7
		c1.1-1.4,2.4-2.4,4-3.1c-0.1-0.1-0.2-0.3-0.3-0.5h-4.1l-12.3,14.3l-3.3-2.9L868.2,0h-1.3l-9.2,10.7l-3.5-3.1l6.5-7.5h-1.4l-5.9,6.7
		l-2.6-2.3l3.8-4.4h-15.9l-16.9,7.3c-2.4,1-5.2-0.1-6.3-2.5L813.3,0h-1.4c-0.6,13-1.4,30.2-1.4,29.9c0-0.5-1.6-3.1-5.1-2.7
		c-3.5,0.5-5.1,6.2-5.3,6.4c-0.1,0.2,0.9-21.5,1.5-33.6H799l-0.8,15.2c0,0,0.1,0.1,0.1,0.1c0,0-0.1,0-0.1,0l-0.9,17.1l-13.6-10
		c-0.1,1.2-0.1,2.4-0.2,3.1c-0.4-2.2-1.3-4-2.2-4.2l1.1,2.2l-3.7,1.8l-1.3-2.6c-0.4,0.2-0.7,0.5-1.1,0.9l1.2,2.3L752,38.5l-1.8-3.6
		l24.4-12.1c0.7-2.6,1.1-5.4-0.9-4.3L775,21l-25.5,12.6l-0.5-1.1c-1.1,17.3-14,35.8-27.6,27.7c-6.5-3.9-2.9-8.7-4.5-15.8
		c-1.7-7.6-8.4-1.6-11.9-8.2c-1.5-2.8-1.8-5.8-1.2-8.7c-1,0.7-2,1.4-3.1,2l19.4,45.6c-1.6-1.8-3.2-2.6-4.5-2.1
		c-0.5,0.2-0.9,0.7-1.2,1.3l-18-42.4c-0.3,0.2-0.6,0.3-1,0.5l18.4,43.3c-1.1-0.7-2.1-0.9-2.9-0.6c-0.9,0.4-1.4,1.3-1.6,2.7
		c-0.1-0.1-0.2-0.1-0.3-0.2l-12-28.2l-0.5,1.6l11.3,26c-0.6-0.2-0.9,0-1.4,0.2c-0.8,0.3-1.7,1.1-1.8,2.9l-10-23.4l-6.9,20.3
		c-1.3,3.7-4.6,6-8.2,6.3l3-8.8c2.6-7.6-0.5-15.8-7-19.9l1.3-3.7c0.3-0.9-0.2-1.8-1-2.1l-4.2-1.4c-0.8-0.3-1.8,0.2-2.1,1l-1.1,3.2
		l-14.8-5.1l1.1-3.2c0.3-0.9-0.2-1.8-1-2.1l-4.2-1.4c-0.9-0.3-1.8,0.2-2.1,1l-1.3,3.7c-7.7-0.7-15.1,3.9-17.7,11.5l-3,8.8
		c-2.8-2.4-3.9-6.3-2.7-10l8.1-23.8c-6.1-3.4-11.6-7.6-16.1-12.6c-9.9,5.5-21.5,8.6-33.9,8.6c-0.7,0-1.4,0-2-0.1
		c4.4,6.2,6.7,14.1,5.7,22.3c-2,17.6-18,30.3-35.6,28.2c-17.7-2-30.3-18-28.3-35.6c1.4-12.6,10-22.7,21.2-26.6
		c-1.1-0.8-2.2-1.6-3.3-2.4c-0.5,0.2-1,0.4-1.5,0.7c-17,8.3-24.5,28.3-17.4,45.6c0.3,0.7,0.6,1.3,0.9,2c5.8,12,17.5,19.2,29.9,20
		l-0.2,1.6c0,0,0,0,0.1,0l-0.8,7.2l-4.5-0.4l0.5-4.8c-12.1-2.2-23-9.9-28.8-21.8c-0.4-0.7-0.7-1.5-1-2.2c-3.1-7.6-3.7-15.6-2.1-23.2
		c-2.8,6.1-11.2,7-12.7,1c-0.2,1.6-0.8,3.2-1.5,4.4c-0.7,1.3-1.2,1.6-2.1,1.2c-0.3-0.1-0.3-0.4-0.1-0.8c0.8-1.2,2.1-4.1,2.2-4.5
		c0.1-0.2,0.2-0.6,0.3-1.1c-1.1,1-2.6,1.7-4,2c-5.8,1.4-8.4-4.2-6.7-9.2c1.9-5.5,10.1-10.4,14.8-5.4c5.4-4.3,10.4,1.7,10.6,7.6
		c0,0.5,0,0.9,0,1.3c3.1-10.2,10.2-19.1,20.5-24.1c-1-0.9-2-1.9-3-2.8c-9.5,4.7-20.5,7.4-32.1,7.4c-5.2,0-10.3-0.6-15.1-1.6l0,1.6
		l-1.6,0c0.3,0.3,0.5,0.6,0.7,0.9c-0.9,0.4-1.8,0.8-2.7,1.1l3.5,0.1l-0.1,2l-7.6-0.2c-0.6,0-1,0.4-1,1c0,0.6,0.4,1,1,1l7.6,0.2
		l-0.1,2.1l-5.2-0.1c-0.6,0-1,0.4-1,1c0,0.6,0.4,1,1,1l5.2,0.1l-0.1,2l-5.2-0.2c-0.6,0-1,0.4-1,1c0,0.6,0.4,1,1,1l5.2,0.1l-0.1,1.8
		l-5.2-0.1c-0.3,0-0.6,0.1-0.7,0.3c0.1,0.5,0.2,1.1,0.3,1.6c0.1,0.1,0.2,0.1,0.4,0.1l5.2,0.1l-0.1,2l-5.2-0.1c-0.1,0-0.1,0-0.2,0
		c0,0.6,0,1.3-0.1,2c0.1,0,0.1,0,0.2,0l5.2,0.1l-0.1,2l-5.6-0.2c-0.1,0.7-0.3,1.3-0.5,2l6.1,0.2l-0.1,2l-5.2-0.1c-0.6,0-1,0.4-1,1
		c0,0.6,0.4,1,1,1l5.2,0.1l-0.1,2l-5.1-0.1c-0.6,0-1,0.4-1,1c0,0.6,0.4,1,1,1l5.1,0.1l-0.2,6.6c0,1.1-1,2-2.1,2l-8.3-0.2
		c-1.1,0-2-1-2-2.1l0.5-17.8c-3.6-2.8-5.9-6.2-6.8-10.1l-10.7-3.8c0.9-3,1.9-6.2,3.1-9.4c1.3-3.7,2.7-7.3,4.1-10.6
		c-1.6-1-3.2-2.1-4.7-3.3l-11.1,27.2c-1.1,2.7-4.1,3.9-6.8,2.8l-1.2-0.5c-0.1,2.1-0.2,3.4-0.2,3.3c0-0.5-1.6-3.1-5.1-2.7
		c-3.5,0.5-5.1,6.2-5.3,6.4c-0.1,0.1,0.1-4.8,0.4-11.2l-2.6-1.1l-0.6,11l-16.5-12.1l1.6,3.2l-3.7,1.8l-1.8-3.6l3.5-1.7l-1.3-0.9
		l-2.8,1.4l-1.8-3.6l0.9-0.5l-1.3-0.9l-0.3,0.1l-0.2-0.5l-2.5-1.8l1.5,2.9L376,30.8c0,0.5,0.1,1,0.1,1.5l24.2-11.9L402,24
		l-25.5,12.6l-0.5-1.1c-1.1,17.3-14,35.8-27.6,27.7c-6.5-3.9-2.9-8.7-4.5-15.8c-1.7-7.6-8.4-1.6-11.9-8.2c-1.5-2.8-1.8-5.8-1.2-8.7
		c-1,0.7-2,1.4-3.1,2l19.4,45.6c-1.6-1.8-3.2-2.6-4.5-2.1c-0.5,0.2-0.9,0.7-1.2,1.3l-18-42.4c-0.3,0.2-0.6,0.3-1,0.5l18.4,43.3
		c-1.1-0.7-2.1-0.9-2.9-0.6c-0.9,0.4-1.4,1.3-1.6,2.7c-0.1-0.1-0.2-0.1-0.3-0.2l-12-28.2l-0.5,1.6l11.3,26c-0.6-0.2-0.9,0-1.4,0.2
		c-0.8,0.3-1.7,1.1-1.8,2.9l-10-23.4l-6.9,20.3c-1.3,3.7-4.6,6-8.2,6.3l3-8.8c2.6-7.6-0.5-15.8-7-19.9l1.3-3.7
		c0.3-0.9-0.2-1.8-1-2.1l-4.2-1.4c-0.8-0.3-1.8,0.2-2.1,1l-1.1,3.2l-14.8-5.1l1.1-3.2c0.3-0.9-0.2-1.8-1-2.1l-4.2-1.4
		c-0.9-0.3-1.8,0.2-2.1,1l-1.3,3.7c-7.7-0.7-15.1,3.9-17.7,11.5l-3,8.8c-2.8-2.4-3.9-6.3-2.7-10l8.1-23.8
		c-6.1-3.4-11.6-7.6-16.1-12.6c-9.9,5.5-21.5,8.6-33.9,8.6c-0.7,0-1.4,0-2-0.1c4.4,6.2,6.7,14.1,5.7,22.3c-2,17.6-18,30.3-35.6,28.2
		c-17.7-2-30.3-18-28.3-35.6c1.4-12.6,10-22.7,21.2-26.6c-1.1-0.8-2.2-1.6-3.3-2.4c-0.5,0.2-1,0.4-1.5,0.7
		c-17,8.3-24.5,28.3-17.4,45.6c0.3,0.7,0.6,1.3,0.9,2c5.8,12,17.5,19.2,29.9,20l-0.2,1.6c0,0,0,0,0.1,0l-0.8,7.2l-4.5-0.4l0.5-4.8
		c-12.1-2.2-23-9.9-28.8-21.8c-0.4-0.7-0.7-1.5-1-2.2c-3.1-7.6-3.7-15.6-2.1-23.2c-2.8,6.1-11.2,7-12.7,1c-0.2,1.6-0.8,3.2-1.5,4.4
		c-0.7,1.3-1.2,1.6-2.1,1.2c-0.3-0.1-0.3-0.4-0.1-0.8c0.8-1.2,2.1-4.1,2.2-4.5c0.1-0.2,0.2-0.6,0.3-1.1c-1.1,1-2.6,1.7-4,2
		c-5.8,1.4-8.4-4.2-6.7-9.2c1.9-5.5,10.1-10.4,14.8-5.4c5.4-4.3,10.4,1.7,10.6,7.6c0,0.5,0,0.9,0,1.3c3.1-10.2,10.2-19.1,20.5-24.2
		c-1-0.9-2-1.9-3-2.8c-9.5,4.7-20.5,7.4-32.1,7.4c-5.2,0-10.3-0.6-15.1-1.6l0,1.6l-5.2-0.2c-0.6,0-1,0.4-1,1c0,0.6,0.4,1,1,1
		l5.2,0.1l-0.1,2l-7.6-0.2c-0.6,0-1,0.4-1,1c0,0.6,0.4,1,1,1l7.6,0.2l-0.1,2.1l-5.2-0.1c-0.6,0-1,0.4-1,1c0,0.6,0.4,1,1,1l5.2,0.1
		l-0.1,2l-5.2-0.2c-0.6,0-1,0.4-1,1c0,0.6,0.4,1,1,1l5.2,0.1l-0.1,1.8l-5.2-0.1c-0.6,0-1,0.4-1,1c0,0.6,0.4,1,1,1l5.2,0.1l-0.1,2
		l-5.2-0.1c-0.6,0-1,0.4-1,1c0,0.6,0.4,1,1,1l5.2,0.1l-0.1,2l-7.5-0.2c-0.6,0-1,0.4-1,1c0,0.6,0.4,1,1,1l7.5,0.2l-0.1,2l-5.2-0.1
		c-0.6,0-1,0.4-1,1c0,0.6,0.4,1,1,1l5.2,0.1l-0.1,2l-5.1-0.1c-0.6,0-1,0.4-1,1c0,0.6,0.4,1,1,1l5.1,0.1l-0.2,6.6c0,1.1-1,2-2.1,2
		l-8.3-0.2c-1.1,0-2-1-2-2.1l1.3-43c-0.7,2.1-1.4,4.3-2.2,6.5c-1.2,3.2-2.4,6.3-3.6,9.2l-12.5-4.5c0.9-3,1.9-6.2,3.1-9.4
		c1.3-3.7,2.7-7.3,4.1-10.6c-1.6-1-3.2-2.1-4.7-3.3L72.6,30.2c-1.1,2.7-4.1,3.9-6.8,2.8L37.8,21.6c-2.7-1.1-3.9-4.1-2.8-6.8L41,0
		H30.8c0.2,0.4,0.1,0.9-0.2,1.1c-0.4,0.3-1,0.1-1.3-0.3L28.8,0h-1.5l1.2,1.7c-2.6,1.2-4.1,3.1-4.5,5.9c-0.5,2.8-0.9,4.7-1.5,5.8
		c-0.5,1.1-1.3,2.2-2.2,3.2c-0.6,0.6-1.2,1.1-1.9,1.6c-2.6,1.8-5.5,2.4-8.7,1.9c-3.1-0.6-5.6-2.2-7.4-4.8c0,0,0-0.1-0.1-0.1
		c0,0,0-0.1-0.1-0.1c0,0,0,0,0-0.1c-1.8-2.6-2.4-5.5-1.9-8.7C0.7,3.8,1.9,1.7,3.7,0h-79.8v142.2H248c-0.5-0.3-1.1-0.6-1.6-0.9
		c-0.1-0.1-0.3-0.1-0.4-0.2c-4.9-2.8-9.5-5.9-11.9-11.3c-3.2-7.2,0.2-15.3,4.9-21.1c1.9-7.9,7.9-11.6,8.4-10.7
		c0.7,0.9-3.3,5-4.8,11.7c-2,8.6-2.7,18.2,1.5,26.3c-2.5-8.8-1.7-19.2-0.2-26c0.6,1.5,1.4,2.8,1.8,3.5c2.7,4.1,6.7,6.9,7.2,12.1
		c0.6,5.4-5,11.3-3.5,16.5h1041.9V0h-47.9C1243.5,0.7,1243.5,1.5,1243.5,2.2z M1014.8,62.3l-0.4-4.6l4.6-0.4l0.4,4.6L1014.8,62.3z
		 M44.7,63.9c-1.2,0.3-2.5-0.4-3.6-1c1,1.6,1.8,3.4,2.3,5.1c-3.7-4.5-3.2,3.8-5.5,6.1c-0.3-1.2-0.3-5.2-1.6-5.7
		c-1.3-0.5-2.6,1.7-3.7,2.3c0.8-1.6,2.9-5.4,0.7-6.8c-2.5-1.6-4,2.9-4.5,4.5c0.5-5.3-2.3-2.1-5.2-0.8c2.6-4.1-7.4-0.2-8.9,0.4
		c1.1-0.9,8.2-7,2.9-6.4c5.4-1.9,2.6-4-1.7-4.8c2.5-0.3,8.2-0.2,10-2.2c2.4-2.6-3.2-3-5-2.8c4.9-2-0.1-6.2-2.7-8.4
		c3.5,1.5,6.4,2.4,3.8-2.4c1.8,0.9,2.9,3,4.9,3.7c0.4-1.3,0.3-2.9-0.1-4.2c2.8,2.6,8.5,6.2,9.4,10.2c0,0.1,0,0.2,0,0.2
		c0.6-0.9,1.2-1.7,1.5-2.4c2.5-4.2,2.8-8.3,3.4-8.3c0.5-0.1,1,4.5-1.8,9.2c-0.5,0.9-1.2,1.9-2.2,3c2.6-0.2,5.3,4.5,7.8,5.1
		c-1.4,1.4-3.5,1-5.2,0.5C40.6,60.2,42.6,62.6,44.7,63.9z M83.3,64.8c-5,3.8-15.8,4.4-13.5,13.2c-4.8-4.5-7-13-4.7-19.2
		c2.1-5.7,10-11.9,16.3-8.1C86.7,54,88.9,60.5,83.3,64.8z M84,49.7l-7.3-2.3c0.3-4.6,1.6-11,3.7-18.3l12.2,4.4
		C89.6,40.3,86.6,46,84,49.7z M236.5,36.6c0.2-0.6,1-1,1.7-0.7l6,2c0.7,0.2,1.1,0.9,0.9,1.6c-0.2,0.6-1,0.9-1.7,0.7l-6-2
		C236.7,37.9,236.2,37.2,236.5,36.6z M233.8,38.8c0.2-0.6,1-1,1.7-0.7l9.6,3.2c0.7,0.2,1.1,0.9,0.9,1.6c-0.2,0.6-1,0.9-1.7,0.7
		l-9.6-3.2C234,40.1,233.6,39.4,233.8,38.8z M232.8,41.7c0.2-0.6,1-1,1.7-0.7l9.6,3.2c0.7,0.2,1.1,0.9,0.9,1.6
		c-0.2,0.6-1,0.9-1.7,0.7l-9.6-3.2C233,43,232.6,42.3,232.8,41.7z M232.8,104.9c-2,4-5.4,7.8-10.1,8c-3.5,0.1-6.3-1.6-9.1-3.5
		c-0.1,0-0.1-0.1-0.2-0.2c-0.6-0.4-1.3-0.9-1.9-1.4c3.6,0.1,5.4-5,8.6-6.1c2.9-1,5.5,0.4,8.3,0.8c0.5,0.1,1.4,0.1,2.3,0.1
		c-3.3,2.6-8.7,5.6-14,6.5c5.4,0.2,10.3-2.6,14.5-5.9c3.2-2.5,4.5-5.7,5.1-5.5C237.1,97.7,236.6,101.9,232.8,104.9z M246.7,70.9
		c-0.1,1.1-0.4,2.3-0.8,3.5c-1.4,4.2-4.1,7.3-8.1,9.3c-4,2-8.1,2.3-12.3,0.9c0,0-0.1,0-0.1,0c0,0-0.1,0-0.1-0.1c0,0-0.1,0-0.1,0
		c-4.2-1.4-7.4-4.1-9.4-8.1c-2-4-2.3-8.1-0.9-12.3c0.4-1.2,0.9-2.2,1.4-3.2c1-1.6,2.1-3,3.4-4.2c1.3-1.2,3.7-2.6,7.2-4.2
		c3.5-1.7,5.5-4.5,6.1-8.4l10.3,3.4c-1.9,3.5-2,6.9-0.1,10.4c1.8,3.5,2.9,6,3.3,7.7C246.8,67.2,246.9,69,246.7,70.9z M277.9,103.7
		l-2.8,4c-0.3,0.4-0.4,1.1-0.2,1.5l1.7,4.5c0.2,0.4-0.1,0.7-0.5,0.6l-4.6-1.4c-0.5-0.1-1.1,0-1.5,0.3l-3.8,3
		c-0.4,0.3-0.7,0.2-0.7-0.3l-0.1-4.8c0-0.5-0.3-1.1-0.7-1.3l-4-2.7c-0.4-0.3-0.4-0.6,0.1-0.7l4.6-1.6c0.4-0.2,0.9-0.6,1-1.1l1.3-4.7
		c0.1-0.5,0.5-0.5,0.7-0.1l2.9,3.9c0.3,0.4,0.9,0.7,1.4,0.6l4.8-0.2C278,103,278.2,103.3,277.9,103.7z M303.1,85.7l-0.2,0l-8.2-2.8
		l-0.2,0.7c-1.8,5.2-7.4,8-12.6,6.2l-12.1-4.1c-5.2-1.8-8-7.4-6.2-12.6l0.2-0.7l-8.2-2.8l-0.2-0.1l3.2-9.4c2-5.8,7.6-9.5,13.4-9.3
		l-0.7,2.1c-0.3,0.8,0.2,1.8,1,2.1l4.2,1.4c0.9,0.3,1.8-0.2,2.1-1l0.9-2.7l14.8,5.1l-0.9,2.7c-0.3,0.8,0.2,1.8,1,2.1l4.2,1.4
		c0.9,0.3,1.8-0.2,2.1-1l0.7-2.1c4.7,3.5,6.9,9.7,4.9,15.6L303.1,85.7z M347,97.1c-0.1,0.5-0.6,0.7-1,0.4l-4.7-3.1l6.7-2.9L347,97.1
		z M349.4,84.5l-1,5.5l-8,3.4l-4.7-3c-0.5-0.4-1.2-1.1-1.5-1.7l-1.4-3.3c-0.2-1.8,0.2-3.1,1.5-3.7c0.9-0.4,2.1,0.2,3.3,1.4
		c-0.1-1.7,0.4-3,1.3-3.4c0.9-0.4,2.1,0.2,3.3,1.4c-0.1-1.7,0.4-3,1.3-3.4c1.5-0.6,3.8,1.2,5.5,4.3l0.1,0.3
		C349.4,82.8,349.5,83.9,349.4,84.5z M414.2,36.1l-3.7,1.8l-1.7-3.5l3.7-1.8L414.2,36.1z M410,27.8l1.8,3.6l-3.7,1.8l-1.8-3.6
		L410,27.8z M377.2,37.9l25.5-12.6l1.8,3.6L379,41.5L377.2,37.9z M434.7,83.2c-2,7.1-9.1-1.7-10.9-5.4c-1.4-2.8-1.6-5.8-0.8-8.8
		c-0.9-0.9-1.8-1.7-2.8-2.5c-2,2.5-5.2,2.9-7.9,1.5c-0.4,1.2-0.8,2.4-1.5,3.1c-0.3-1.2-0.3-5.2-1.6-5.7c-1.3-0.5-2.6,1.7-3.7,2.3
		c0.8-1.6,2.9-5.4,0.7-6.8c-2.5-1.6-4,2.9-4.5,4.5c0.5-5.3-2.3-2.1-5.2-0.8c2.6-4.1-7.4-0.2-8.9,0.4c1.1-0.9,8.2-7,2.9-6.4
		c5.4-1.9,2.6-4-1.7-4.8c2.5-0.3,8.2-0.2,10-2.2c2.4-2.6-3.2-3-5-2.8c2.1-0.9,2.4-2.1,1.8-3.5l-3.7,1.8l-11.3-2.5l-0.9-1.9
		l25.5-12.6l1.8,3.6L396.3,39c0.4,0.3,0.7,0.7,1.1,1l2.5-1.2c-0.1-0.5-0.1-1-0.2-1.4c0.3,0.3,0.7,0.6,1.1,1l6.7-3.3l1.7,3.5
		l-5.2,2.6c2.2,1.9,4.3,4,4.9,6.2c0.2-0.1,0.4-0.2,0.5-0.3c0,0,0.1,0,0.1,0c0.4-0.6,0.7-1.1,1-1.6c2.5-4.2,2.8-8.3,3.4-8.3
		c0.5-0.1,1,4.5-1.8,9.2c-0.1,0.1-0.1,0.2-0.2,0.3c2.2,0.2,3.7,1.8,2.7,4c-0.2,0.4-0.4,0.7-0.7,1c0.6,0.6,1.2,1.2,1.8,1.7
		c3.5-1.1,7.1,0.3,9.8,3.5c4.1,4.9,2,12.8,1.6,14.1c0,0,0.5,0.6,0.7,0.8C430.2,74.1,435.8,79.6,434.7,83.2z M456.3,61.8
		c-5,3.8-15.8,4.4-13.5,13.2c-2.6-2.4-4.4-6-5.2-9.8c-1.5-0.6-2.7-1.3-2.7-1.5c0-0.3,1.2,0.1,2.4,0c-0.2-1.9-0.2-3.8,0.1-5.6l-4.4-1
		c-0.7-0.2-1.2-0.8-1.5-1.8c-0.3-1.1-0.3-2.2,0-3.6c0.3-1.3,0.8-2.4,1.6-3.2c0.7-0.8,1.5-1.1,2.2-1c0.7,0.2,1.3,0.8,1.5,1.8
		c0.3,1.1,0.3,2.2,0,3.6c-0.4,1.7-1.1,2.9-2.1,3.7l2.9,0.7c0.1-0.5,0.3-1,0.4-1.5c2.1-5.7,10-11.9,16.3-8.1
		C459.7,51,461.9,57.5,456.3,61.8z M457,46.7l-7.3-2.3c0.3-4.6,1.6-11,3.7-18.3l12.2,4.4C462.6,37.3,459.6,43,457,46.7z M609.5,33.6
		c0.2-0.6,1-1,1.7-0.7l6,2c0.7,0.2,1.1,0.9,0.9,1.6c-0.2,0.6-1,0.9-1.7,0.7l-6-2C609.7,34.9,609.2,34.2,609.5,33.6z M606.8,35.8
		c0.2-0.6,1-1,1.7-0.7l9.6,3.2c0.7,0.2,1.1,0.9,0.9,1.6c-0.2,0.6-1,0.9-1.7,0.7l-9.6-3.2C607,37.1,606.6,36.4,606.8,35.8z
		 M605.8,38.7c0.2-0.6,1-1,1.7-0.7l9.6,3.2c0.7,0.2,1.1,0.9,0.9,1.6c-0.2,0.6-1,0.9-1.7,0.7l-9.6-3.2C606,40,605.6,39.3,605.8,38.7z
		 M587.9,61.1c0.4-1.2,0.9-2.2,1.4-3.2c1-1.6,2.1-3,3.4-4.2c1.3-1.2,3.7-2.6,7.2-4.2c3.5-1.7,5.5-4.5,6.1-8.4l10.3,3.4
		c-1.9,3.5-2,6.9-0.1,10.4c1.8,3.5,2.9,6,3.3,7.7c0.3,1.7,0.4,3.5,0.2,5.4c-0.1,1.1-0.4,2.3-0.8,3.5c-1.4,4.2-4.1,7.3-8.1,9.3
		c-4,2-8.1,2.3-12.3,0.9c0,0-0.1,0-0.1,0c0,0-0.1,0-0.1-0.1c0,0-0.1,0-0.1,0c-4.2-1.4-7.4-4.1-9.4-8.1
		C586.8,69.4,586.5,65.3,587.9,61.1z M595.7,109.9c-3.5,0.1-6.3-1.6-9.1-3.5c-0.1,0-0.1-0.1-0.2-0.2c-0.6-0.4-1.3-0.9-1.9-1.4
		c3.6,0.1,5.4-5,8.6-6.1c2.9-1,5.5,0.4,8.3,0.8c0.5,0.1,1.4,0.1,2.3,0.1c-3.3,2.6-8.7,5.6-14,6.5c5.4,0.2,10.3-2.6,14.5-5.9
		c3.2-2.5,4.5-5.7,5.1-5.5c0.6,0,0.1,4.2-3.6,7.2C603.9,105.9,600.4,109.7,595.7,109.9z M622.8,140.2c-1.1-0.6-2.3-1.3-3.4-1.9
		c-0.1-0.1-0.3-0.1-0.4-0.2c-4.9-2.8-9.5-5.9-11.9-11.3c-3.2-7.2,0.2-15.3,4.9-21.1c1.9-7.9,7.9-11.6,8.4-10.7
		c0.7,0.9-3.3,5-4.8,11.7c-2,8.6-2.7,18.2,1.5,26.3c-2.5-8.8-1.7-19.2-0.2-26c0.6,1.5,1.4,2.8,1.8,3.5c2.7,4.1,6.7,6.9,7.2,12.1
		C626.6,128.4,620.1,134.7,622.8,140.2z M650.9,100.7l-2.8,4c-0.3,0.4-0.4,1.1-0.2,1.5l1.7,4.5c0.2,0.4-0.1,0.7-0.5,0.6l-4.6-1.4
		c-0.5-0.1-1.1,0-1.5,0.3l-3.8,3c-0.4,0.3-0.7,0.2-0.7-0.3l-0.1-4.8c0-0.5-0.3-1.1-0.7-1.3l-4-2.7c-0.4-0.3-0.4-0.6,0.1-0.7l4.6-1.6
		c0.4-0.2,0.9-0.6,1-1.1l1.3-4.7c0.1-0.5,0.5-0.5,0.7-0.1l2.9,3.9c0.3,0.4,0.9,0.7,1.4,0.6l4.8-0.2C651,100,651.2,100.3,650.9,100.7
		z M676.1,82.7l-0.2,0l-8.2-2.8l-0.2,0.7c-1.8,5.2-7.4,8-12.6,6.2l-12.1-4.1c-5.2-1.8-8-7.4-6.2-12.6l0.2-0.7l-8.2-2.8l-0.2-0.1
		l3.2-9.4c2-5.8,7.6-9.5,13.4-9.3l-0.7,2.1c-0.3,0.8,0.2,1.8,1,2.1l4.2,1.4c0.9,0.3,1.8-0.2,2.1-1l0.9-2.7l14.8,5.1l-0.9,2.7
		c-0.3,0.8,0.2,1.8,1,2.1l4.2,1.4c0.9,0.3,1.8-0.2,2.1-1l0.7-2.1c4.7,3.5,6.9,9.7,4.9,15.6L676.1,82.7z M720,94.1
		c-0.1,0.5-0.6,0.7-1,0.4l-4.7-3.1l6.7-2.9L720,94.1z M722.4,81.5l-1,5.5l-8,3.4l-4.7-3c-0.5-0.4-1.2-1.1-1.5-1.7l-1.4-3.3
		c-0.2-1.8,0.2-3.1,1.5-3.7c0.9-0.4,2.1,0.2,3.3,1.4c-0.1-1.7,0.4-3,1.3-3.4c0.9-0.4,2.1,0.2,3.3,1.4c-0.1-1.7,0.4-3,1.3-3.4
		c1.5-0.6,3.8,1.2,5.5,4.3l0.1,0.3C722.4,79.8,722.5,80.9,722.4,81.5z M838,7.6c0.2-0.4,0.8-0.4,1.2-0.2l1.9,1.3
		c2.5-1.1,4.9-1.5,7.1-1.3l1.4-1.6l3.2,2.9c1.6,0.8,3,2,4.2,3.6c-0.1,0-0.1,0-0.2,0.1l4,3.6l-2.3,2.5c-2.6,3.1-7.3,3.4-10.5,0.7
		c-1.9-1.6-2.7-3.9-2.6-6.2c-1-0.5-1.9-1.1-2.7-1.8c-0.3,0.1-0.6,0.1-0.9-0.1l-3.5-2.3C837.9,8.4,837.8,7.9,838,7.6z M835.6,9
		c0.2-0.4,0.8-0.4,1.2-0.2l5.5,3.6c0.4,0.3,0.6,0.8,0.3,1.2c-0.2,0.4-0.8,0.4-1.2,0.2l-5.5-3.7C835.5,9.9,835.4,9.3,835.6,9z
		 M787.2,33.1l-3.7,1.8l-1.7-3.5l3.7-1.8L787.2,33.1z M783,24.8l1.8,3.6l-3.7,1.8l-1.8-3.6L783,24.8z M753.5,41.6l-0.9-1.9
		l25.5-12.6l1.8,3.6l-17.4,8.6l0.6,1.3l17.4-8.6l1.7,3.5l-17.4,8.6L753.5,41.6z M807.7,80.2c-2,7.1-9.1-1.7-10.9-5.4
		c-1.4-2.8-1.6-5.8-0.8-8.8c-0.9-0.9-1.8-1.7-2.8-2.5c-2.6,3.2-7.3,3.1-9.9-0.4c-2-2.5-1.4-6.4,0.3-8.8c-0.4-0.4-2.3-2.4-2.7-3.2
		c-2.1-3.6-0.7-6.2,1.6-7c3.2-1.4,6.6,0.5,5.2,3.5c-1.5,3.4-6.6,1.1-5.2-2.4c-1.5,2.8-0.4,5.9,2.1,8c4.5-4.9,10.3-4,14.1,0.6
		c4.1,4.9,2,12.8,1.6,14.1c0,0,0.5,0.6,0.7,0.8C803.2,71.1,808.8,76.6,807.7,80.2z M821.7,58.1c-1.6,0.6-3.4,1.6-5.1,3.5
		c-2.6,3-8.7-0.5-8.7-0.9c0-0.4,3.3,0.8,4.7-0.9c1-1.1,1.3-2.8,2.7-3.5l-9.3-2.2c-0.7-0.2-1.2-0.8-1.5-1.8c-0.3-1.1-0.3-2.2,0-3.6
		c0.3-1.3,0.8-2.4,1.6-3.2c0.7-0.8,1.5-1.1,2.2-1c0.7,0.2,1.3,0.8,1.5,1.8c0.3,1.1,0.3,2.2,0,3.6c-0.4,1.7-1.1,2.9-2.1,3.7l13.6,3.2
		l0,0c0.4,0.1,0.8,0.2,1.1,0.2c0.6,0.1,0.8,0.3,0.8,0.5C823.1,57.7,822.2,57.9,821.7,58.1z M850.8,37.9c-6.6-3.1-10.9-7.3-12.6-12.5
		c0.3,1.5,0.4,2.7,0.3,3.5c-0.1,1.1-0.3,2.3-0.8,3.5c-0.3,0.7-0.7,1.4-1.1,2.1c-1.6,2.4-3.9,3.9-6.7,4.5c-2.8,0.6-5.5,0.1-8-1.6
		c0,0-0.1,0-0.1,0c0,0-0.1,0-0.1-0.1c0,0,0,0-0.1,0c-2.4-1.6-4-3.9-4.5-6.7c-0.6-2.9-0.1-5.5,1.6-8c0.4-0.7,0.9-1.3,1.5-1.8
		c0.9-0.9,1.9-1.6,2.9-2.1c1-0.5,2.8-1,5.3-1.4c2.5-0.5,4.3-1.9,5.3-4.3l4.2,2.8c0.1-0.4,0.2-0.7,0.3-1.1l-3.7-2.4
		c-0.4-0.3-0.6-0.8-0.3-1.2c0.2-0.4,0.8-0.4,1.2-0.2l5.5,3.6c0.1,0.1,0.2,0.2,0.3,0.4C850.3,20.4,853.7,28.9,850.8,37.9z
		 M870.5,55.8c-0.3,9.2-6.9,13.7-18.2,13.8C852.6,61.3,859.3,55.9,870.5,55.8z M867.1,88.3c-2.4-10.8,2.6-21.8,13.8-28.7
		C883.6,71.7,878.5,81.5,867.1,88.3z M911.9,79.7l-4.8,1.4c-0.5,0.1-1,0.6-1.1,1.1l-1.5,4.8c-0.2,0.5-0.5,0.5-0.8,0.1l-2.8-4.1
		c-0.3-0.4-0.9-0.7-1.4-0.7l-5,0c-0.5,0-0.6-0.3-0.3-0.7l3-4c0.3-0.4,0.4-1.1,0.3-1.5l-1.5-4.8c-0.2-0.5,0.1-0.7,0.6-0.5l4.7,1.7
		c0.5,0.2,1.2,0.1,1.6-0.2l4.1-2.9c0.4-0.3,0.7-0.1,0.7,0.4l-0.1,5c0,0.5,0.3,1.1,0.7,1.4l4.1,2.9C912.4,79.2,912.3,79.6,911.9,79.7
		z M973,78.5l-2.6,9.1l-0.2,0l-7.9-2.3l-0.2,0.6c-1.4,5-6.7,7.9-11.7,6.5l-11.6-3.3c-5-1.4-7.9-6.6-6.5-11.7l0.2-0.6l-7.9-2.2
		l-0.2-0.1l2.6-9.1c1.6-5.6,6.7-9.4,12.3-9.5l-0.6,2c-0.2,0.8,0.2,1.7,1.1,1.9l4,1.1c0.8,0.2,1.7-0.2,1.9-1.1l0.7-2.6l14.3,4.1
		L960,64c-0.2,0.8,0.2,1.7,1.1,1.9l4,1.1c0.8,0.2,1.7-0.2,1.9-1.1l0.6-2C972.2,67.1,974.6,72.9,973,78.5z M1119.3,20.5
		c2.8,3.9,4.8,8.5,5.7,13.4c-0.3,0-0.6-0.1-1-0.1c-4.3-0.3-8.6-0.3-12.9,0c-0.5-2.7-1.2-5.4-2.2-8
		C1112.7,24.5,1116.2,22.7,1119.3,20.5z M1093.5,71.9c-0.9,0.8-1.8,1.5-2.8,2.2c-0.5,0-0.9,0-1.4-0.1c-4.7-0.3-9.2-1.6-13.1-3.6
		c1.8-2.5,3.8-4.7,6.1-6.7c6.3-5.5,14.3-8.9,23-9.5C1103,61.1,1098.9,67.3,1093.5,71.9z M1098.6,73.4c5.3-5.3,9.4-11.8,11.6-19.3
		c0.2,0,0.5,0,0.7,0c3.7,0.3,7.3,1.1,10.6,2.3C1116.8,65.1,1108.4,71.4,1098.6,73.4z M1125.5,42.6c-0.2,3.4-1,6.6-2.1,9.6
		c-3.8-1.4-7.9-2.4-12.2-2.7c0.3-1.6,0.5-3.2,0.6-4.9c0.2-2.1,0.1-4.3-0.1-6.3c3.9-0.2,7.9-0.2,12,0.1c0.6,0,1.2,0.1,1.8,0.2
		C1125.6,39.9,1125.6,41.2,1125.5,42.6z M1148.6,77.1c-0.3,0.6-0.9,0.7-1.3,0.2l-4.8-5l8.9-1.6L1148.6,77.1z M1154.3,62.8l-2.7,6.3
		L1141,71l-4.8-5c-0.6-0.6-1.1-1.7-1.3-2.5l-0.1-0.4c-0.3-4.3,0.8-7.7,2.7-8.1c1.2-0.2,2.5,0.8,3.6,2.6c0.4-2,1.3-3.4,2.5-3.7
		c1.2-0.2,2.5,0.8,3.6,2.6c0.4-2,1.3-3.4,2.5-3.7c1.7-0.3,3,0.8,4,2.8l0.8,4.4C1154.7,60.8,1154.6,62.1,1154.3,62.8z M1181.6,101.6
		c-5-1.9-6.4-12.8-7.2-17.2c-0.1-0.4-0.2-1.5-0.3-1.5c-1.8-0.7-12.5-5-14.4-13.8c-1.8-8.2,1.9-15.4,11.2-16.3
		c-0.2-4.5-2.8-8.4-7.2-9c5.1,1.5,3.3,9-1.7,7.9c-4.5-1-3.8-6.4,0.4-8.8c2.9-1.8,7-1.2,9.2,4.1c0.5,1.1,1.2,5,1.3,5.7
		c4.1,0.2,8.9,2.8,10.1,7.2c1.6,5.9-2.3,11.2-8,11.4c0.1,1.8,0.3,3.5,0.5,5.3c4,1.7,7.3,4.4,9.2,8.3
		C1187.4,89.9,1191.2,105.3,1181.6,101.6z"/>
	<path fill="none" d="M1.5,5.5c-0.9,2.8-0.1,5.7,1.7,8.3c0.6,0.8,0.8,0.7,0.4-0.3c-0.9-2.4-1-5-0.2-7.5C4.2,3.6,5.7,1.5,7.8,0
		c0,0,0,0,0,0H6.6C4.1,1.2,2.3,3.1,1.5,5.5z"/>
	<path fill="none" d="M1146.1,4.9l3.1-3.7c0.3-0.4,0.4-0.8,0.2-1.2h-2.5l-1.3,1.5L1146.1,4.9z"/>
	<path fill="none" d="M425.2,18.5l-0.1,1.7l2.6,1c0-0.6,0.1-1.1,0.1-1.7L425.2,18.5z"/>
	<path fill="none" d="M225.6,81.5c-3-1.9-5.3-4.7-6.6-8.1c-1.2-3.4-1.2-7-0.2-10.4c0.4-1.4,0.2-1.6-0.6-0.4c-2.4,3.8-3.2,8-1.8,11.8
		c1.4,3.8,4.7,6.5,9,7.9C226.8,82.6,226.8,82.3,225.6,81.5z"/>
	<path fill="none" d="M990.3,33.2l-7.7,0.6c-0.4,0.6-0.8,1.2-1.3,1.7l10.5-0.8C991.2,34.2,990.7,33.7,990.3,33.2z"/>
	<path fill="none" d="M69.3,11.5l3.5,1.4c0.6,0.2,1.3,0,1.5-0.6l1.4-3.5c0.2-0.6,0-1.3-0.6-1.5l-3.5-1.4c-0.6-0.2-1.3,0-1.5,0.6
		l-1.4,3.5C68.4,10.5,68.7,11.2,69.3,11.5z"/>
	<path fill="none" d="M439.9,6.2l1.4-3.5c0.2-0.6,0-1.3-0.6-1.5l-1.6-0.7c-0.1,2-0.2,4.2-0.3,6.4C439.2,7,439.7,6.7,439.9,6.2z"/>
	<path fill="none" d="M450.9,0.6l0.3-0.6h-4.9l3.2,1.3C449.9,1.5,450.6,1.2,450.9,0.6z"/>
	<path fill="none" d="M482.5,12.3c-1.1-0.3-2.3-0.6-3.4-0.9c0.6,0.2,1.1,0.5,1.6,0.9L482.5,12.3z"/>
	<path fill="none" d="M362.8,17.4c-1.5-0.7-3.2,0.1-4,1.7c-0.7,1.6-0.1,3.4,1.3,4.1c1.5,0.7,3.2-0.1,4-1.7
		C364.9,19.9,364.3,18.1,362.8,17.4z"/>
	<path fill="none" d="M342.6,23.4c-1.5-0.7-3.2,0.1-4,1.7c-0.7,1.6-0.1,3.4,1.3,4.1c1.5,0.7,3.2-0.1,4-1.7
		C344.7,25.9,344.1,24.1,342.6,23.4z"/>
	<path fill="none" d="M785.8,54.6c0,0,6,5.8,6.2,6c0.3-0.4,0.5-0.8,0.6-1.2c0.8-2.2-0.7-5.3-3.3-4.8c5.1-3,7.6,4.5,5.1,7.7
		c0,0,1.7,1.7,2.2,2.2C799.4,56.6,794.3,48.1,785.8,54.6z"/>
	<path fill="none" d="M357.1,51.4c-2.4-1.1-5.4,0.1-6.6,2.8c-1.2,2.7-0.2,5.7,2.2,6.9c2.4,1.1,5.4-0.2,6.6-2.8
		C360.6,55.6,359.6,52.5,357.1,51.4z"/>
	<path fill="none" d="M892.6,39.3c-1.2-0.8-2.5-1.7-3.7-2.6c-1.6-1.2-3.1-2.5-4.4-3.8c0.1,2.4,0.5,4.6,0.9,6.6
		C887.7,39.7,890.1,39.6,892.6,39.3z"/>
	<path fill="none" d="M370.3,37.3c-1.5-0.7-3.2,0.1-4,1.7c-0.7,1.6-0.1,3.4,1.3,4.1c1.5,0.7,3.2-0.1,4-1.7
		C372.3,39.8,371.7,38,370.3,37.3z"/>
	<path fill="none" d="M491.6,33.1c0.1-0.6,0.4-1.2,0.9-1.6c0.3-0.3,0.3-0.8,0-1.2c-0.1-0.1-0.3-0.2-0.4-0.2c-0.3-0.1-0.5,0-0.7,0.2
		c-0.7,0.7-1.1,1.5-1.3,2.4c-0.4,1.7,0.2,3.6,1.9,4.8c0.4,0.3,0.9,0.2,1.1-0.2c0.3-0.4,0.2-0.9-0.2-1.1
		C491.7,35.5,491.4,34.3,491.6,33.1z"/>
	<path fill="none" d="M370.7,16.7l5.8-2.9c-0.3-0.3-0.6-0.7-0.9-1.1l-5.9,2.9C370,16,370.4,16.4,370.7,16.7z"/>
	<path fill="none" d="M1168.4,59.3c-2.8,2.4-0.6,6.7,2.5,7.7c0.6,0.2,1.2,0.4,1.9,0.3c0-0.3-1.4-11.9-1.4-12
		c-14.4,4.1-9.2,16.9,1.8,20.4c-0.1-0.9-0.6-4.3-0.6-4.3C1167.1,71.6,1160.8,62.5,1168.4,59.3z"/>
	<path fill="none" d="M442.3,8.5l3.5,1.4c0.6,0.2,1.3,0,1.5-0.6l1.4-3.5c0.2-0.6,0-1.3-0.6-1.5l-3.5-1.4c-0.6-0.2-1.3,0-1.5,0.6
		l-1.4,3.5C441.4,7.5,441.7,8.2,442.3,8.5z"/>
	<path fill="none" d="M352.6,21.1c0.7-1.6,0.1-3.4-1.3-4.1c-1.5-0.7-3.2,0.1-4,1.7c-0.7,1.6-0.1,3.4,1.3,4.1
		C350.1,23.5,351.9,22.7,352.6,21.1z"/>
	<path fill="none" d="M494.4,26.6c-0.6-0.1-1.1,0.2-1.3,0.8c-0.1,0.6,0.2,1.1,0.8,1.3c0.6,0.1,1.1-0.2,1.3-0.8
		C495.3,27.3,494.9,26.7,494.4,26.6z"/>
	<path fill="none" d="M369.8,30.3c0.7-1.6,0.1-3.4-1.3-4.1c-1.5-0.7-3.2,0.1-4,1.7c-0.7,1.6-0.1,3.4,1.3,4.1
		C367.3,32.7,369,31.9,369.8,30.3z"/>
	<path fill="none" d="M427.3,2.4l1.2,0.5c0.1-1,0.1-2,0.1-2.9H427l-0.3,0.8C426.4,1.4,426.7,2.1,427.3,2.4z"/>
	<path fill="#FFFFFF" d="M201.8,30.8c1,1.2,1.9,2.6,2.6,3.9l-6.7-0.8c-0.6-1.8-1.4-3.6-2.4-5.2c-1-0.2-2-0.4-3-0.6
		c1.1,1.7,2,3.6,2.8,5.5l-12.3-1.4l0.8-6.6c-0.7-0.3-1.5-0.6-2.2-0.9l-0.8,7.2l-12.9-1.5c1.5-2.2,3.3-4.2,5.3-6
		c0.9-0.8,1.9-1.6,2.9-2.3c-0.8-0.4-1.5-0.8-2.2-1.2c-0.7,0.5-1.5,1.1-2.2,1.7c-2.4,2.1-4.6,4.6-6.3,7.4l-6.7-0.8
		c1.1-1.2,2.2-2.3,3.5-3.2c3.3-2.6,7.1-4.4,11.3-5.4c-1.5-0.9-3-1.7-4.4-2.7c-11.2,4-19.8,14-21.2,26.6c-2,17.6,10.6,33.6,28.3,35.6
		c17.7,2,33.6-10.6,35.6-28.2c0.9-8.2-1.3-16.1-5.7-22.3c-1.7,0-3.4-0.1-5.1-0.3C201.1,29.9,201.5,30.4,201.8,30.8z M182.7,34.5
		l13.4,1.5c1.2,4,1.7,8.4,1.4,12.9l-16.2-1.9L182.7,34.5z M181,49.4l16.2,1.9c-0.6,4.5-2.1,8.6-4.2,12.3L179.5,62L181,49.4z
		 M166.4,32.7l14,1.6L179,46.9l-16.8-1.9C162.8,40.5,164.3,36.3,166.4,32.7z M156.8,31.6l7.2,0.8c-2,3.7-3.4,7.8-4.1,12.3l-8.2-0.9
		C152.4,39.2,154.2,35.1,156.8,31.6z M151.3,46l8.2,1c-0.4,4.5,0,8.8,1.1,12.9l-7.4-0.8C151.7,55,151,50.6,151.3,46z M157.4,66
		c-1.2-1.4-2.1-3-3-4.6l7,0.8c1.1,3.2,2.7,6.3,4.6,9c0.9,1.2,1.9,2.4,2.9,3.5C164.3,72.8,160.4,69.8,157.4,66z M175.6,76.5
		c-0.5-0.1-1-0.2-1.5-0.3c-2.4-1.8-4.4-3.9-6.2-6.4c-1.6-2.2-2.9-4.7-3.9-7.4L177,64L175.6,76.5z M163.1,60.1
		c-1.2-4-1.7-8.4-1.3-12.9l16.8,1.9l-1.4,12.6L163.1,60.1z M178.7,76.8c-0.3,0-0.6,0-0.9,0l1.4-12.4l12.4,1.4
		c-1.6,2.3-3.4,4.5-5.5,6.3C183.9,73.9,181.4,75.6,178.7,76.8z M197.2,70.6c-3.8,3-8.3,5-13.2,5.8c1.3-0.8,2.5-1.7,3.6-2.7
		c2.5-2.2,4.7-4.8,6.5-7.7l7,0.8C200,68.2,198.7,69.5,197.2,70.6z M202.9,64.7l-7.4-0.9c2-3.7,3.4-7.9,4-12.3l8.2,0.9
		C207,57,205.3,61.2,202.9,64.7z M207.9,50.2l-8.2-0.9c0.4-4.5-0.1-8.8-1.2-12.9l7.2,0.8C207.4,41.2,208.2,45.6,207.9,50.2z"/>
	<path fill="#FFFFFF" d="M141.5,36.9c-0.1,1.3-0.4,2.4-0.9,3.4c-1.6,7.5-1,15.6,2.1,23.2c0.3,0.8,0.6,1.5,1,2.2
		c5.8,11.9,16.7,19.6,28.8,21.8l0.2-1.8c1.5,0,3.1-0.2,4.5-0.2l0.2-1.6c-12.4-0.8-24.1-8-29.9-20c-0.3-0.7-0.6-1.3-0.9-2
		c-7.1-17.3,0.4-37.3,17.4-45.6c0.5-0.2,1-0.5,1.5-0.7c-1.2-0.9-2.4-1.9-3.5-3C151.7,17.8,144.6,26.7,141.5,36.9z"/>
	<path fill="#FFFFFF" d="M172.6,87.5l-0.5,4.8l4.5,0.4l0.8-7.2c0,0,0,0-0.1,0c-1.5,0-3,0.2-4.5,0.2L172.6,87.5z"/>
	<path fill="#FFFFFF" d="M291.7,42.4c-12.4,0-23.9-3.1-33.8-8.5l-8.1,23.8c-1.3,3.7-0.1,7.6,2.7,10l3-8.8c2.6-7.6,10-12.2,17.7-11.5
		l1.3-3.7c0.3-0.8,1.2-1.3,2.1-1l4.2,1.4c0.9,0.3,1.3,1.2,1,2.1l-1.1,3.2l14.8,5.1l1.1-3.2c0.3-0.9,1.2-1.3,2.1-1l4.2,1.4
		c0.8,0.3,1.3,1.2,1,2.1l-1.3,3.7c6.5,4.1,9.6,12.3,7,19.9l-3,8.8c3.6-0.2,7-2.6,8.2-6.3l6.9-20.3L313,39.1
		C306.3,41.2,299.1,42.4,291.7,42.4z"/>
	<path fill="#FFFFFF" d="M316.7,37.9l6.9,16l0.5-1.6l-6.3-14.8C317.4,37.6,317.1,37.7,316.7,37.9z"/>
	<path fill="#FFFFFF" d="M301.4,60.6l-0.7,2.1c-0.3,0.8-1.2,1.3-2.1,1l-4.2-1.4c-0.8-0.3-1.3-1.2-1-2.1l0.9-2.7l-14.8-5.1l-0.9,2.7
		c-0.3,0.8-1.2,1.3-2.1,1l-4.2-1.4c-0.9-0.3-1.3-1.2-1-2.1l0.7-2.1c-5.9-0.2-11.4,3.5-13.4,9.3l-3.2,9.4l0.2,0.1l8.2,2.8l-0.2,0.7
		c-1.8,5.2,1,10.9,6.2,12.6l12.1,4.1c5.2,1.8,10.9-1,12.6-6.2l0.2-0.7l8.2,2.8l0.2,0l3.2-9.4C308.3,70.4,306.1,64.1,301.4,60.6z
		 M291,82.3c-1.1,3.3-4.7,5-7.9,3.9L271,82.1c-3.3-1.1-5-4.7-3.9-7.9l0.2-0.7l23.9,8.1L291,82.3z"/>
	<path fill="#FFFFFF" d="M430.9,3.8c0.6,0.2,1.3,0,1.5-0.6l1.3-3.2h-5c0,0.9-0.1,1.8-0.1,2.9L430.9,3.8z"/>
	<path fill="#FFFFFF" d="M427,36.6c0.2-0.2,1.8-6,5.3-6.4c3.5-0.5,5.1,2.2,5.1,2.7c0,0.1,0.1-1.2,0.2-3.3l-10.2-4.2
		C427.2,31.8,427,36.7,427,36.6z"/>
	<path fill="#FFFFFF" d="M438.5,12.9c0-0.6,0.1-1.1,0.1-1.7L428.3,7c0,0.6-0.1,1.1-0.1,1.7L438.5,12.9z"/>
	<path fill="#FFFFFF" d="M438,23.7l-10.2-4.2c0,0.6-0.1,1.1-0.1,1.7l9.7,4c0.2,0.1,0.4,0.1,0.5,0.2C437.9,24.8,438,24.3,438,23.7
		C438,23.7,438,23.7,438,23.7z"/>
	<path fill="#FFFFFF" d="M434.2,3.9c-0.2,0.6,0,1.3,0.6,1.5l3.5,1.4c0.1,0.1,0.3,0.1,0.4,0.1c0.1-2.2,0.2-4.4,0.3-6.4L437.8,0h-2
		c-0.1,0.1-0.2,0.2-0.2,0.4L434.2,3.9z"/>
	<path fill="#FFFFFF" d="M414.6,15.9l10.5,4.3l0.1-1.7l-10-4.1c-1.7-0.7-2.5-2.6-1.8-4.3l1.4-3.4c0.7-1.7,2.6-2.5,4.3-1.8l6.7,2.7
		l0.1-1.7l-6.2-2.5c-2.5-1-5.3,0.2-6.3,2.7l-1.4,3.4C410.9,12,412.1,14.8,414.6,15.9z"/>
	<path fill="#FFFFFF" d="M424.9,0.1l0-0.1h-3.4l1.9,0.8C424,1,424.7,0.7,424.9,0.1z"/>
	<path fill="#FFFFFF" d="M397.1,3.7l0.8-0.4l1.8,3.6l-3.7,1.8c-0.2,0.7-0.4,1.2-0.6,1.6c0,0.1-0.1,0.2-0.2,0.3l0.1,0l1.8,3.6l-1,0.5
		l1.3,0.9l0.4-0.2l0.3,0.7l2.5,1.8l-1.5-3.1l3.7-1.8l1.8,3.6l-3.4,1.7l1.3,0.9l2.7-1.4l1.8,3.6l-0.9,0.4l1.3,0.9l0.2-0.1l0.2,0.4
		l16.5,12.1l0.6-11l-14.1-5.8c-2.7-1.1-3.9-4.1-2.8-6.8L412.8,0h-13.3C398.3,1,397.5,2.2,397.1,3.7z M402.1,11.8l-3.7,1.8l-1.8-3.6
		l3.7-1.8L402.1,11.8z"/>
	<path fill="#FFFFFF" d="M346,97.5c0.5,0.3,0.9,0.1,1-0.4l1-5.5l-6.7,2.9L346,97.5z"/>
	<path fill="#FFFFFF" d="M317.8,37.4l6.3,14.8l12,28.2c0.1,0.1,0.2,0.1,0.3,0.2c0.2-1.4,0.7-2.3,1.6-2.7c0.8-0.4,1.8-0.1,2.9,0.6
		l-18.4-43.3C321,36.1,319.4,36.8,317.8,37.4z"/>
	<path fill="#FFFFFF" d="M341.4,77.3c0.3-0.6,0.7-1.1,1.2-1.3c1.3-0.6,2.9,0.2,4.5,2.1l-19.4-45.6c-1.4,0.8-2.8,1.6-4.3,2.4
		L341.4,77.3z"/>
	<path fill="#FFFFFF" d="M313,39.1l8.7,20.4l10,23.4c0.1-1.8,1-2.6,1.8-2.9c0.5-0.2,0.8-0.4,1.4-0.2l-11.3-26l-6.9-16
		C315.5,38.3,314.2,38.8,313,39.1z"/>
	<path fill="#FFFFFF" d="M349,81.9c-1.7-3.1-4-4.9-5.5-4.3c-0.9,0.4-1.3,1.7-1.3,3.4c-1.2-1.2-2.4-1.8-3.3-1.4
		c-0.9,0.4-1.3,1.7-1.3,3.4c-1.2-1.2-2.4-1.8-3.3-1.4c-1.3,0.5-1.7,1.9-1.5,3.7l1.4,3.3c0.3,0.6,0.9,1.4,1.5,1.7l4.7,3l8-3.4l1-5.5
		c0.1-0.6,0-1.7-0.3-2.3L349,81.9z"/>
	<path fill="#FFFFFF" d="M372.4,28.1l3.1-1.5c-0.1-0.5-0.2-0.9-0.3-1.4l-3.4,1.7l-1.8-3.6l3.8-1.9c-0.2-0.4-0.4-0.8-0.6-1.3
		l-3.8,1.9l-1.8-3.6l3.2-1.6c-0.3-0.4-0.7-0.7-1-1.1l-2.8,1.4l-1.4-2.9c-0.3,0-0.7,0-1,0c-5.3,0-10.3-1.1-14.7-3.2
		c-0.3,0.1-0.6,0.2-0.8,0.3c-4.4,7.5-10.6,14-18.1,19.2c-0.6,2.9-0.3,5.9,1.2,8.7c3.5,6.7,10.3,0.6,11.9,8.2
		c1.5,7.1-2.1,11.9,4.5,15.8c13.6,8.1,26.5-10.4,27.6-27.7l-1.2-2.5l1.3-0.6c0-0.5,0-1-0.1-1.5l-1.9,0.9L372.4,28.1z M343.9,27.5
		c-0.7,1.6-2.5,2.4-4,1.7c-1.5-0.7-2-2.5-1.3-4.1c0.7-1.6,2.5-2.4,4-1.7C344.1,24.1,344.7,25.9,343.9,27.5z M348.7,22.8
		c-1.5-0.7-2-2.5-1.3-4.1c0.7-1.6,2.5-2.4,4-1.7c1.5,0.7,2,2.5,1.3,4.1C351.9,22.7,350.1,23.5,348.7,22.8z M359.3,58.2
		c-1.2,2.7-4.2,3.9-6.6,2.8c-2.4-1.1-3.4-4.2-2.2-6.9c1.2-2.7,4.2-3.9,6.6-2.8C359.6,52.5,360.6,55.6,359.3,58.2z M360.2,23.2
		c-1.5-0.7-2-2.5-1.3-4.1c0.7-1.6,2.5-2.3,4-1.7c1.5,0.7,2,2.5,1.3,4.1C363.4,23.1,361.6,23.9,360.2,23.2z M364.5,27.9
		c0.7-1.6,2.5-2.4,4-1.7c1.5,0.7,2,2.5,1.3,4.1c-0.7,1.6-2.5,2.4-4,1.7C364.4,31.3,363.8,29.5,364.5,27.9z M371.6,41.4
		c-0.7,1.6-2.5,2.3-4,1.7c-1.5-0.7-2-2.5-1.3-4.1c0.7-1.6,2.5-2.4,4-1.7C371.7,38,372.3,39.8,371.6,41.4z"/>
	<path fill="#FFFFFF" d="M233.7,43.3l9.6,3.2c0.7,0.2,1.5-0.1,1.7-0.7c0.2-0.6-0.2-1.3-0.9-1.6l-9.6-3.2c-0.7-0.2-1.5,0.1-1.7,0.7
		C232.6,42.3,233,43,233.7,43.3z"/>
	<path fill="#FFFFFF" d="M234.7,40.4l9.6,3.2c0.7,0.2,1.5-0.1,1.7-0.7c0.2-0.6-0.2-1.3-0.9-1.6l-9.6-3.2c-0.7-0.2-1.5,0.1-1.7,0.7
		C233.6,39.4,234,40.1,234.7,40.4z"/>
	<path fill="#FFFFFF" d="M237.4,38.2l6,2c0.7,0.2,1.5-0.1,1.7-0.7c0.2-0.6-0.2-1.3-0.9-1.6l-6-2c-0.7-0.2-1.5,0.1-1.7,0.7
		C236.2,37.2,236.7,37.9,237.4,38.2z"/>
	<path fill="#FFFFFF" d="M243.2,57.8c-1.8-3.4-1.8-6.9,0.1-10.4L233.1,44c-0.5,3.9-2.6,6.7-6.1,8.4c-3.5,1.7-5.9,3.1-7.2,4.2
		c-1.3,1.2-2.4,2.5-3.4,4.2c-0.6,1-1.1,2.1-1.4,3.2c-1.4,4.2-1.1,8.3,0.9,12.3c2,4,5.1,6.7,9.4,8.1c0,0,0.1,0,0.1,0
		c0,0,0.1,0,0.1,0.1c0,0,0.1,0,0.1,0c4.2,1.4,8.4,1.1,12.3-0.9c4-2,6.7-5.1,8.1-9.3c0.4-1.1,0.6-2.3,0.8-3.5
		c0.2-1.9,0.1-3.7-0.2-5.4C246.1,63.8,245,61.3,243.2,57.8z M225.4,82.2c-4.3-1.3-7.6-4.1-9-7.9c-1.4-3.8-0.6-8,1.8-11.8
		c0.8-1.2,1-1,0.6,0.4c-1,3.4-1.1,7,0.2,10.4c1.2,3.4,3.6,6.2,6.6,8.1C226.8,82.3,226.8,82.6,225.4,82.2z"/>
	<path fill="#FFFFFF" d="M30.6,1.1C30.9,0.9,31,0.4,30.8,0h-2.1l0.5,0.8C29.6,1.2,30.2,1.4,30.6,1.1z"/>
	<path fill="#FFFFFF" d="M0.2,6.4c-0.6,3.1,0.1,6,1.9,8.7c0,0,0,0.1,0,0.1c0,0,0,0.1,0.1,0.1c0,0,0,0,0.1,0.1
		c1.8,2.6,4.3,4.2,7.4,4.8c3.1,0.6,6-0.1,8.7-1.9c0.7-0.5,1.4-1,1.9-1.6c0.9-1,1.7-2.1,2.2-3.2c0.5-1.1,1-3.1,1.5-5.8
		c0.4-2.8,2-4.7,4.5-5.9L27.3,0H7.8c0,0,0,0,0,0C5.7,1.5,4.2,3.6,3.4,6.1c-0.8,2.5-0.6,5.1,0.2,7.5c0.4,1,0.2,1.1-0.4,0.3
		c-1.9-2.6-2.6-5.6-1.7-8.3C2.3,3.1,4.1,1.2,6.6,0H3.7C1.9,1.7,0.7,3.8,0.2,6.4z"/>
	<path fill="#FFFFFF" d="M106.6,15.2c-0.5,0-1-0.4-1-1c-1.8-0.6-3.6-1.2-5.3-1.9c-0.3,0.9-0.5,1.8-0.8,2.7l-1.3,43
		c0,1.1,0.9,2.1,2,2.1l8.3,0.2c1.1,0,2.1-0.9,2.1-2l0.2-6.6l-5.1-0.1c-0.6,0-1-0.5-1-1c0-0.6,0.5-1,1-1l5.1,0.1l0.1-2l-5.2-0.1
		c-0.6,0-1-0.5-1-1c0-0.6,0.5-1,1-1l5.2,0.1l0.1-2l-7.5-0.2c-0.6,0-1-0.5-1-1c0-0.6,0.5-1,1-1l7.5,0.2l0.1-2l-5.2-0.1
		c-0.6,0-1-0.5-1-1c0-0.6,0.5-1,1-1l5.2,0.1l0.1-2l-5.2-0.1c-0.6,0-1-0.5-1-1c0-0.6,0.5-1,1-1l5.2,0.1l0.1-1.8l-5.2-0.1
		c-0.6,0-1-0.5-1-1c0-0.6,0.5-1,1-1l5.2,0.2l0.1-2l-5.2-0.1c-0.6,0-1-0.5-1-1c0-0.6,0.5-1,1-1l5.2,0.1l0.1-2.1l-7.6-0.2
		c-0.6,0-1-0.5-1-1c0-0.6,0.5-1,1-1l7.6,0.2l0.1-2l-5.2-0.1c-0.6,0-1-0.5-1-1c0-0.6,0.5-1,1-1l5.2,0.2l0-1.6
		c-0.8-0.2-1.5-0.3-2.3-0.5L106.6,15.2z M104.5,53.7c1.1,0,2.1,1,2,2.1c0,1.1-1,2-2.1,2c-1.1,0-2.1-1-2-2.1
		C102.4,54.5,103.3,53.6,104.5,53.7z"/>
	<path fill="#FFFFFF" d="M126.8,40.6c-0.1,0.5-0.2,0.9-0.3,1.1c-0.1,0.4-1.5,3.4-2.2,4.5c-0.2,0.3-0.2,0.6,0.1,0.8
		c1,0.5,1.5,0.2,2.1-1.2c0.6-1.2,1.2-2.9,1.5-4.4c-0.1-0.5-0.2-1.1-0.2-1.7C127.4,39.9,127.1,40.3,126.8,40.6z"/>
	<path fill="#FFFFFF" d="M141.6,35.6c-0.2-5.9-5.2-11.9-10.6-7.6c-4.8-5.1-12.9-0.1-14.8,5.4c-1.7,5,0.9,10.6,6.7,9.2
		c1.4-0.3,2.8-1,4-2c0.3-0.3,0.7-0.6,0.9-1c0,0.6,0.1,1.2,0.2,1.7c1.5,6,9.9,5.1,12.7-1c0.5-1,0.8-2.2,0.9-3.4
		C141.6,36.5,141.6,36,141.6,35.6z M120.1,40.4c-0.3,0.4-0.8,0.5-1.1,0.2c-1.7-1.2-2.3-3.2-1.9-4.8c0.2-0.9,0.6-1.8,1.3-2.4
		c0.2-0.2,0.5-0.3,0.7-0.2c0.1,0,0.3,0.1,0.4,0.2c0.3,0.3,0.3,0.8,0,1.2c-0.4,0.4-0.7,1-0.9,1.6c-0.2,1.1,0.1,2.3,1.3,3.1
		C120.2,39.6,120.3,40.1,120.1,40.4z M122.2,30.8c-0.1,0.6-0.7,0.9-1.3,0.8c-0.6-0.1-0.9-0.7-0.8-1.3c0.1-0.6,0.7-0.9,1.3-0.8
		C121.9,29.7,122.3,30.3,122.2,30.8z"/>
	<path fill="#FFFFFF" d="M277.5,103.1l-4.8,0.2c-0.5,0-1.1-0.3-1.4-0.6l-2.9-3.9c-0.3-0.4-0.6-0.3-0.7,0.1l-1.3,4.7
		c-0.1,0.5-0.6,0.9-1,1.1l-4.6,1.6c-0.4,0.2-0.5,0.5-0.1,0.7l4,2.7c0.4,0.3,0.7,0.9,0.7,1.3l0.1,4.8c0,0.5,0.3,0.6,0.7,0.3l3.8-3
		c0.4-0.3,1-0.4,1.5-0.3l4.6,1.4c0.5,0.1,0.7-0.1,0.5-0.6l-1.7-4.5c-0.2-0.4-0.1-1.1,0.2-1.5l2.8-4C278.2,103.3,278,103,277.5,103.1
		z"/>
	<path fill="#FFFFFF" d="M37.8,21.6l28.1,11.5c2.7,1.1,5.7-0.2,6.8-2.8L83.8,3c-1.3-1-2.5-2-3.7-3h-0.8c0,0,0,0.1,0,0.1l-1.4,3.5
		c-0.3,0.6-0.9,0.9-1.5,0.6l-3.5-1.4c-0.6-0.2-0.9-0.9-0.6-1.5L72.7,0h-2.1l-0.2,0.6c-0.2,0.6-0.9,0.9-1.5,0.6l-3-1.2h-8.4l2.7,1.1
		c0.6,0.2,0.9,0.9,0.6,1.5l-1.4,3.5c-0.2,0.6-0.9,0.9-1.5,0.6l-3.5-1.4c-0.6-0.2-0.9-0.9-0.6-1.5l1.4-3.5c0-0.1,0.1-0.2,0.2-0.3
		h-2.1l-1.3,3.1C51.7,3.7,51,4,50.4,3.8l-3.5-1.4c-0.6-0.2-0.9-0.9-0.6-1.5L46.5,0H41l-6.1,14.8C33.8,17.5,35.1,20.5,37.8,21.6z
		 M68.6,9.9l1.4-3.5c0.3-0.6,0.9-0.9,1.5-0.6l3.5,1.4c0.6,0.2,0.9,0.9,0.6,1.5l-1.4,3.5c-0.2,0.6-0.9,0.9-1.5,0.6l-3.5-1.4
		C68.7,11.2,68.4,10.5,68.6,9.9z M61.2,6.9l1.4-3.5c0.2-0.6,0.9-0.9,1.5-0.6l3.5,1.4c0.6,0.2,0.9,0.9,0.6,1.5l-1.4,3.5
		c-0.3,0.6-0.9,0.9-1.5,0.6l-3.5-1.4C61.2,8.2,60.9,7.5,61.2,6.9z M38.9,12.5l1.4-3.4c1-2.5,3.9-3.7,6.3-2.7l22.8,9.3
		c2.5,1,3.7,3.9,2.7,6.3l-1.4,3.4c-1,2.5-3.9,3.7-6.3,2.7l-22.8-9.3C39.1,17.8,37.9,15,38.9,12.5z"/>
	<path fill="#FFFFFF" d="M42.2,17.4L65,26.7c1.7,0.7,3.6-0.1,4.3-1.8l1.4-3.4c0.7-1.7-0.1-3.6-1.8-4.3L46,7.9
		c-1.7-0.7-3.6,0.1-4.3,1.8l-1.4,3.4C39.7,14.8,40.5,16.7,42.2,17.4z"/>
	<path fill="#FFFFFF" d="M414,51.6c0.3-0.3,0.5-0.6,0.7-1c1-2.2-0.6-3.8-2.7-4c-0.5,0.8-1.1,1.7-2,2.7
		C411.4,49.3,412.7,50.4,414,51.6z"/>
	<path fill="#FFFFFF" d="M427.3,71c0.4-1.3,2.5-9.2-1.6-14.1c-2.7-3.2-6.3-4.6-9.8-3.5c0.7,0.5,1.3,1,2,1.1c-1.3,1.4-3.3,1-5,0.6
		c-0.1,0-0.1,0.1-0.2,0.1c0.3,0.6,0.6,1.2,1,1.7c8-5.2,12.6,3,9.9,10.5c-0.5-0.5-2.2-2.2-2.2-2.2c2.5-3.2,0-10.7-5.1-7.7
		c2.5-0.5,4.1,2.5,3.3,4.8c-0.2,0.4-0.3,0.9-0.6,1.2c-0.1-0.1-1.4-1.4-2.9-2.8c-0.7-0.2-1.4-0.6-2-0.9c0.3,0.5,0.6,1,0.8,1.5
		c1.6,1.4,3.3,2.9,3.4,3c-1,0.9-2,1.3-3.1,1.4c-0.7,0.1-1.4-0.1-2-0.4c-0.3,0.8-0.5,1.8-0.8,2.7c2.6,1.5,5.9,1,7.9-1.5
		c0.9,0.8,1.9,1.7,2.8,2.5c-0.8,3-0.6,6,0.8,8.8c1.8,3.7,8.9,12.5,10.9,5.4c1-3.7-4.5-9.2-6.7-11.5C427.8,71.5,427.3,71,427.3,71z
		 M430,83c-4.5,0.2-4.6-7.7-3.3-11c2.1,2.3,4.1,4.6,4.9,7.7C431.9,81.4,431.4,82.9,430,83z"/>
	<path fill="#FFFFFF" d="M409.1,47.9c0.2-0.3,0.4-0.5,0.5-0.8c0,0-0.1,0-0.1,0c-0.2,0.1-0.4,0.2-0.5,0.3c0,0.1,0.1,0.2,0.1,0.3
		C409.1,47.7,409.1,47.8,409.1,47.9z"/>
	<path fill="#FFFFFF" d="M76.7,47.4l7.3,2.3c2.6-3.7,5.6-9.4,8.6-16.3l-12.2-4.4C78.3,36.4,77,42.8,76.7,47.4z"/>
	<path fill="#FFFFFF" d="M88.5,6.3c-1.4,3.3-2.8,6.9-4.1,10.6c-1.2,3.2-2.2,6.4-3.1,9.4l12.5,4.5c1.2-2.9,2.4-6,3.6-9.2
		c0.8-2.2,1.5-4.4,2.2-6.5c0.3-0.9,0.6-1.8,0.8-2.7C96.1,10.7,92.1,8.7,88.5,6.3z"/>
	<path fill="#FFFFFF" d="M81.3,50.7C75,46.9,67.2,53.1,65,58.8C62.8,65,65,73.5,69.8,78c-2.3-8.8,8.5-9.5,13.5-13.2
		C88.9,60.5,86.7,54,81.3,50.7z"/>
	<path fill="#FFFFFF" d="M434.7,56.6c1-0.8,1.7-2,2.1-3.7c0.3-1.3,0.3-2.5,0-3.6c-0.3-1.1-0.8-1.7-1.5-1.8c-0.7-0.2-1.5,0.1-2.2,1
		c-0.7,0.8-1.3,1.9-1.6,3.2c-0.3,1.3-0.3,2.5,0,3.6c0.3,1.1,0.8,1.7,1.5,1.8l4.4,1c0.1-0.3,0.1-0.6,0.2-0.8L434.7,56.6z"/>
	<path fill="#FFFFFF" d="M434.9,63.7c0,0.2,1.2,0.9,2.7,1.5c-0.1-0.5-0.2-1-0.3-1.5C436,63.7,434.9,63.4,434.9,63.7z"/>
	
		<rect x="397.4" y="8.9" transform="matrix(-0.8967 0.4427 -0.4427 -0.8967 762.3509 -156.1168)" fill="#FFFFFF" width="4.1" height="4"/>
	<polygon fill="#FFFFFF" points="397.5,15.7 375.4,26.6 372.4,28.1 374.1,31.7 376,30.8 399.6,19.1 398.2,16.2 397.8,15.5 	"/>
	<polygon fill="#FFFFFF" points="402.7,13.1 399.1,14.9 400.6,18 400.9,18.5 401.1,18.4 404.5,16.7 	"/>
	<path fill="#FFFFFF" d="M367.5,18.3l1.8,3.6l3.8-1.9l7.3-3.6c-1.5-0.6-2.8-1.4-3.9-2.6l-5.8,2.9L367.5,18.3z"/>
	<path fill="#FFFFFF" d="M369.7,15.7l5.9-2.9c-0.1-0.1-0.1-0.2-0.2-0.2c-3.1,1-6.5,1.6-9.9,1.7l1.4,2.9L369.7,15.7z"/>
	<path fill="#FFFFFF" d="M369.9,23.2l1.8,3.6l3.4-1.7l21.1-10.4l1-0.5l-1.8-3.6l-0.1,0c-0.5,1-1.2,2-2,2.9c-0.6,0.6-1.2,1.1-1.9,1.6
		c-2.6,1.8-5.5,2.4-8.7,1.9c-0.1,0-0.2,0-0.2-0.1l-8.7,4.3L369.9,23.2z"/>
	<path fill="#FFFFFF" d="M397.9,3.3l-0.8,0.4C397,4,397,4.3,396.9,4.6c-0.3,1.7-0.6,3.1-0.9,4.2l3.7-1.8L397.9,3.3z"/>
	<polygon fill="#FFFFFF" points="376,35.5 376.6,36.6 402,24 400.2,20.4 376.1,32.3 374.8,33 	"/>
	
		<rect x="407" y="28.4" transform="matrix(0.4434 0.8963 -0.8963 0.4434 255.0067 -349.6972)" fill="#FFFFFF" width="4" height="4.1"/>
	<path fill="#FFFFFF" d="M409.2,38.6l-1.7-3.5l-6.7,3.3c1,0.8,2.1,1.7,3.3,2.7L409.2,38.6z"/>
	<path fill="#FFFFFF" d="M393,42.2l-2.9,1.4l1.7,3.5l3.7-1.8C395,44.3,394.1,43.2,393,42.2z"/>
	<path fill="#FFFFFF" d="M395.8,40.9l-1.4,0.7C395.2,41.7,395.7,41.5,395.8,40.9z"/>
	<path fill="#FFFFFF" d="M399.9,38.8l-2.5,1.2c0.7,0.7,1.4,1.3,2.3,1.6C400,40.8,400,39.8,399.9,38.8z"/>
	<polygon fill="#FFFFFF" points="410.5,38 414.2,36.1 412.4,32.7 408.8,34.5 	"/>
	<polygon fill="#FFFFFF" points="407.4,23 403.9,24.7 405.7,28.3 409.4,26.5 407.8,23.3 407.6,22.9 	"/>
	<path fill="#FFFFFF" d="M389.5,42.4l2.4-1.2c-0.3-0.3-0.6-0.5-0.9-0.8c0.5,0.2,0.9,0.4,1.4,0.6l3.1-1.6c-0.2-0.4-0.4-0.9-0.7-1.4
		c0.5,0.3,1,0.6,1.5,1l10.6-5.2l-1.8-3.6l-25.5,12.6l0.9,1.9l7.5-5.2L389.5,42.4z"/>
	
		<rect x="376.6" y="31.4" transform="matrix(0.8967 -0.4427 0.4427 0.8967 25.6022 176.4819)" fill="#FFFFFF" width="28.4" height="4"/>
	<polygon fill="#FFFFFF" points="405.2,18 402.4,19.3 401.5,19.8 403.3,23.4 406.1,22 407,21.6 	"/>
	<polygon fill="#FFFFFF" points="387.4,45 386.8,43.7 389.5,42.4 388,39.5 380.5,44.6 391.8,47.2 390.1,43.7 	"/>
	<polygon fill="#FFFFFF" points="386.8,43.7 387.4,45 390.1,43.7 389.5,42.4 	"/>
	<path fill="#FFFFFF" d="M252.9,125.6c-0.6-5.2-4.5-8.1-7.2-12.1c-0.4-0.7-1.2-2-1.8-3.5c-1.6,6.8-2.3,17.3,0.2,26
		c-4.1-8.1-3.4-17.7-1.5-26.3c1.5-6.7,5.5-10.9,4.8-11.7c-0.5-0.9-6.5,2.8-8.4,10.7c-4.7,5.9-8.1,13.9-4.9,21.1
		c2.4,5.4,7,8.5,11.9,11.3c0.1,0.1,0.3,0.1,0.4,0.2c0.5,0.3,1.1,0.6,1.6,0.9h1.4C247.9,137,253.5,131.1,252.9,125.6z"/>
	<path fill="#FFFFFF" d="M236.4,97.7c-0.6-0.2-1.9,3-5.1,5.5c-4.1,3.2-9.1,6.1-14.5,5.9c5.3-0.9,10.7-3.9,14-6.5c-1,0-1.9,0-2.3-0.1
		c-2.9-0.4-5.4-1.8-8.3-0.8c-3.3,1.1-5,6.2-8.6,6.1c0.6,0.4,1.3,0.9,1.9,1.4c0.1,0.1,0.1,0.1,0.2,0.2c2.7,1.9,5.6,3.6,9.1,3.5
		c4.7-0.1,8.1-4,10.1-8C236.6,101.9,237.1,97.7,236.4,97.7z"/>
	<path fill="#FFFFFF" d="M44.8,57.5c-2.5-0.6-5.1-5.3-7.8-5.1c0.9-1.1,1.7-2.1,2.2-3c2.8-4.7,2.3-9.3,1.8-9.2
		c-0.6,0-0.9,4.1-3.4,8.3c-0.4,0.7-0.9,1.5-1.5,2.4c0-0.1,0-0.2,0-0.2c-0.9-4-6.6-7.6-9.4-10.2c0.3,1.4,0.5,2.9,0.1,4.2
		c-1.9-0.7-3-2.8-4.9-3.7c2.6,4.8-0.4,3.9-3.8,2.4c2.6,2.2,7.6,6.4,2.7,8.4c1.9-0.2,7.5,0.2,5,2.8c-1.8,1.9-7.5,1.8-10,2.2
		c4.3,0.8,7.1,2.9,1.7,4.8c5.3-0.7-1.7,5.5-2.9,6.4c1.5-0.6,11.5-4.5,8.9-0.4c2.9-1.2,5.7-4.4,5.2,0.8c0.5-1.6,2-6.1,4.5-4.5
		c2.2,1.4,0.1,5.2-0.7,6.8c1.1-0.6,2.4-2.8,3.7-2.3c1.3,0.5,1.3,4.5,1.6,5.7c2.3-2.3,1.8-10.6,5.5-6.1c-0.5-1.6-1.4-3.5-2.3-5.1
		c1.1,0.6,2.4,1.3,3.6,1c-2.1-1.3-4.1-3.7-5.1-5.9C41.3,58.4,43.4,58.9,44.8,57.5z"/>
	<path fill="#FFFFFF" d="M477.9,35.4c0,0.5,0.3,0.9,0.8,1c0.1-0.7,0.1-1.3,0.1-2C478.3,34.5,478,34.9,477.9,35.4z"/>
	<path fill="#FFFFFF" d="M478.7,32.3c-0.1-0.5-0.2-1.1-0.3-1.6c-0.2,0.2-0.3,0.4-0.3,0.7C478,31.8,478.3,32.1,478.7,32.3z"/>
	<path fill="#FFFFFF" d="M475.4,39.4c0,0.1,0,0.2,0.1,0.3c0.5,0.3,0.9,0.5,1.4,0.7l1,0c0.2-0.7,0.4-1.3,0.5-2l-1.9-0.1
		C475.9,38.4,475.5,38.8,475.4,39.4z"/>
	<path fill="#FFFFFF" d="M470.1,19c-1.1,3-2.2,6-3.4,8.7l-1.8-0.6c0.9,3.9,3.2,7.3,6.8,10.1l0.5-16.5
		C471.5,20.1,470.8,19.6,470.1,19z"/>
	<path fill="#FFFFFF" d="M478.5,15.2c0,0.6,0.4,1,1,1l1.7,0c0.9-0.3,1.8-0.6,2.7-1.1c-0.2-0.3-0.5-0.6-0.7-0.9l-3.6-0.1
		C479,14.2,478.5,14.6,478.5,15.2z"/>
	<path fill="#FFFFFF" d="M472.4,15.9l0.1-3.9c-0.4,1.1-0.7,2.2-1.1,3.4C471.7,15.6,472,15.7,472.4,15.9z"/>
	<path fill="#FFFFFF" d="M479.6,12.2l1.1,0c-0.5-0.3-1.1-0.6-1.6-0.9c-0.2,0-0.3-0.1-0.5-0.1C478.7,11.7,479.1,12.2,479.6,12.2z"/>
	<path fill="#FFFFFF" d="M88.5,6.3c3.7,2.4,7.7,4.4,11.8,6c1.7,0.7,3.5,1.3,5.3,1.9c1.3,0.4,2.6,0.7,3.9,1.1
		c0.8,0.2,1.5,0.4,2.3,0.5c4.9,1,9.9,1.6,15.1,1.6c11.7,0,22.6-2.7,32.1-7.4c0.9,1,1.9,1.9,3,2.8c1.1,1,2.3,2,3.5,3
		c1.1,0.8,2.2,1.6,3.3,2.4c1.4,1,2.9,1.8,4.4,2.7c0.2,0.1,0.4,0.2,0.5,0.3c0.7,0.4,1.5,0.8,2.2,1.2c1.8,0.9,3.6,1.7,5.5,2.5
		c0.7,0.3,1.5,0.6,2.2,0.9c2.8,1,5.7,1.8,8.7,2.5c1,0.2,2,0.4,3,0.6c1.8,0.3,3.5,0.6,5.3,0.8c1.7,0.2,3.4,0.3,5.1,0.3
		c0.7,0,1.4,0.1,2,0.1c12.4,0,24.1-3.2,33.9-8.6c4.6,5,10,9.2,16.1,12.6c9.8,5.4,21.4,8.5,33.8,8.5c7.5,0,14.6-1.1,21.3-3.2
		c1.2-0.4,2.5-0.8,3.7-1.3c0.4-0.1,0.8-0.3,1.1-0.4c1.6-0.6,3.2-1.3,4.7-2.1c0.3-0.2,0.6-0.3,1-0.5c1.5-0.7,2.9-1.5,4.3-2.4
		c1-0.6,2.1-1.3,3.1-2c7.5-5.1,13.7-11.7,18.1-19.2c0.1-0.2,0.2-0.4,0.3-0.5c0.2,0.1,0.4,0.2,0.5,0.2c4.4,2,9.4,3.2,14.7,3.2
		c0.3,0,0.7,0,1,0c3.5-0.1,6.8-0.7,9.9-1.7c-0.1-0.1-0.1-0.2-0.2-0.2c0,0,0-0.1-0.1-0.1c0,0,0-0.1-0.1-0.1c0,0,0,0,0-0.1
		c-1.8-2.6-2.4-5.5-1.9-8.7c0.2-1.2,0.6-2.4,1.2-3.4H80.1c1.2,1,2.4,2.1,3.7,3C85.3,4.2,86.8,5.3,88.5,6.3z"/>
	<path fill="#FFFFFF" d="M376.3,10.8c0.6,0.8,0.8,0.7,0.4-0.3c-0.9-2.4-1-5-0.2-7.5c0.3-1.1,0.8-2.1,1.5-3.1h-2.1
		c-0.6,0.7-1,1.6-1.3,2.5C373.7,5.2,374.4,8.2,376.3,10.8z"/>
	<path fill="#FFFFFF" d="M574.8,27.8c1,1.2,1.9,2.6,2.6,3.9l-6.7-0.8c-0.6-1.8-1.4-3.6-2.4-5.2c-1-0.2-2-0.4-3-0.6
		c1.1,1.7,2,3.6,2.8,5.5l-12.3-1.4l0.8-6.6c-0.7-0.3-1.5-0.6-2.2-0.9l-0.8,7.2l-12.9-1.5c1.5-2.2,3.3-4.2,5.3-6
		c0.9-0.8,1.9-1.6,2.9-2.3c-0.8-0.4-1.5-0.8-2.2-1.2c-0.7,0.5-1.5,1.1-2.2,1.7c-2.4,2.1-4.6,4.6-6.3,7.4l-6.7-0.8
		c1.1-1.2,2.2-2.3,3.5-3.2c3.3-2.6,7.1-4.4,11.3-5.4c-1.5-0.9-3-1.7-4.4-2.7c-11.2,4-19.8,14-21.2,26.6c-2,17.6,10.6,33.6,28.3,35.6
		c17.7,2,33.6-10.6,35.6-28.2c0.9-8.2-1.3-16.1-5.7-22.3c-1.7,0-3.4-0.1-5.1-0.3C574.1,26.9,574.5,27.4,574.8,27.8z M555.7,31.5
		l13.4,1.5c1.2,4,1.7,8.4,1.4,12.9l-16.2-1.9L555.7,31.5z M554,46.4l16.2,1.9c-0.6,4.5-2.1,8.6-4.2,12.3L552.5,59L554,46.4z
		 M539.4,29.7l14,1.6L552,43.9l-16.8-1.9C535.8,37.5,537.3,33.3,539.4,29.7z M529.8,28.6l7.2,0.8c-2,3.7-3.4,7.8-4.1,12.3l-8.2-0.9
		C525.4,36.2,527.2,32.1,529.8,28.6z M524.3,43l8.2,1c-0.4,4.5,0,8.8,1.1,12.9l-7.4-0.8C524.7,52,524,47.6,524.3,43z M530.4,63
		c-1.2-1.4-2.1-3-3-4.6l7,0.8c1.1,3.2,2.7,6.3,4.6,9c0.9,1.2,1.9,2.4,2.9,3.5C537.3,69.8,533.4,66.8,530.4,63z M548.6,73.5
		c-0.5-0.1-1-0.2-1.5-0.3c-2.4-1.8-4.4-3.9-6.2-6.4c-1.6-2.2-2.9-4.7-3.9-7.4L550,61L548.6,73.5z M536.1,57.1
		c-1.2-4-1.7-8.4-1.3-12.9l16.8,1.9l-1.4,12.6L536.1,57.1z M551.7,73.8c-0.3,0-0.6,0-0.9,0l1.4-12.4l12.4,1.4
		c-1.6,2.4-3.4,4.5-5.5,6.3C556.9,70.9,554.4,72.6,551.7,73.8z M570.2,67.6c-3.8,3-8.3,5-13.2,5.8c1.3-0.8,2.5-1.7,3.6-2.7
		c2.5-2.2,4.7-4.8,6.5-7.7l7,0.8C573,65.2,571.7,66.5,570.2,67.6z M575.9,61.7l-7.4-0.9c2-3.7,3.4-7.9,4-12.3l8.2,0.9
		C580,54,578.3,58.2,575.9,61.7z M580.9,47.2l-8.2-0.9c0.4-4.5-0.1-8.8-1.2-12.9l7.2,0.8C580.4,38.2,581.2,42.6,580.9,47.2z"/>
	<path fill="#FFFFFF" d="M514.5,33.9c-0.1,1.3-0.4,2.4-0.9,3.4c-1.6,7.5-1,15.6,2.1,23.2c0.3,0.8,0.6,1.5,1,2.2
		c5.8,11.9,16.7,19.6,28.8,21.8l0.2-1.8c1.5,0,3.1-0.2,4.5-0.2l0.2-1.6c-12.4-0.8-24.1-8-29.9-20c-0.3-0.7-0.6-1.3-0.9-2
		c-7.1-17.3,0.4-37.3,17.4-45.6c0.5-0.2,1-0.5,1.5-0.7c-1.2-0.9-2.4-1.9-3.5-3C524.7,14.8,517.6,23.7,514.5,33.9z"/>
	<path fill="#FFFFFF" d="M545.6,84.5l-0.5,4.8l4.5,0.4l0.8-7.2c0,0,0,0-0.1,0c-1.5,0-3,0.2-4.5,0.2L545.6,84.5z"/>
	<path fill="#FFFFFF" d="M689.7,34.9l6.9,16l0.5-1.6l-6.3-14.8C690.4,34.6,690.1,34.7,689.7,34.9z"/>
	<path fill="#FFFFFF" d="M664.7,39.4c-12.4,0-23.9-3.1-33.8-8.5l-8.1,23.8c-1.3,3.7-0.1,7.6,2.7,10l3-8.8c2.6-7.6,10-12.2,17.7-11.5
		l1.3-3.7c0.3-0.8,1.2-1.3,2.1-1l4.2,1.4c0.9,0.3,1.3,1.2,1,2.1l-1.1,3.2l14.8,5.1l1.1-3.2c0.3-0.9,1.2-1.3,2.1-1l4.2,1.4
		c0.8,0.3,1.3,1.2,1,2.1l-1.3,3.7c6.5,4.1,9.6,12.3,7,19.9l-3,8.8c3.6-0.2,7-2.6,8.2-6.3l6.9-20.3L686,36.1
		C679.3,38.2,672.1,39.4,664.7,39.4z"/>
	<path fill="#FFFFFF" d="M674.4,57.6l-0.7,2.1c-0.3,0.8-1.2,1.3-2.1,1l-4.2-1.4c-0.8-0.3-1.3-1.2-1-2.1l0.9-2.7l-14.8-5.1l-0.9,2.7
		c-0.3,0.8-1.2,1.3-2.1,1l-4.2-1.4c-0.9-0.3-1.3-1.2-1-2.1l0.7-2.1c-5.9-0.2-11.4,3.5-13.4,9.3l-3.2,9.4l0.2,0.1l8.2,2.8l-0.2,0.7
		c-1.8,5.2,1,10.9,6.2,12.6l12.1,4.1c5.2,1.8,10.9-1,12.6-6.2l0.2-0.7l8.2,2.8l0.2,0l3.2-9.4C681.3,67.4,679.1,61.1,674.4,57.6z
		 M664,79.3c-1.1,3.3-4.7,5-7.9,3.9L644,79.1c-3.3-1.1-5-4.7-3.9-7.9l0.2-0.7l23.9,8.1L664,79.3z"/>
	<path fill="#FFFFFF" d="M800,33.6c0.2-0.2,1.8-6,5.3-6.4c3.5-0.5,5.1,2.2,5.1,2.7c0,0.3,0.8-16.9,1.4-29.9h-10.4
		C800.9,12.2,799.9,33.8,800,33.6z"/>
	<path fill="#FFFFFF" d="M763.1,2.6l-0.2,1.7l3.1-1.5l1.4,2.8c0.3-0.3,0.7-0.6,1.2-0.8l-1.3-2.7l3.7-1.8l1.6,3.1
		c1.6-0.6,2.5-1.4,0.4-3c1.5,0.4,3.2,1.2,4.7,2c-0.5-0.7-0.9-1.6-1-2.5h-8.1l-1.7,0.9L766.2,0h-1.6l0.7,1.5L763.1,2.6z"/>
	<path fill="#FFFFFF" d="M794.5,15.3c0.7,1.8,2.6,2.7,3.4,4.4c-4.4-2.3-3.6,0.4-2.2,3.6c-2.1-2.3-6-6.8-7.8-2.3
		c0.1-1.7-0.3-6.8-2.6-4.6c-1.1,1.1-1.5,3.7-1.6,6l13.6,10l0.9-17.1C797,15,795.6,14.9,794.5,15.3z"/>
	<path fill="#FFFFFF" d="M764.2,8.1l1.3,0.9l2.9-1.4l1.8,3.6l-1,0.5l1.3,0.9l0.4-0.2l0.3,0.7l2.5,1.8l-0.6-1.2c-0.1,0-0.3,0-0.4,0
		c0.1,0,0.2-0.1,0.4-0.1l-0.9-1.9l3.7-1.8l0.8,1.7c0.5-0.6,0.7-1.3,0.2-2.1c-0.4-0.6-1-0.8-1.6-0.8l-3.7,1.8l-0.3-0.6
		c-0.2,0.1-0.5,0.3-0.6,0.4c0.1-0.2,0.3-0.4,0.5-0.7L769.7,7l1.7-0.8c-1.3-0.4-3.1-0.4-3.9-0.5l0.4,0.7L764.2,8.1z"/>
	<path fill="#FFFFFF" d="M774.9,16c0.2-0.4,0.4-0.8,0.4-1.2l-1.2,0.6L774.9,16z"/>
	<path fill="#FFFFFF" d="M789.9,4c4.3-2.6,8.5-2.2,8.4-1.8c0,0.5-3.7,0.9-7.6,3.3c-0.6,0.3-1.4,0.8-2.2,1.4c0.1,0,0.1,0,0.2,0
		c3.6,0.7,6.9,5.7,9.4,8.3L799,0h-16.1c1.3,1.9,4.4,3.9,4.3,6C788.2,5.1,789.1,4.4,789.9,4z"/>
	<path fill="#FFFFFF" d="M782,3.8c-0.3-1.2-0.7-2.6-0.3-3.8h-4.7C778.4,1.6,780.3,3,782,3.8z"/>
	<path fill="#FFFFFF" d="M719,94.5c0.5,0.3,0.9,0.1,1-0.4l1-5.5l-6.7,2.9L719,94.5z"/>
	<path fill="#FFFFFF" d="M690.8,34.4l6.3,14.8l12,28.2c0.1,0.1,0.2,0.1,0.3,0.2c0.2-1.4,0.7-2.3,1.6-2.7c0.8-0.4,1.8-0.1,2.9,0.6
		l-18.4-43.3C694,33.1,692.4,33.8,690.8,34.4z"/>
	<path fill="#FFFFFF" d="M714.4,74.3c0.3-0.6,0.7-1.1,1.2-1.3c1.3-0.6,2.9,0.2,4.5,2.1l-19.4-45.6c-1.4,0.8-2.8,1.6-4.3,2.4
		L714.4,74.3z"/>
	<path fill="#FFFFFF" d="M686,36.1l8.7,20.4l10,23.4c0.1-1.8,1-2.6,1.8-2.9c0.5-0.2,0.8-0.4,1.4-0.2l-11.3-26l-6.9-16
		C688.5,35.3,687.2,35.8,686,36.1z"/>
	<path fill="#FFFFFF" d="M722,78.9c-1.7-3.1-4-4.9-5.5-4.3c-0.9,0.4-1.3,1.7-1.3,3.4c-1.2-1.2-2.4-1.8-3.3-1.4
		c-0.9,0.4-1.3,1.7-1.3,3.4c-1.2-1.2-2.4-1.8-3.3-1.4c-1.3,0.5-1.7,1.9-1.5,3.7l1.4,3.3c0.3,0.6,0.9,1.4,1.5,1.7l4.7,3l8-3.4l1-5.5
		c0.1-0.6,0-1.7-0.3-2.3L722,78.9z"/>
	<path fill="#FFFFFF" d="M749.1,29.3c0-0.5,0-1-0.1-1.5l-1.9,0.9l-1.8-3.6l3.1-1.5c-0.1-0.5-0.2-0.9-0.3-1.4l-3.4,1.7l-1.8-3.6
		l3.8-1.9c-0.2-0.4-0.4-0.8-0.6-1.3l-3.8,1.9l-1.8-3.6l3.2-1.6c-0.3-0.4-0.7-0.7-1-1.1l-2.8,1.4l-1.4-2.9c-0.3,0-0.7,0-1,0
		c-5.3,0-10.3-1.1-14.7-3.2c-0.3,0.1-0.6,0.2-0.8,0.3c-4.4,7.5-10.6,14-18.1,19.2c-0.6,2.9-0.3,5.9,1.2,8.7
		c3.5,6.7,10.3,0.6,11.9,8.2c1.5,7.1-2.1,11.9,4.5,15.8c13.6,8.1,26.5-10.4,27.6-27.7l-1.2-2.5L749.1,29.3z M716.9,24.5
		c-0.7,1.6-2.5,2.3-4,1.7c-1.5-0.7-2-2.5-1.3-4.1c0.7-1.6,2.5-2.4,4-1.7C717.1,21.1,717.7,22.9,716.9,24.5z M721.7,19.8
		c-1.5-0.7-2-2.5-1.3-4.1c0.7-1.6,2.5-2.4,4-1.7c1.5,0.7,2,2.5,1.3,4.1C724.9,19.7,723.1,20.5,721.7,19.8z M732.3,55.2
		c-1.2,2.7-4.2,3.9-6.6,2.8c-2.4-1.1-3.4-4.2-2.2-6.9c1.2-2.7,4.2-3.9,6.6-2.8C732.6,49.5,733.6,52.6,732.3,55.2z M733.2,20.2
		c-1.5-0.7-2-2.5-1.3-4.1c0.7-1.6,2.5-2.4,4-1.7c1.5,0.7,2,2.5,1.3,4.1C736.4,20.1,734.6,20.9,733.2,20.2z M737.5,24.9
		c0.7-1.6,2.5-2.4,4-1.7c1.5,0.7,2,2.5,1.3,4.1c-0.7,1.6-2.5,2.4-4,1.7C737.4,28.3,736.8,26.5,737.5,24.9z M744.6,38.4
		c-0.7,1.6-2.5,2.3-4,1.7c-1.5-0.7-2-2.5-1.3-4.1c0.7-1.6,2.5-2.4,4-1.7C744.7,35,745.3,36.8,744.6,38.4z"/>
	<path fill="#FFFFFF" d="M606.7,40.3l9.6,3.2c0.7,0.2,1.5-0.1,1.7-0.7c0.2-0.6-0.2-1.3-0.9-1.6l-9.6-3.2c-0.7-0.2-1.5,0.1-1.7,0.7
		C605.6,39.3,606,40,606.7,40.3z"/>
	<path fill="#FFFFFF" d="M607.7,37.4l9.6,3.2c0.7,0.2,1.5-0.1,1.7-0.7c0.2-0.6-0.2-1.3-0.9-1.6l-9.6-3.2c-0.7-0.2-1.5,0.1-1.7,0.7
		C606.6,36.4,607,37.1,607.7,37.4z"/>
	<path fill="#FFFFFF" d="M610.4,35.2l6,2c0.7,0.2,1.5-0.1,1.7-0.7c0.2-0.6-0.2-1.3-0.9-1.6l-6-2c-0.7-0.2-1.5,0.1-1.7,0.7
		C609.2,34.2,609.7,34.9,610.4,35.2z"/>
	<path fill="#FFFFFF" d="M598.1,81.5c0,0,0.1,0,0.1,0c0,0,0.1,0,0.1,0.1c0,0,0.1,0,0.1,0c4.2,1.4,8.4,1.1,12.3-0.9
		c4-2,6.7-5.1,8.1-9.3c0.4-1.1,0.6-2.3,0.8-3.5c0.2-1.9,0.1-3.7-0.2-5.4c-0.3-1.7-1.4-4.3-3.3-7.7c-1.8-3.4-1.8-6.9,0.1-10.4
		L606.1,41c-0.5,3.9-2.6,6.7-6.1,8.4c-3.5,1.7-5.9,3.1-7.2,4.2c-1.3,1.2-2.4,2.5-3.4,4.2c-0.6,1-1.1,2.1-1.4,3.2
		c-1.4,4.2-1.1,8.3,0.9,12.3C590.7,77.4,593.9,80.1,598.1,81.5z M591.3,59.5c0.8-1.2,1-1,0.6,0.4c-1,3.4-1.1,7,0.2,10.4
		c1.2,3.4,3.6,6.2,6.6,8.1c1.2,0.8,1.1,1.1-0.2,0.7c-4.3-1.3-7.6-4.1-9-7.9C588.1,67.5,588.9,63.3,591.3,59.5z"/>
	<path fill="#FFFFFF" d="M375.1,12C375.1,12.1,375.1,12.1,375.1,12c0.1,0.1,0.1,0.1,0.1,0.2c0,0,0,0,0.1,0.1
		c0.1,0.1,0.1,0.2,0.2,0.2c0.1,0.1,0.1,0.2,0.2,0.2c0.3,0.4,0.6,0.8,0.9,1.1c1.1,1.1,2.4,2,3.9,2.6c0.6,0.2,1.3,0.4,2,0.6
		c0.1,0,0.2,0,0.2,0.1c3.1,0.6,6-0.1,8.7-1.9c0.7-0.5,1.4-1,1.9-1.6c0.9-0.9,1.5-1.9,2-2.9c0.1-0.1,0.1-0.2,0.2-0.3
		c0.2-0.4,0.4-1,0.6-1.6c0.3-1.1,0.6-2.5,0.9-4.2c0-0.3,0.1-0.6,0.2-0.9c0.4-1.5,1.2-2.7,2.3-3.7h-21.5c-0.6,0.9-1.1,1.9-1.5,3.1
		c-0.8,2.5-0.6,5.1,0.2,7.5c0.4,1,0.2,1.1-0.4,0.3c-1.9-2.6-2.6-5.6-1.7-8.3c0.3-0.9,0.7-1.7,1.3-2.5h-1.4c-0.5,1-0.9,2.2-1.2,3.4
		C372.6,6.5,373.3,9.4,375.1,12z"/>
	<path fill="#FFFFFF" d="M480.7,12.2l-1.1,0c-0.5,0-1-0.4-1-1c-1.8-0.6-3.6-1.2-5.3-1.9c-0.3,0.9-0.5,1.8-0.8,2.7l-0.1,3.9l-0.1,4.8
		l-0.5,16.5L471.1,55c0,1.1,0.9,2.1,2,2.1l8.3,0.2c1.1,0,2.1-0.9,2.1-2l0.2-6.6l-5.1-0.1c-0.6,0-1-0.5-1-1c0-0.6,0.5-1,1-1l5.1,0.1
		l0.1-2l-5.2-0.1c-0.6,0-1-0.5-1-1c0-0.6,0.5-1,1-1l5.2,0.1l0.1-2l-6.1-0.2l-1,0l-0.5,0c-0.4,0-0.8-0.3-0.9-0.7
		c0-0.1-0.1-0.2-0.1-0.3c0-0.6,0.5-1,1-1l1.9,0.1l5.6,0.2l0.1-2l-5.2-0.1c-0.1,0-0.1,0-0.2,0c-0.5-0.1-0.8-0.5-0.8-1
		c0-0.5,0.4-0.9,0.9-1c0.1,0,0.1,0,0.2,0l5.2,0.1l0.1-2l-5.2-0.1c-0.1,0-0.3,0-0.4-0.1c-0.4-0.2-0.6-0.5-0.6-1
		c0-0.3,0.1-0.5,0.3-0.7c0.2-0.2,0.5-0.3,0.7-0.3l5.2,0.1l0.1-1.8l-5.2-0.1c-0.6,0-1-0.5-1-1c0-0.6,0.5-1,1-1l5.2,0.2l0.1-2
		l-5.2-0.1c-0.6,0-1-0.5-1-1c0-0.6,0.5-1,1-1l5.2,0.1l0.1-2.1l-7.6-0.2c-0.6,0-1-0.5-1-1c0-0.6,0.5-1,1-1l7.6,0.2l0.1-2l-3.5-0.1
		l-1.7,0c-0.6,0-1-0.5-1-1c0-0.6,0.5-1,1-1l3.6,0.1l1.6,0l0-1.6c-0.8-0.2-1.5-0.3-2.3-0.5L480.7,12.2z M477.5,50.7
		c1.1,0,2.1,1,2,2.1c0,1.1-1,2-2.1,2c-1.1,0-2.1-1-2-2.1C475.4,51.5,476.3,50.6,477.5,50.7z"/>
	<path fill="#FFFFFF" d="M499.8,37.6c-0.1,0.5-0.2,0.9-0.3,1.1c-0.1,0.4-1.5,3.4-2.2,4.5c-0.2,0.3-0.2,0.6,0.1,0.8
		c1,0.5,1.5,0.2,2.1-1.2c0.6-1.2,1.2-2.9,1.5-4.4c-0.1-0.5-0.2-1.1-0.2-1.7C500.4,36.9,500.1,37.3,499.8,37.6z"/>
	<path fill="#FFFFFF" d="M514.6,32.6c-0.2-5.9-5.2-11.9-10.6-7.6c-4.8-5.1-12.9-0.1-14.8,5.4c-1.7,5,0.9,10.6,6.7,9.2
		c1.4-0.3,2.8-1,4-2c0.3-0.3,0.7-0.6,0.9-1c0,0.6,0.1,1.2,0.2,1.7c1.5,6,9.9,5.1,12.7-1c0.5-1,0.8-2.2,0.9-3.4
		C514.6,33.5,514.6,33,514.6,32.6z M493.1,37.4c-0.3,0.4-0.8,0.5-1.1,0.2c-1.7-1.2-2.3-3.2-1.9-4.8c0.2-0.9,0.6-1.8,1.3-2.4
		c0.2-0.2,0.5-0.3,0.7-0.2c0.1,0,0.3,0.1,0.4,0.2c0.3,0.3,0.3,0.8,0,1.2c-0.4,0.4-0.7,1-0.9,1.6c-0.2,1.1,0.1,2.3,1.3,3.1
		C493.2,36.6,493.3,37.1,493.1,37.4z M495.2,27.8c-0.1,0.6-0.7,0.9-1.3,0.8c-0.6-0.1-0.9-0.7-0.8-1.3c0.1-0.6,0.7-0.9,1.3-0.8
		C494.9,26.7,495.3,27.3,495.2,27.8z"/>
	<path fill="#FFFFFF" d="M650.5,100.1l-4.8,0.2c-0.5,0-1.1-0.3-1.4-0.6l-2.9-3.9c-0.3-0.4-0.6-0.3-0.7,0.1l-1.3,4.7
		c-0.1,0.5-0.6,0.9-1,1.1l-4.6,1.6c-0.4,0.2-0.5,0.5-0.1,0.7l4,2.7c0.4,0.3,0.7,0.9,0.7,1.3l0.1,4.8c0,0.5,0.3,0.6,0.7,0.3l3.8-3
		c0.4-0.3,1-0.4,1.5-0.3l4.6,1.4c0.5,0.1,0.7-0.1,0.5-0.6l-1.7-4.5c-0.2-0.4-0.1-1.1,0.2-1.5l2.8-4C651.2,100.3,651,100,650.5,100.1
		z"/>
	<path fill="#FFFFFF" d="M410.8,18.6l14.1,5.8l2.6,1.1l10.2,4.2l1.2,0.5c2.7,1.1,5.7-0.2,6.8-2.8L456.8,0c0,0,0,0,0,0h-5.6l-0.3,0.6
		c-0.3,0.6-0.9,0.9-1.5,0.6L446.2,0h-8.4l1.3,0.5l1.6,0.7c0.6,0.2,0.9,0.9,0.6,1.5l-1.4,3.5c-0.2,0.5-0.6,0.7-1.1,0.7
		c-0.1,0-0.3,0-0.4-0.1l-3.5-1.4c-0.6-0.2-0.9-0.9-0.6-1.5l1.4-3.5c0.1-0.1,0.1-0.3,0.2-0.4h-2.2l-1.3,3.2c-0.2,0.6-0.9,0.9-1.5,0.6
		l-2.3-0.9l-1.2-0.5c-0.6-0.2-0.9-0.9-0.6-1.5L427,0H425l0,0.1c-0.3,0.6-0.9,0.9-1.5,0.6L421.5,0h-8.8l-4.8,11.8
		C406.8,14.5,408.1,17.5,410.8,18.6z M441.6,6.9l1.4-3.5c0.3-0.6,0.9-0.9,1.5-0.6l3.5,1.4c0.6,0.2,0.9,0.9,0.6,1.5l-1.4,3.5
		c-0.2,0.6-0.9,0.9-1.5,0.6l-3.5-1.4C441.7,8.2,441.4,7.5,441.6,6.9z M411.9,9.5l1.4-3.4c1-2.5,3.9-3.7,6.3-2.7l6.2,2.5l2.5,1
		l10.2,4.2l3.9,1.6c2.5,1,3.7,3.9,2.7,6.3l-1.4,3.4c-0.9,2.3-3.5,3.5-5.8,2.8c-0.2-0.1-0.4-0.1-0.5-0.2l-9.7-4l-2.6-1l-10.5-4.3
		C412.1,14.8,410.9,12,411.9,9.5z"/>
	<path fill="#FFFFFF" d="M438,23.7C438,23.7,438,23.7,438,23.7c1.7,0.7,3.6-0.1,4.3-1.8l1.4-3.4c0.7-1.7-0.1-3.6-1.8-4.3l-3.3-1.4
		l-10.2-4.2l-2.5-1L419,4.9c-1.7-0.7-3.6,0.1-4.3,1.8l-1.4,3.4c-0.7,1.7,0.1,3.6,1.8,4.3l10,4.1l2.6,1L438,23.7z"/>
	<path fill="#FFFFFF" d="M800.3,68c0.4-1.3,2.5-9.2-1.6-14.1c-3.9-4.6-9.6-5.5-14.1-0.6c-2.5-2-3.6-5.2-2.1-8
		c-1.4,3.6,3.7,5.8,5.2,2.4c1.4-3-2-4.9-5.2-3.5c-2.3,0.9-3.7,3.5-1.6,7c0.4,0.8,2.3,2.8,2.7,3.2c-1.6,2.4-2.3,6.3-0.3,8.8
		c2.7,3.4,7.4,3.5,9.9,0.4c0.9,0.8,1.9,1.7,2.8,2.5c-0.8,3-0.6,6,0.8,8.8c1.8,3.7,8.9,12.5,10.9,5.4c1-3.7-4.5-9.2-6.7-11.5
		C800.8,68.5,800.3,68,800.3,68z M788.1,62.7c-3.4,0.3-5.1-3.8-3.2-6.9c0,0,6.2,5.3,6.3,5.5C790.3,62.2,789.3,62.6,788.1,62.7z
		 M796.6,64.4c-0.5-0.5-2.2-2.2-2.2-2.2c2.5-3.2,0-10.7-5.1-7.7c2.5-0.5,4.1,2.5,3.3,4.8c-0.2,0.4-0.3,0.9-0.6,1.2
		c-0.2-0.1-6.2-6-6.2-6C794.3,48.1,799.4,56.6,796.6,64.4z M803,80c-4.5,0.2-4.6-7.7-3.3-11c2.1,2.3,4.1,4.6,4.9,7.7
		C804.9,78.4,804.4,79.9,803,80z"/>
	<path fill="#FFFFFF" d="M449.7,44.4l7.3,2.3c2.6-3.7,5.6-9.4,8.6-16.3l-12.2-4.4C451.3,33.4,450,39.8,449.7,44.4z"/>
	<path fill="#FFFFFF" d="M470.1,19c0.1-0.2,0.1-0.3,0.2-0.5c0.4-1.1,0.8-2.1,1.1-3.2c0.4-1.1,0.8-2.2,1.1-3.4
		c0.3-0.9,0.6-1.8,0.8-2.7c-4.2-1.7-8.2-3.7-11.8-6c-1.4,3.3-2.8,6.9-4.1,10.6c-1.2,3.2-2.2,6.4-3.1,9.4l10.7,3.8l1.8,0.6
		C467.8,25,469,22.1,470.1,19z"/>
	<path fill="#FFFFFF" d="M454.3,47.7c-6.3-3.8-14.2,2.3-16.3,8.1c-0.2,0.5-0.3,1-0.4,1.5c-0.1,0.3-0.1,0.6-0.2,0.8
		c-0.3,1.8-0.3,3.7-0.1,5.6c0.1,0.5,0.1,1,0.3,1.5c0.8,3.8,2.6,7.4,5.2,9.8c-2.3-8.8,8.5-9.5,13.5-13.2
		C461.9,57.5,459.7,51,454.3,47.7z"/>
	<path fill="#FFFFFF" d="M821.3,56.8L821.3,56.8l-13.6-3.2c1-0.8,1.7-2,2.1-3.7c0.3-1.3,0.3-2.5,0-3.6c-0.3-1.1-0.8-1.7-1.5-1.8
		c-0.7-0.2-1.5,0.1-2.2,1c-0.7,0.8-1.3,1.9-1.6,3.2c-0.3,1.3-0.3,2.5,0,3.6c0.3,1.1,0.8,1.7,1.5,1.8l9.3,2.2
		c0.1-0.1,0.3-0.1,0.5-0.2C816.7,55.8,819.4,56.4,821.3,56.8z"/>
	<path fill="#FFFFFF" d="M822.4,57.1c-0.3-0.1-0.7-0.2-1.1-0.2c-1.9-0.4-4.6-1-5.5-0.7c-0.2,0-0.3,0.1-0.5,0.2
		c-1.4,0.7-1.7,2.4-2.7,3.5c-1.5,1.7-4.8,0.4-4.7,0.9c0,0.4,6,3.9,8.7,0.9c1.7-1.9,3.5-3,5.1-3.5c0.5-0.2,1.4-0.3,1.5-0.5
		C823.2,57.4,822.9,57.2,822.4,57.1z"/>
	<path fill="#FFFFFF" d="M775.1,8.8c-1.3-0.1-2.8,0.7-3.9,1.3l0.3,0.6L775.1,8.8z"/>
	<path fill="#FFFFFF" d="M771,9.8c0.8-0.9,1.9-1.8,1.6-2.8c-0.2-0.4-0.6-0.6-1.3-0.8L769.7,7L771,9.8z"/>
	<polygon fill="#FFFFFF" points="771.2,13.2 770.8,12.5 770.5,12.7 748.4,23.6 745.4,25.1 747.1,28.7 749,27.8 772.6,16.1 	"/>
	<path fill="#FFFFFF" d="M773.9,15.5l0.3-0.1l1.2-0.6c0.1-0.7-0.5-1.1-2.3-0.9l0.6,1.2L773.9,15.5z"/>
	<path fill="#FFFFFF" d="M772.1,11.9l0.9,1.9c1.1-0.4,2.7-1.1,3.6-2l-0.8-1.7L772.1,11.9z"/>
	<path fill="#FFFFFF" d="M740.5,15.3l1.8,3.6l3.8-1.9l18.1-9l3.6-1.8l-0.4-0.7c0,0-0.1,0-0.1,0c0,0,0,0,0.1-0.1L766,2.7l-3.1,1.5
		l-19.1,9.5L740.5,15.3z"/>
	<path fill="#FFFFFF" d="M755.3,6.4l7.8-3.8l2.3-1.1L764.6,0h-1.5C760.9,2.5,758.3,4.7,755.3,6.4z"/>
	<polygon fill="#FFFFFF" points="768.4,0 766.2,0 766.6,0.9 	"/>
	<path fill="#FFFFFF" d="M742.7,12.7l8.3-4.1c-3.8,1.6-8,2.5-12.5,2.6l1.4,2.9L742.7,12.7z"/>
	<polygon fill="#FFFFFF" points="770.2,11.3 768.4,7.6 765.5,9.1 746.7,18.3 742.9,20.2 744.7,23.8 748.1,22.2 769.2,11.8 	"/>
	<path fill="#FFFFFF" d="M770.9,0.3l-3.7,1.8l1.3,2.7c1.2-0.6,2.7-0.9,3.9-1.3L770.9,0.3z"/>
	<path fill="#FFFFFF" d="M773.7,18.3l-0.4-0.9l-24.2,11.9l-1.3,0.6l1.2,2.5l0.5,1.1L775,21l-1.3-2.5c-0.1,0-0.2,0.1-0.3,0.2
		C773.6,18.5,773.6,18.4,773.7,18.3z"/>
	
		<rect x="780" y="25.4" transform="matrix(0.4434 0.8963 -0.8963 0.4434 459.9223 -685.6925)" fill="#FFFFFF" width="4" height="4.1"/>
	<polygon fill="#FFFFFF" points="780.5,32.1 763.1,40.7 764.8,44.2 782.2,35.6 	"/>
	<polygon fill="#FFFFFF" points="783.5,35 787.2,33.1 785.4,29.7 781.8,31.5 	"/>
	<path fill="#FFFFFF" d="M779.1,24.1c0.2-2-0.6-2.1-1.7-1.4l1.3,2.6l3.7-1.8l-1.1-2.2C780.6,21.1,779.8,21.9,779.1,24.1z"/>
	<polygon fill="#FFFFFF" points="762.5,39.4 779.9,30.8 778.1,27.2 752.6,39.8 753.5,41.6 761,36.5 	"/>
	<path fill="#FFFFFF" d="M773.3,26.8c0.2-0.5,0.9-2.3,1.3-4l-24.4,12.1l1.8,3.6l25.5-12.6l-1.2-2.3C775,24.7,773.7,26.3,773.3,26.8z
		"/>
	<polygon fill="#FFFFFF" points="760.4,42 759.8,40.7 762.5,39.4 761,36.5 753.5,41.6 764.8,44.2 763.1,40.7 	"/>
	<polygon fill="#FFFFFF" points="760.4,42 763.1,40.7 762.5,39.4 759.8,40.7 	"/>
	<path fill="#FFFFFF" d="M625.9,122.6c-0.6-5.2-4.5-8.1-7.2-12.1c-0.4-0.7-1.2-2-1.8-3.5c-1.6,6.8-2.3,17.3,0.2,26
		c-4.1-8.1-3.4-17.7-1.5-26.3c1.5-6.7,5.5-10.9,4.8-11.7c-0.5-0.9-6.5,2.8-8.4,10.7c-4.7,5.9-8.1,13.9-4.9,21.1
		c2.4,5.4,7,8.5,11.9,11.3c0.1,0.1,0.3,0.1,0.4,0.2c1.1,0.6,2.3,1.3,3.4,1.9C620.1,134.7,626.6,128.4,625.9,122.6z"/>
	<path fill="#FFFFFF" d="M609.4,94.7c-0.6-0.2-1.9,3-5.1,5.5c-4.1,3.2-9.1,6.1-14.5,5.9c5.3-0.9,10.7-3.9,14-6.5c-1,0-1.9,0-2.3-0.1
		c-2.9-0.4-5.4-1.8-8.3-0.8c-3.3,1.1-5,6.2-8.6,6.1c0.6,0.4,1.3,0.9,1.9,1.4c0.1,0.1,0.1,0.1,0.2,0.2c2.7,1.9,5.6,3.6,9.1,3.5
		c4.7-0.1,8.1-4,10.1-8C609.6,98.9,610.1,94.7,609.4,94.7z"/>
	<path fill="#FFFFFF" d="M416.4,64.9c-0.3-1.2-0.9-2.4-1.5-3.6c-0.3-0.5-0.5-1-0.8-1.5c0.6,0.4,1.3,0.7,2,0.9
		c0.5,0.2,1.1,0.2,1.6,0.1c-1.5-0.9-2.9-2.4-4-4c-0.4-0.6-0.7-1.2-1-1.7c0-0.1-0.1-0.1-0.1-0.2c0.1,0,0.2,0.1,0.3,0.1
		c1.7,0.4,3.7,0.8,5-0.6c-0.6-0.2-1.3-0.6-2-1.1c-0.6-0.5-1.2-1.1-1.8-1.7c-1.3-1.2-2.6-2.4-4-2.3c0.8-1,1.5-1.9,2-2.7
		c0.1-0.1,0.1-0.2,0.2-0.3c2.8-4.7,2.3-9.3,1.8-9.2c-0.6,0-0.9,4.1-3.4,8.3c-0.3,0.5-0.6,1-1,1.6c-0.2,0.3-0.3,0.5-0.5,0.8
		c0-0.1,0-0.2,0-0.2c0-0.1-0.1-0.2-0.1-0.3c-0.6-2.2-2.7-4.3-4.9-6.2c-1.1-1-2.3-1.9-3.3-2.7c-0.4-0.3-0.8-0.7-1.1-1
		c0.1,0.5,0.2,0.9,0.2,1.4c0.1,1,0.1,1.9-0.2,2.8c-0.9-0.3-1.6-0.9-2.3-1.6c-0.4-0.3-0.7-0.7-1.1-1c-0.5-0.4-0.9-0.8-1.5-1
		c0.3,0.6,0.5,1,0.7,1.4c0.2,0.6,0.3,1.1,0.3,1.4c-0.1,0.6-0.6,0.8-1.4,0.7c-0.6-0.1-1.3-0.3-2-0.6c-0.4-0.2-0.9-0.4-1.4-0.6
		c0.3,0.2,0.6,0.5,0.9,0.8c0.4,0.3,0.7,0.7,1.1,1c1,1,2,2.1,2.5,3.1c0.6,1.3,0.3,2.6-1.8,3.5c1.9-0.2,7.5,0.2,5,2.8
		c-1.8,1.9-7.5,1.8-10,2.2c4.3,0.8,7.1,2.9,1.7,4.8c5.3-0.7-1.7,5.5-2.9,6.4c1.5-0.6,11.5-4.5,8.9-0.4c2.9-1.2,5.7-4.4,5.2,0.8
		c0.5-1.6,2-6.1,4.5-4.5c2.2,1.4,0.1,5.2-0.7,6.8c1.1-0.6,2.4-2.8,3.7-2.3c1.3,0.5,1.3,4.5,1.6,5.7c0.7-0.7,1.1-1.8,1.5-3.1
		c0.3-0.9,0.5-1.9,0.8-2.7C413.8,63.6,414.6,62.7,416.4,64.9z"/>
	<path fill="#FFFFFF" d="M841.3,14.9c0.1,0.3,0.1,0.6,0,0.8c-0.2,0.4-0.8,0.4-1.2,0.2l-1.8-1.2c-0.1,0.4-0.2,0.8-0.3,1.1l1.7,1.1
		c-1.8,1.9-2.4,4-1.9,6.5c0.2,0.7,0.3,1.3,0.4,1.9c1.6,5.2,5.9,9.4,12.6,12.5C853.7,28.9,850.3,20.4,841.3,14.9z"/>
	<path fill="#FFFFFF" d="M843,10.8c-0.1,0.1-0.2,0.2-0.3,0.3c0.9,0.8,1.8,1.4,2.7,1.8c0.1-1.5,0.7-3,1.7-4.3l1.1-1.3
		c-2.2-0.2-4.7,0.2-7.1,1.3l1.6,1C843.1,10,843.2,10.5,843,10.8z"/>
	<path fill="#FFFFFF" d="M856.9,12.2c-1.2-1.6-2.6-2.8-4.2-3.6l4,3.7C856.8,12.3,856.9,12.2,856.9,12.2z"/>
	<path fill="#FFFFFF" d="M461.5,3.3c3.7,2.4,7.7,4.4,11.8,6c1.7,0.7,3.5,1.3,5.3,1.9c0.2,0,0.3,0.1,0.5,0.1c1.1,0.3,2.3,0.6,3.4,0.9
		c0.8,0.2,1.5,0.4,2.3,0.5c4.9,1,9.9,1.6,15.1,1.6c11.7,0,22.6-2.7,32.1-7.4c0.9,1,1.9,1.9,3,2.8c1.1,1,2.3,2,3.5,3
		c1.1,0.8,2.2,1.6,3.3,2.4c1.4,1,2.9,1.8,4.4,2.7c0.2,0.1,0.4,0.2,0.5,0.3c0.7,0.4,1.5,0.8,2.2,1.2c1.8,0.9,3.6,1.7,5.5,2.5
		c0.7,0.3,1.5,0.6,2.2,0.9c2.8,1,5.7,1.8,8.7,2.5c1,0.2,2,0.4,3,0.6c1.8,0.3,3.5,0.6,5.3,0.8c1.7,0.2,3.4,0.3,5.1,0.3
		c0.7,0,1.4,0.1,2,0.1c12.4,0,24.1-3.2,33.9-8.6c4.6,5,10,9.2,16.1,12.6c9.8,5.4,21.4,8.5,33.8,8.5c7.5,0,14.6-1.1,21.3-3.2
		c1.2-0.4,2.5-0.8,3.7-1.3c0.4-0.1,0.8-0.3,1.1-0.4c1.6-0.6,3.2-1.3,4.7-2.1c0.3-0.2,0.6-0.3,1-0.5c1.5-0.7,2.9-1.5,4.3-2.4
		c1-0.6,2.1-1.3,3.1-2c7.5-5.1,13.7-11.7,18.1-19.2c0.1-0.2,0.2-0.4,0.3-0.5c0.2,0.1,0.4,0.2,0.5,0.2c4.4,2,9.4,3.2,14.7,3.2
		c0.3,0,0.7,0,1,0c4.4-0.1,8.6-1,12.5-2.6c1.5-0.6,3-1.3,4.4-2.2c3-1.8,5.6-3.9,7.8-6.4H456.7c0,0,0,0,0,0
		C458.3,1.2,459.8,2.3,461.5,3.3z"/>
	<path fill="#FFFFFF" d="M1072.3,68c7.7-10.9,20.2-18.1,34.3-18.6c0.3-1.7,0.6-3.4,0.7-5.1c0.1-1.9,0.1-3.8,0-5.7
		c-16.6,1.7-32,7.7-45.1,16.9l-0.1,1C1064.5,61.1,1068,65,1072.3,68z"/>
	<path fill="#FFFFFF" d="M1063,49.5c2-1.3,4-2.4,6-3.6c-1.8,0.6-3.8,1-5.7,1.3L1063,49.5z"/>
	<path fill="#FFFFFF" d="M1077.6,41.7c9.1-3.9,18.8-6.5,29-7.6c-0.4-2.4-1.1-4.7-2-7c-4.3,1-8.8,1.5-13.4,1.1
		c-0.4,0-0.8-0.1-1.2-0.1C1086.9,33.7,1082.7,38.3,1077.6,41.7z"/>
	<path fill="#FFFFFF" d="M1082.3,63.7c-2.3,2-4.3,4.2-6.1,6.7c4,2,8.4,3.3,13.1,3.6c0.5,0,1,0,1.4,0.1c0.9-0.7,1.9-1.4,2.8-2.2
		c5.4-4.7,9.5-10.8,11.8-17.8C1096.6,54.8,1088.6,58.2,1082.3,63.7z"/>
	<path fill="#FFFFFF" d="M1110.2,54.1c-2.2,7.5-6.2,14-11.6,19.3c9.8-2,18.2-8.3,22.9-17c-3.3-1.2-6.9-2-10.6-2.3
		C1110.6,54.1,1110.4,54.1,1110.2,54.1z"/>
	<path fill="#FFFFFF" d="M1124.1,33.8c0.3,0,0.6,0.1,1,0.1c-0.9-4.9-2.9-9.4-5.7-13.4c-3.2,2.2-6.6,4-10.3,5.3c1,2.6,1.7,5.2,2.2,8
		C1115.5,33.5,1119.8,33.5,1124.1,33.8z"/>
	<path fill="#FFFFFF" d="M1102.7,22.8c-1.5-2.8-3.2-5.4-5.2-7.7c-0.7-0.8-1.5-1.6-2.3-2.4c-0.6,3.9-1.6,7.5-3,10.9
		C1095.8,23.9,1099.3,23.6,1102.7,22.8z"/>
	<path fill="#FFFFFF" d="M1095.7,7c4.8,4,8.8,8.9,11.6,14.6c3.3-1.1,6.3-2.7,9.2-4.6c-2.3-2.4-4.9-4.5-7.8-6.2
		C1104.1,10.1,1099.7,8.8,1095.7,7C1095.7,7,1095.7,7,1095.7,7z"/>
	<path fill="#FFFFFF" d="M1123.8,38.4c-4-0.3-8-0.3-12-0.1c0.1,2.1,0.2,4.2,0.1,6.3c-0.1,1.7-0.3,3.3-0.6,4.9
		c4.3,0.3,8.4,1.2,12.2,2.7c1.1-3,1.9-6.2,2.1-9.6c0.1-1.3,0.1-2.7,0-4C1125,38.5,1124.4,38.4,1123.8,38.4z"/>
	<path fill="#FFFFFF" d="M1055.4,95.9l-2-4.9l-1.6,0.6c-2.4,1-3.6,3.8-2.6,6.2c1,2.4,3.8,3.6,6.2,2.6l16.1-6.7
		c2.4-1,3.6-3.8,2.6-6.2c-1-2.4-3.8-3.6-6.2-2.6l-1.1,0.5l2,4.9L1055.4,95.9z"/>
	<path fill="#FFFFFF" d="M1048.9,72.3l0.7,0.6l0.4,0.9l7.3,17.7l7.1-2.9l-7.3-17.7l-0.4-0.9l0.1-0.9l2.9-21.4c-0.2,0-0.4,0-0.6,0
		c-4.1,0.1-8-0.6-11.7-1.9l-21.6,8.9L1048.9,72.3z"/>
	<path fill="#FFFFFF" d="M1059.7,47.5l-2.9,21.4l-0.1,0.9l0.4,0.9l7.3,17.7l-7.1,2.9l-7.3-17.7l-0.4-0.9l-0.7-0.6l-23-17.6l21.6-8.9
		c-8.2-2.8-15.2-8.7-19.9-16.5c-2.6,4.2-6.2,7.6-10.4,9.6l0.5,0l0.4,4.6l-4.6,0.4l-0.3-3.4c-0.5,0.1-1,0.3-1.6,0.4l0.3,3.2l-0.8,0.1
		c0,0.6,0,1.1,0.1,1.6l0.8-0.1l0.2,2.8c0.2,0.3,0.4,0.5,0.7,0.7l1.1,0.8l-0.3-4.4l4.6-0.4l0.4,4.6l-4.4,0.3l1.9,1.5l2.6-0.2l0.2,2.4
		l28,21.5l6.6,16l2,4.9l13.5-5.6l-2-4.9l-6.6-16l1.7-12.8l0.1-1l0.8-6.1l0.3-2.2C1062.1,47.4,1060.9,47.5,1059.7,47.5z M1038.2,43.2
		c0.8,1.9-0.1,4-2,4.8c-1.9,0.8-4-0.1-4.8-2c-0.8-1.9,0.1-4,2-4.8C1035.3,40.4,1037.5,41.3,1038.2,43.2z"/>
	<path fill="#FFFFFF" d="M872.6,32.8c-1.1-3-0.1-6.9,3.1-10.8c-0.5-1-1-1.9-1.5-2.9c-4.1,4.7-6.2,10-4.4,14.8
		c1.8,4.9,7,7.6,13.4,8.5c-0.3-1-0.6-2.1-0.8-3.2C877.1,38.2,873.7,35.9,872.6,32.8z"/>
	<path fill="#FFFFFF" d="M885.4,39.5c0.3,1.1,0.5,2.1,0.9,3c3.2,0.1,6.7-0.1,10.4-0.8c-1.4-0.7-2.7-1.5-4.1-2.4
		C890.1,39.6,887.7,39.7,885.4,39.5z"/>
	<path fill="#FFFFFF" d="M888.5,12c-0.2-0.2-0.5-0.4-0.7-0.5c-0.1,0.4-0.3,0.8-0.4,1.1C887.8,12.4,888.1,12.2,888.5,12z"/>
	<path fill="#FFFFFF" d="M914.1,35.3c2.8-1.6,5.4-3.4,7.6-5.3c-0.5-0.9-1-1.8-1.4-2.7c-1.4,1.3-3,2.5-4.7,3.7
		C915.1,32.4,914.6,33.9,914.1,35.3z"/>
	<path fill="#FFFFFF" d="M910,37.4c0.6-1.3,1.2-2.7,1.7-4.2c-2.2,1.2-4.6,2.3-7.2,3.2c-2.5,0.9-5,1.6-7.4,2.1
		c1.4,0.8,2.7,1.5,4.1,2.1c1.4-0.4,2.9-0.8,4.3-1.4C907.1,38.7,908.6,38,910,37.4z"/>
	<path fill="#FFFFFF" d="M883.6,14.9c0.4-1.5,0.9-3,1.4-4.4c-3.3,1.9-6.1,3.9-8.5,6.2c0.4,0.9,0.8,1.9,1.3,2.9
		C879.4,17.9,881.3,16.4,883.6,14.9z"/>
	<path fill="#FFFFFF" d="M898.4,50.7c-1.4,0.5-2.8,0.7-4.2,0.4c-3.2-0.6-6-3.5-7.8-8.4c0,0,0-0.1,0-0.1c-0.3-0.9-0.6-2-0.9-3
		c-0.5-2-0.8-4.2-0.9-6.6c-1.1-1-2.1-2.1-3.1-3.1c0,3.3,0.3,6.5,0.9,9.3c0.2,1.1,0.5,2.1,0.8,3.2c0.1,0.5,0.3,1,0.5,1.4c0,0,0,0,0,0
		c2,5.4,5.3,9.4,10,10.3c1.9,0.4,3.9,0.2,5.8-0.5c3.3-1.2,6.4-3.8,9-7.4c-1-0.2-2.1-0.5-3.2-0.8C903,48,900.6,49.9,898.4,50.7z"/>
	<path fill="#FFFFFF" d="M911.7,33.2c-0.5,1.5-1.1,2.8-1.7,4.2c-0.9,2-1.9,3.8-2.9,5.4c1.1,0.3,2.1,0.5,3.1,0.7
		c1.5-2.4,2.8-5.1,3.9-8.1c0.5-1.4,1-2.9,1.4-4.4c0.4-1.5,0.8-3.1,1.1-4.7c0.4-2,0.6-3.9,0.8-5.8c-0.4-0.5-0.8-1-1.3-1.5
		c-0.5,0.1-1.1,0.2-1.6,0.3c-0.1,2.1-0.4,4.3-0.8,6.5C913.2,28.3,912.5,30.8,911.7,33.2z"/>
	<path fill="#FFFFFF" d="M883.6,14.9c-0.4,1.5-0.8,3.1-1.1,4.7c-0.4,2-0.6,3.9-0.8,5.8c0.9,1.1,1.8,2.2,2.8,3.2
		c0.1-2.7,0.4-5.6,0.9-8.5c0.5-2.7,1.2-5.2,2-7.6c0.1-0.4,0.3-0.8,0.4-1.1c-0.8-0.7-1.6-1.4-2.4-2.1c-0.1,0.4-0.3,0.8-0.4,1.1
		C884.5,11.9,884,13.4,883.6,14.9z"/>
	<path fill="#FFFFFF" d="M923.7,33.3c0.4,2.9-0.1,5.4-1.4,7.1c-0.9,1.2-2.1,2-3.6,2.6c-2.2,0.8-5.1,1-8.5,0.4
		c-1-0.2-2.1-0.4-3.1-0.7c-1.9-0.5-3.9-1.2-5.9-2.1c-1.4-0.6-2.7-1.3-4.1-2.1c-2.1-1.2-4.3-2.6-6.4-4.2c-2.3-1.8-4.4-3.7-6.3-5.7
		c-1-1.1-1.9-2.1-2.8-3.2c-1.6-2-2.9-3.9-3.9-5.9c-0.5-1-0.9-1.9-1.3-2.9c-0.1-0.1-0.1-0.3-0.2-0.4c-1.7-4.6-1.5-8.4,0.4-10.9
		c0.8-1.1,1.9-1.8,3.3-2.4c-0.6-0.8-1.1-1.7-1.6-2.5c-1.6,0.7-3,1.8-4,3.1c-2.8,3.6-2.8,8.6-0.9,13.7c0,0,0,0,0,0
		c0.2,0.6,0.4,1.1,0.7,1.7c0.4,1,0.9,1.9,1.5,2.9c1.5,2.6,3.4,5.3,5.8,7.9c1,1.1,2,2.1,3.1,3.1c1.4,1.3,2.9,2.6,4.4,3.8
		c1.2,0.9,2.5,1.8,3.7,2.6c1.3,0.9,2.7,1.7,4.1,2.4c2.9,1.6,5.8,2.8,8.5,3.6c1.1,0.3,2.1,0.6,3.2,0.8c4.2,0.9,8.1,0.8,11.3-0.4
		c2-0.7,3.7-1.9,4.9-3.5l1.6-5.7C925.4,35.5,924.5,34.4,923.7,33.3z"/>
	<path fill="#FFFFFF" d="M917.8,20.9c-0.2-0.7-0.4-1.5-0.6-2.2c-0.3,0.1-0.7,0.1-1.1,0.2c0.4,0.5,0.9,1,1.3,1.5
		C917.6,20.5,917.7,20.7,917.8,20.9z"/>
	<path fill="#FFFFFF" d="M901,26.9c2.2-0.8,3.3-3.2,2.5-5.4c-0.8-2.2-3.2-3.3-5.4-2.5c-2.2,0.8-3.3,3.2-2.5,5.4
		C896.4,26.5,898.8,27.7,901,26.9z"/>
	<path fill="#FFFFFF" d="M967.5,64l-0.6,2c-0.2,0.8-1.1,1.3-1.9,1.1l-4-1.1c-0.8-0.2-1.3-1.1-1.1-1.9l0.7-2.6l-14.3-4.1l-0.7,2.6
		c-0.2,0.8-1.1,1.3-1.9,1.1l-4-1.1c-0.8-0.2-1.3-1.1-1.1-1.9l0.6-2c-5.6,0.1-10.6,3.8-12.3,9.5l-2.6,9.1l0.2,0.1l7.9,2.2l-0.2,0.6
		c-1.4,5,1.5,10.2,6.5,11.7l11.6,3.3c5,1.4,10.2-1.5,11.7-6.5l0.2-0.6l7.9,2.3l0.2,0l2.6-9.1C974.6,72.9,972.2,67.1,967.5,64z
		 M958.7,85c-0.9,3.1-4.2,5-7.3,4.1l-11.6-3.3c-3.1-0.9-5-4.2-4.1-7.3l0.2-0.6l23,6.5L958.7,85z"/>
	<path fill="#FFFFFF" d="M979.7,48l9.5-0.8c-0.2-0.5-0.4-1.1-0.7-1.6l-9,0.7l-0.4-4.6l3.9-0.3l-5.9-1.7c-6.3,5.9-14.4,9.5-23.2,9.7
		c-10.9,0.2-20.8-4.8-27.8-13l-1.6,5.7l-6.1,21.5c-1,3.5,0.3,7.2,3,9.3l2.4-8.5c2.1-7.3,8.9-12,16.2-11.8l1-3.6
		c0.2-0.8,1.1-1.3,1.9-1.1l4,1.1c0.8,0.2,1.3,1.1,1.1,1.9l-0.9,3.1l14.3,4.1l0.9-3.1c0.2-0.8,1.1-1.3,1.9-1.1l4,1.1
		c0.8,0.2,1.3,1.1,1.1,1.9l-1,3.5c6.3,3.6,9.7,11.2,7.6,18.5l-2.4,8.5c3.4-0.4,6.5-2.8,7.5-6.3l3-10.6l-2.6,0.2l-0.4-4.6l4.3-0.3
		l0.5-1.6l-4.9,0.4l-0.4-4.6l6.6-0.5l0.5-1.6l-7.2,0.6l-0.4-4.6l8.9-0.7l0.3-1c0.1-0.2,0.1-0.4,0.1-0.6l-9.4,0.8L979.7,48z"/>
	<path fill="#FFFFFF" d="M1147.2,77.3c0.5,0.5,1.1,0.4,1.3-0.2l2.7-6.3l-8.9,1.6L1147.2,77.3z"/>
	<path fill="#FFFFFF" d="M1140.9,54.2c0.6-1.5,1.5-2.4,2.6-2.6c1.2-0.2,2.3,0.4,3.4,1.7c0.1-0.2,0.1-0.3,0.2-0.4l-7.5-48.3
		c-1.9,1.1-3.9,2.1-6,3L1140.9,54.2z"/>
	<path fill="#FFFFFF" d="M1134.2,57.9c0.4-3,1.5-4.9,3.2-5.2c0.7-0.1,1.4,0.1,2.1,0.5l-7.1-45.1c-1.9,0.7-3.8,1.3-5.7,1.8
		L1134.2,57.9z"/>
	<path fill="#FFFFFF" d="M1146.1,4.9l-0.5-3.4l-2.6,3.1l-1.4-1.2c-0.2,0.1-0.4,0.3-0.6,0.4l7,47.5c0.5-0.6,0.9-0.6,1.6-0.8
		c1.1-0.2,2.5,0,3.8,1.8l-6.9-44.7l-1.6-1.3L1146.1,4.9z"/>
	<path fill="#FFFFFF" d="M1153.8,55.6c-1-2-2.3-3.1-4-2.8c-1.2,0.2-2.1,1.6-2.5,3.7c-1.1-1.8-2.4-2.8-3.6-2.6
		c-1.2,0.2-2.1,1.6-2.5,3.7c-1.1-1.8-2.4-2.8-3.6-2.6c-2,0.3-3,3.8-2.7,8.1l0.1,0.4c0.1,0.8,0.7,1.9,1.3,2.5l4.8,5l10.5-1.9l2.7-6.3
		c0.3-0.7,0.5-2,0.3-2.8L1153.8,55.6z"/>
	<polygon fill="#FFFFFF" points="857.7,10.7 866.9,0 860.7,0 854.2,7.5 	"/>
	<polygon fill="#FFFFFF" points="861.8,14.3 874.1,0 868.2,0 858.5,11.4 	"/>
	<polygon fill="#FFFFFF" points="853.3,6.7 859.3,0 854.5,0 850.7,4.4 	"/>
	<path fill="#FFFFFF" d="M845.4,12.9c-0.1,2.3,0.7,4.6,2.6,6.2c3.1,2.7,7.8,2.4,10.5-0.7l2.3-2.5l-4-3.6l-4-3.7l-3.2-2.9l-1.4,1.6
		l-1.1,1.3C846.1,9.9,845.5,11.4,845.4,12.9z"/>
	<path fill="#FFFFFF" d="M841.3,15.7c0.2-0.2,0.1-0.5,0-0.8c-0.1-0.1-0.2-0.3-0.3-0.4l-5.5-3.6c-0.4-0.3-0.9-0.2-1.2,0.2
		c-0.2,0.4-0.1,0.9,0.3,1.2l3.7,2.4l1.8,1.2C840.5,16.1,841.1,16,841.3,15.7z"/>
	<path fill="#FFFFFF" d="M835.9,10.1l5.5,3.7c0.4,0.3,0.9,0.2,1.2-0.2c0.2-0.4,0.1-0.9-0.3-1.2l-5.5-3.6c-0.4-0.3-0.9-0.2-1.2,0.2
		C835.4,9.3,835.5,9.9,835.9,10.1z"/>
	<path fill="#FFFFFF" d="M838.3,8.7l3.5,2.3c0.3,0.2,0.6,0.2,0.9,0.1c0.1-0.1,0.2-0.1,0.3-0.3c0.2-0.4,0.1-0.9-0.3-1.2l-1.6-1
		l-1.9-1.3c-0.4-0.3-0.9-0.2-1.2,0.2C837.8,7.9,837.9,8.4,838.3,8.7z"/>
	<path fill="#FFFFFF" d="M839.7,16.9l-1.7-1.1l-4.2-2.8c-1,2.4-2.8,3.8-5.3,4.3c-2.5,0.5-4.3,0.9-5.3,1.4c-1,0.5-2,1.2-2.9,2.1
		c-0.5,0.5-1,1.1-1.5,1.8c-1.6,2.4-2.1,5.1-1.6,8c0.6,2.9,2.1,5.1,4.5,6.7c0,0,0.1,0,0.1,0c0,0,0.1,0,0.1,0.1c0,0,0,0,0.1,0
		c2.4,1.6,5.1,2.1,8,1.6c2.9-0.6,5.1-2.1,6.7-4.5c0.4-0.7,0.8-1.4,1.1-2.1c0.5-1.2,0.7-2.3,0.8-3.5c0.1-0.8-0.1-2-0.3-3.5
		c-0.1-0.6-0.2-1.2-0.4-1.9C837.3,20.9,837.9,18.7,839.7,16.9z M836.1,32c-1,2.8-2.8,4.9-5.3,5.7c-2.5,0.8-5.3,0.2-7.7-1.4
		c-0.8-0.5-0.6-0.7,0.3-0.4c2.2,0.8,4.6,0.8,6.9,0.1c2.3-0.7,4.1-2.2,5.5-4.1C836.3,31.1,836.4,31.1,836.1,32z"/>
	<path fill="#FFFFFF" d="M1149.2,1.2l-3.1,3.7l-1.2,1.4l1.6,1.3l0.4,0.3l4.3-5c0.5-0.5,1.3-0.6,1.8-0.1c0.5,0.5,0.6,1.3,0.2,1.8
		l-4.3,5l2,1.7l6.2-7.3c0.5-0.5,1.3-0.6,1.8-0.1c0.5,0.5,0.6,1.3,0.1,1.8l-6.2,7.3l2.1,1.7l4.3-5c0.5-0.5,1.3-0.6,1.8-0.2
		c0.5,0.5,0.6,1.3,0.2,1.8l-4.2,5l2,1.7l4.2-5c0.5-0.5,1.3-0.6,1.8-0.2c0.5,0.5,0.6,1.3,0.2,1.8l-4.2,5l1.8,1.5l4.2-5
		c0.5-0.5,1.3-0.6,1.8-0.2c0.5,0.5,0.6,1.3,0.2,1.8l-4.2,5l2,1.7l4.2-5c0.5-0.5,1.3-0.6,1.8-0.2c0.5,0.5,0.6,1.3,0.1,1.8l-4.2,5
		l2,1.7l6.2-7.3c0.5-0.5,1.3-0.6,1.8-0.2c0.5,0.5,0.6,1.3,0.1,1.8l-6.2,7.3l2,1.7l4.2-5c0.5-0.5,1.3-0.6,1.8-0.1
		c0.5,0.5,0.6,1.3,0.1,1.8l-4.2,5l2,1.7l4.2-5c0.5-0.5,1.3-0.6,1.8-0.1c0.5,0.5,0.6,1.3,0.1,1.8l-4.2,5l6.4,5.4
		c1.1,0.9,2.7,0.8,3.6-0.3l6.8-8c0.9-1.1,0.8-2.7-0.3-3.6l-32.2-27.2c-1.8-0.4-3.6-1.1-5.4-2.3h-9.6
		C1149.5,0.4,1149.5,0.9,1149.2,1.2z M1187.3,31.7c0.9-1.1,2.6-1.2,3.7-0.3c1.1,0.9,1.2,2.6,0.3,3.7c-0.9,1.1-2.6,1.2-3.7,0.3
		C1186.5,34.5,1186.3,32.8,1187.3,31.7z"/>
	<path fill="#FFFFFF" d="M1141.6,3.5l1.4,1.2l2.6-3.1l1.3-1.5h-0.6C1144.8,1.2,1143.2,2.4,1141.6,3.5z"/>
	<path fill="#FFFFFF" d="M1176.4,0H1159c1.8,1.1,3.6,1.9,5.4,2.3C1169,3.3,1173.3,2.2,1176.4,0z"/>
	<path fill="#FFFFFF" d="M907.9,76c-0.4-0.3-0.7-0.9-0.7-1.4l0.1-5c0-0.5-0.3-0.7-0.7-0.4l-4.1,2.9c-0.4,0.3-1.1,0.4-1.6,0.2
		l-4.7-1.7c-0.5-0.2-0.7,0.1-0.6,0.5l1.5,4.8c0.2,0.5,0,1.2-0.3,1.5l-3,4c-0.3,0.4-0.1,0.7,0.3,0.7l5,0c0.5,0,1.1,0.3,1.4,0.7
		l2.8,4.1c0.3,0.4,0.6,0.4,0.8-0.1l1.5-4.8c0.2-0.5,0.7-1,1.1-1.1l4.8-1.4c0.5-0.1,0.5-0.5,0.1-0.8L907.9,76z"/>
	<path fill="#FFFFFF" d="M821.7,7.3L838.6,0h-9.5c-0.4,1-1.2,1.8-2.3,2.3l-3.1,1.3c-2.3,1-4.9-0.1-5.9-2.3L817.3,0h-4l2.1,4.8
		C816.4,7.2,819.2,8.3,821.7,7.3z"/>
	<path fill="#FFFFFF" d="M823.1,2.3l3.1-1.3c0.5-0.2,0.9-0.5,1.2-0.9h-8.5l0.3,0.7C819.8,2.2,821.6,2.9,823.1,2.3z"/>
	<path fill="#FFFFFF" d="M1175.7,76.5c-0.2-1.7-0.3-3.5-0.5-5.3c5.7-0.2,9.6-5.5,8-11.4c-1.2-4.3-6-7-10.1-7.2
		c-0.1-0.7-0.8-4.6-1.3-5.7c-2.2-5.4-6.3-6-9.2-4.1c-4.2,2.4-5,7.8-0.4,8.8c5,1.2,6.8-6.4,1.7-7.9c4.4,0.7,7,4.6,7.2,9
		c-9.3,0.9-13.1,8.1-11.2,16.3c2,8.7,12.6,13,14.4,13.8c0.1,0,0.2,1.1,0.3,1.5c0.7,4.4,2.2,15.2,7.2,17.2c9.6,3.7,5.8-11.7,3.2-16.8
		C1182.9,80.9,1179.6,78.2,1175.7,76.5z M1171.5,55.3c0,0,1.4,11.7,1.4,12c-0.7,0.1-1.3-0.1-1.9-0.3c-3.2-0.9-5.3-5.3-2.5-7.7
		c-7.6,3.1-1.4,12.2,4.3,12.1c0,0,0.5,3.4,0.6,4.3C1162.2,72.2,1157,59.5,1171.5,55.3z M1174.3,67.1c-0.1-0.3-0.9-11.6-0.8-11.6
		c5.1,0.4,8.2,5.8,5,9.3C1177.4,66,1176.2,66.9,1174.3,67.1z M1185.4,96.1c-1.3,1.6-3.4,0.8-5-0.9c-2.8-3.6-3.5-7.8-4.4-12
		C1180.6,84.4,1189.4,91.3,1185.4,96.1z"/>
	<polygon fill="#FFFFFF" points="1016,51.4 1014,51.5 1014.3,56.1 1019,55.7 1018.8,53.5 1018.6,51.2 	"/>
	<polygon fill="#FFFFFF" points="1011.1,45.5 989.3,47.3 979.7,48 980.1,52.6 989.5,51.9 1012.2,50.1 1012.1,48.2 1011.9,45.5 	"/>
	<polygon fill="#FFFFFF" points="1018.1,45 1013.5,45.3 1013.8,49.7 1013.8,49.9 1014.1,49.9 1018.5,49.6 	"/>
	<polygon fill="#FFFFFF" points="981.1,65 985.9,64.6 1013.2,62.4 1012.9,57.8 987.3,59.9 980.7,60.4 	"/>
	<polygon fill="#FFFFFF" points="981.6,71.1 984.1,70.9 1019.9,68.1 1019.6,63.5 1015,63.9 1015.3,68.4 1013.7,68.5 1013.4,64 
		985.5,66.2 981.2,66.6 	"/>
	<polygon fill="#FFFFFF" points="980.6,58.8 987.7,58.2 1012.7,56.2 1012.4,51.7 989.1,53.5 980.2,54.2 	"/>
	
		<rect x="1014.7" y="57.5" transform="matrix(-7.956982e-002 -0.9968 0.9968 -7.956982e-002 1038.2585 1078.3058)" fill="#FFFFFF" width="4.6" height="4.6"/>
	<path fill="#FFFFFF" d="M979.2,41.9l0.4,4.6l9-0.7l22.4-1.8l0.8-0.1l-0.3-3.2c-1.2,0.2-2.4,0.4-3.6,0.4c-2.4,0-4.6-0.3-6.8-0.9
		l-18,1.4L979.2,41.9z"/>
	<path fill="#FFFFFF" d="M988.6,31.1l0.1,1.3l-5-0.3c-0.4,0.6-0.8,1.1-1.2,1.7l7.7-0.6C989.7,32.5,989.1,31.8,988.6,31.1z"/>
	<path fill="#FFFFFF" d="M997.7,38.8c-2.2-1.1-4.2-2.5-6-4.1l-10.5,0.8c-0.7,0.9-1.5,1.9-2.3,2.7l0.2,2.1L997.7,38.8z"/>
	<path fill="#FFFFFF" d="M1018,43.4l-0.4-4.6l-0.5,0c-1.3,0.6-2.6,1.1-4,1.5l0.3,3.4L1018,43.4z"/>
	<path fill="#FFFFFF" d="M988.6,31.1c-0.6-0.8-1.1-1.5-1.6-2.3l-1.6,0.1c-0.6,1.1-1.1,2.1-1.8,3.1l5,0.3L988.6,31.1z"/>
	<path fill="#FFFFFF" d="M986.3,27.4c-0.2,0.5-0.5,1-0.8,1.5l1.6-0.1C986.8,28.3,986.5,27.9,986.3,27.4z"/>
	<path fill="#FFFFFF" d="M1221.9,6.4c2,6.4,11.6,10.1,11.3,17c0.9-1.2,1.8-2.4,2.7-3.5c0.1-0.1,0.2-0.3,0.3-0.4
		c3.9-5.1,7.3-10.5,7.3-17.2c0-0.8-0.1-1.5-0.1-2.2h-9.5c1.5,4.2,2.4,8.7,2.1,13.3c-0.6-4.5-2-9-3.7-13.3h-10.6
		C1221.2,2.1,1221.2,4.2,1221.9,6.4z"/>
	<path fill="#FFFFFF" d="M772.8,0.5c2.1,1.6,1.2,2.4-0.4,3c-1.2,0.4-2.7,0.8-3.9,1.3c-0.5,0.2-0.9,0.5-1.2,0.8c0,0,0,0-0.1,0.1
		c0,0,0.1,0,0.1,0c0.8,0.1,2.7,0.2,3.9,0.5c0.6,0.2,1.1,0.4,1.3,0.8c0.4,0.9-0.8,1.9-1.6,2.8c-0.2,0.2-0.4,0.5-0.5,0.7
		c0.2-0.1,0.4-0.2,0.6-0.4c1.1-0.6,2.7-1.3,3.9-1.3c0.7,0,1.2,0.3,1.6,0.8c0.5,0.8,0.3,1.5-0.2,2.1c-0.8,1-2.5,1.6-3.6,2
		c-0.1,0-0.3,0.1-0.4,0.1c0.2,0,0.3,0,0.4,0c1.8-0.1,2.4,0.2,2.3,0.9c0,0.3-0.2,0.7-0.4,1.2c-0.4,0.7-0.9,1.5-1.2,2.3
		c-0.1,0.1-0.1,0.3-0.2,0.4c0.1-0.1,0.2-0.1,0.3-0.2c2-1.1,1.6,1.6,0.9,4.3c-0.5,1.8-1.1,3.5-1.3,4c0.4-0.5,1.7-2.1,3-3.3
		c0.4-0.4,0.8-0.7,1.1-0.9c1.1-0.7,1.9-0.6,1.7,1.4c0.7-2.2,1.5-2.9,2.2-2.7c0.9,0.2,1.8,2,2.2,4.2c0.1-0.8,0.1-1.9,0.2-3.1
		c0.2-2.3,0.5-4.9,1.6-6c2.3-2.3,2.8,2.8,2.6,4.6c1.8-4.5,5.7,0,7.8,2.3c-1.4-3.2-2.3-5.9,2.2-3.6c-0.9-1.7-2.8-2.6-3.4-4.4
		c1.2-0.4,2.5-0.3,3.7,0c0,0,0.1,0,0.1,0c0,0-0.1-0.1-0.1-0.1c-2.4-2.6-5.8-7.6-9.4-8.3c-0.1,0-0.1,0-0.2,0c0.8-0.6,1.6-1.1,2.2-1.4
		c3.8-2.4,7.6-2.7,7.6-3.3c0.1-0.4-4.2-0.8-8.4,1.8c-0.8,0.5-1.8,1.2-2.7,2c0.1-2.1-3-4-4.3-6h-1.1c-0.4,1.2-0.1,2.6,0.3,3.8
		c-1.8-0.8-3.7-2.2-5-3.8h-0.6c0.1,0.9,0.6,1.8,1,2.5C776.1,1.6,774.4,0.9,772.8,0.5z"/>
	<path fill="#FFFFFF" d="M867.1,88.3c11.3-6.8,16.5-16.6,13.8-28.7C869.7,66.5,864.7,77.5,867.1,88.3z"/>
	<path fill="#FFFFFF" d="M870.5,55.8c-11.3,0.2-18,5.5-18.2,13.8C863.7,69.5,870.3,65,870.5,55.8z"/>
	<path fill="#FFFFFF" d="M880,3c1.6,2.3,3.4,4.5,5.4,6.4c0.8,0.7,1.6,1.4,2.4,2.1c0.2,0.2,0.5,0.4,0.7,0.5
		c6.2,4.8,13.8,7.6,21.9,7.4c1.4,0,2.8-0.2,4.1-0.4c0.5-0.1,1.1-0.2,1.6-0.3c0.4-0.1,0.7-0.1,1.1-0.2c0.2,0.8,0.4,1.5,0.6,2.2
		c0.7,2.2,1.5,4.3,2.4,6.4c0.4,0.9,0.9,1.8,1.4,2.7c0.6,1.1,1.3,2.2,2.1,3.3c0.8,1.1,1.6,2.2,2.5,3.3c7,8.2,16.9,13.2,27.8,13
		c8.9-0.2,16.9-3.8,23.2-9.7c0.6-0.5,1.2-1.1,1.7-1.7c0.8-0.9,1.6-1.8,2.3-2.7c0.4-0.6,0.9-1.1,1.3-1.7c0.4-0.6,0.8-1.1,1.2-1.7
		c0.6-1,1.2-2.1,1.8-3.1c0.3-0.5,0.5-1,0.8-1.5c0.2,0.5,0.5,0.9,0.8,1.4c0.5,0.8,1,1.6,1.6,2.3c0.5,0.7,1.1,1.4,1.6,2
		c0.5,0.5,1,1,1.5,1.5c1.8,1.7,3.8,3.1,6,4.1c1.1,0.5,2.2,1,3.4,1.3c2.2,0.7,4.4,1,6.8,0.9c1.2,0,2.4-0.2,3.6-0.4
		c0.5-0.1,1.1-0.2,1.6-0.4c1.4-0.4,2.7-0.9,4-1.5c4.3-2.1,7.9-5.4,10.4-9.6c4.7,7.8,11.7,13.7,19.9,16.5c3.7,1.3,7.6,1.9,11.7,1.9
		c0.2,0,0.4,0,0.6,0c1.2,0,2.4-0.1,3.5-0.3c2-0.3,3.9-0.7,5.7-1.3c3.1-1,6-2.4,8.7-4.2c5-3.4,9.3-8,12.4-13.5
		c0.8-1.4,1.5-2.9,2.2-4.5c1.4-3.4,2.5-7.1,3-10.9c0.3-1.9,0.4-3.8,0.5-5.7c0,0,0,0,0-0.1c4.1,1.9,8.4,3.2,12.9,3.8
		c2.5,0.4,5.1,0.6,7.8,0.5c3.6-0.1,7-0.5,10.3-1.3c2-0.5,3.9-1.1,5.7-1.8c0.4-0.2,0.8-0.3,1.3-0.5c2.1-0.9,4-1.9,6-3
		c0.5-0.3,0.9-0.5,1.4-0.8c0.2-0.1,0.4-0.2,0.6-0.4c1.6-1.1,3.2-2.2,4.7-3.5H878.2c0.1,0.2,0.2,0.3,0.3,0.5
		C878.9,1.3,879.5,2.2,880,3z"/>
</g>
</svg>
