<?xml version="1.0" encoding="utf-8"?>
<!-- Generator: Adobe Illustrator 18.0.0, SVG Export Plug-In . SVG Version: 6.00 Build 0)  -->
<!DOCTYPE svg PUBLIC "-//W3C//DTD SVG 1.1 Tiny//EN" "http://www.w3.org/Graphics/SVG/1.1/DTD/svg11-tiny.dtd">
<svg version="1.1" baseProfile="tiny" id="Camada_1"
	 xmlns="http://www.w3.org/2000/svg" xmlns:xlink="http://www.w3.org/1999/xlink" x="0px" y="0px" viewBox="0 0 895.8 207"
	 xml:space="preserve">
<path fill="#E2DBC4" d="M0,205l13.6-3.4l13,5.4l17.2-11.1l8.7,4.4c0,0,2-6.1,3.3-9.8c0.2-0.5,0.3-1,0.5-1.4c1.1-7,6.1-2,9.3-0.6
	c0.4,0.1,0.7,0.2,1,0.3c1.4,0.1,2.3,0.2,2.3,0.2s3.4,7.2,6.3,2.1c2.8-5.2-1.2,1.7,2.8-5.2c4.1-6.8,13.9-3.2,14.4-5.9
	c0.3-1.7,6.2-2.5,10.5-2.8c0.6,0,1.2-0.1,1.7-0.1c2.7-1.6,3.3,1.1,5.1,1.3c1.7,1.1,4.2,3.1,7,1.6c0.1-0.1,0.3-0.2,0.4-0.4
	c2.2-1.8,6.6-3.2,7.7-5.2c1-1.8,2.4-5.6,3-7.5c0.1-0.4,0.2-0.7,0.3-0.9c2.3-4.4,5.6-0.5,9.4-0.5c0.3,0,0.7,0,1,0c2.3,0,4-0.1,4-0.1
	s11.2,6.7,13.5,4.3c0.2-0.2,0.5-0.5,0.9-0.7c0.1-0.1,0.3-0.2,0.4-0.3c-0.3-0.7,0.6-0.6,1-0.6c0.2-0.1,0.4-0.2,0.6-0.3
	c1.8-1,4.3-2.2,6.7-3.3c4.9-2.3,9.8-4.4,9.8-4.4s3.6,1.2,6.5,2.2c0.2,0,0.3,0,0.5,0c2.4,0.6,5.2-0.1,7.5-0.5c0.1,0,0.3-0.1,0.4-0.1
	c3.4-1.3,7.5-2.9,7.5-2.9s2.2,0.3,4.9,0.8c0.2,0,0.3,0,0.5,0.1c4.4,2,8.1,1.4,11.9-0.2c0.2-0.1,0.3-0.1,0.4-0.2
	c2.6-1.2,5.5-2.6,5.5-2.6s3.1,0.9,5.9,1.7c0.2,0,0.3,0.1,0.5,0.1c3.4-2.7,4.3-1.7,8-2.3c0.1-0.1,0.2-0.2,0.3-0.3
	c5.1-5.2,13.6-13.7,13.6-13.7s6.1,1.1,10.7,1.9c0.2,0,0.3,0.1,0.5,0.1c2.4,1.4,5.3-0.1,7.2-1.2c0.1-0.1,0.2-0.2,0.4-0.3
	c2.7-2,6.1-4.6,6.1-4.6l14.8,0.7c0,0-1.4-13.2,1.4-13c472.4,33.7,577.8-4,595.7-44.4c13.6-30.7,9-74,9-74L31,0L0,205z"/>
<path fill="#E2DBC4" d="M285.8,135.5l14,0.8l10.8,9.1l19.8-5.4l7,6.8c0,0,3.8-5.2,6.1-8.4c0.3-0.5,0.6-0.9,0.9-1.2
	c3.2-6.3,6.4-0.1,9,2.2c0.3,0.2,0.6,0.4,0.9,0.6c1.2,0.5,2.1,0.9,2.1,0.9s1.1,7.9,5.4,3.9c4.3-4.1-1.7,1.2,4.3-4.1
	c6-5.3,14.2,1.1,15.5-1.3c0.8-1.6,6.7-0.5,10.8,0.5c0.6,0.1,1.1,0.3,1.7,0.4c3-0.7,2.8,2.1,4.4,2.8c1.3,1.5,3.1,4.3,6.2,3.7
	c0.2-0.1,0.3-0.1,0.5-0.2c2.6-1.1,7.3-1.1,8.9-2.7c1.5-1.5,3.9-4.6,5.2-6.3c0.2-0.3,0.5-0.6,0.6-0.8c3.5-3.5,5.4,1.2,9.1,2.3
	c0.3,0.1,0.7,0.2,1,0.3c2.2,0.6,3.9,1.1,3.9,1.1s8.6,9.8,11.6,8.2c0.3-0.1,0.6-0.3,1.1-0.4c0.2,0,0.3-0.1,0.5-0.1
	c-0.1-0.8,0.7-0.4,1.2-0.3c0.2,0,0.4-0.1,0.7-0.1c2.1-0.4,4.7-0.8,7.4-1.2c5.4-0.7,10.7-1.3,10.7-1.3s3.1,2.2,5.5,4
	c0.2,0,0.3,0.1,0.4,0.1c2.1,1.3,4.9,1.5,7.3,1.8c0.1,0,0.3,0,0.4,0c3.7-0.2,8-0.5,8-0.5s2,1,4.4,2.2c0.2,0.1,0.3,0.1,0.4,0.2
	c3.6,3.2,7.3,3.8,11.4,3.3c0.2,0,0.3,0,0.5-0.1c2.8-0.4,6.1-0.8,6.1-0.8s2.6,1.8,5.1,3.4c0.1,0.1,0.3,0.2,0.4,0.3
	c4.1-1.5,4.6-0.3,8.3,0.2c0.1-0.1,0.3-0.1,0.4-0.2c6.5-3.4,17.1-9,17.1-9s5.5,2.9,9.6,5c0.1,0.1,0.3,0.1,0.4,0.2
	c1.9,2.1,5.1,1.5,7.3,1c0.1,0,0.3-0.1,0.4-0.1c3.1-1.1,7.2-2.5,7.2-2.5l13.8,5.2c0,0,5.4-9.2,5.2-12c-0.9-20.5-6.1-57.9-6.1-57.9
	L304.2,77.4L285.8,135.5z"/>
<path fill="#E2DBC4" d="M573.8,154.5l14,0.8l10.8,9.1l19.8-5.4l7,6.8c0,0,3.8-5.2,6.1-8.4c0.3-0.5,0.6-0.9,0.9-1.2
	c3.2-6.3,6.4-0.1,9,2.2c0.3,0.2,0.6,0.4,0.9,0.6c1.2,0.5,2.1,0.9,2.1,0.9s1.1,7.9,5.4,3.9c4.3-4.1-1.7,1.2,4.3-4.1
	c6-5.3,14.2,1.1,15.5-1.3c0.8-1.6,6.7-0.5,10.8,0.5c0.6,0.1,1.1,0.3,1.7,0.4c3-0.7,2.8,2.1,4.4,2.8c1.3,1.5,3.1,4.3,6.2,3.7
	c0.2-0.1,0.3-0.1,0.5-0.2c2.6-1.1,7.3-1.1,8.9-2.7c1.5-1.5,3.9-4.6,5.2-6.3c0.2-0.3,0.5-0.6,0.6-0.8c3.5-3.5,5.4,1.2,9.1,2.3
	c0.3,0.1,0.7,0.2,1,0.3c2.2,0.6,3.9,1.1,3.9,1.1s8.6,9.8,11.6,8.2c0.3-0.1,0.6-0.3,1.1-0.4c0.2,0,0.3-0.1,0.5-0.1
	c-0.1-0.8,0.7-0.4,1.2-0.3c0.2,0,0.4-0.1,0.7-0.1c2.1-0.4,4.7-0.8,7.4-1.2c5.4-0.7,10.7-1.3,10.7-1.3s3.1,2.2,5.5,4
	c0.2,0,0.3,0.1,0.4,0.1c2.1,1.3,4.9,1.5,7.3,1.8c0.1,0,0.3,0,0.4,0c3.7-0.2,8-0.5,8-0.5s2,1,4.4,2.2c0.2,0.1,0.3,0.1,0.4,0.2
	c3.6,3.2,7.3,3.8,11.4,3.3c0.2,0,0.3,0,0.5-0.1c2.8-0.4,6.1-0.8,6.1-0.8s2.6,1.8,5.1,3.4c0.1,0.1,0.3,0.2,0.4,0.3
	c4.1-1.5,4.6-0.3,8.3,0.2c0.1-0.1,0.3-0.1,0.4-0.2c6.5-3.4,17.1-9,17.1-9s5.5,2.9,9.6,5c0.1,0.1,0.3,0.1,0.4,0.2
	c1.9,2.1,5.1,1.5,7.3,1c0.1,0,0.3-0.1,0.4-0.1c3.1-1.1,7.2-2.5,7.2-2.5l13.8,5.2c0,0,5.4-9.2,5.2-12C873.7,145.7,892,62,892,62
	L592.2,96.4L573.8,154.5z"/>
<path fill="#FFFFFF" d="M0,188.2l13.6-3.1l13,5l17.2-10.2l8.7,4c0,0,2-5.6,3.3-9c0.2-0.5,0.3-0.9,0.5-1.3c1.1-6.4,6.1-1.8,9.3-0.6
	c0.4,0.1,0.7,0.2,1,0.3c1.4,0.1,2.3,0.2,2.3,0.2s3.4,6.6,6.3,1.9c2.8-4.7-1.2,1.5,2.8-4.7c4.1-6.3,13.9-2.9,14.4-5.5
	c0.3-1.6,6.2-2.3,10.5-2.6c0.6,0,1.2-0.1,1.7-0.1c2.7-1.5,3.3,1.1,5.1,1.2c1.7,1,4.2,2.9,7,1.5c0.1-0.1,0.3-0.2,0.4-0.3
	c2.2-1.7,6.6-3,7.7-4.8c1-1.7,2.4-5.1,3-6.9c0.1-0.4,0.2-0.7,0.3-0.9c2.3-4,5.6-0.4,9.4-0.5c0.3,0,0.7,0,1,0c2.3,0,4-0.1,4-0.1
	s11.2,6.2,13.5,3.9c0.2-0.2,0.5-0.4,0.9-0.7c0.1-0.1,0.3-0.2,0.4-0.3c-0.3-0.6,0.6-0.6,1-0.6c0.2-0.1,0.4-0.2,0.6-0.3
	c1.8-0.9,4.3-2,6.7-3.1c4.9-2.1,9.8-4.1,9.8-4.1s3.6,1.1,6.5,2c0.2,0,0.3,0,0.5,0c2.4,0.5,5.2,0,7.5-0.5c0.1,0,0.3-0.1,0.4-0.1
	c3.4-1.2,7.5-2.7,7.5-2.7s2.2,0.3,4.9,0.7c0.2,0,0.3,0,0.5,0.1c4.4,1.8,8.1,1.3,11.9-0.2c0.2-0.1,0.3-0.1,0.4-0.2
	c2.6-1.1,5.5-2.4,5.5-2.4s3.1,0.8,5.9,1.6c0.2,0,0.3,0.1,0.5,0.1c3.4-2.5,4.3-1.6,8-2.1c0.1-0.1,0.2-0.2,0.3-0.3
	c5.1-4.8,13.6-12.6,13.6-12.6s6.1,1,10.7,1.7c0.2,0,0.3,0,0.5,0.1c2.4,1.3,5.3-0.1,7.2-1.1c0.1-0.1,0.2-0.2,0.4-0.2
	c2.7-1.8,6.1-4.2,6.1-4.2l14.8,0.7c0,0-1.4-12.1,1.4-11.9C762.7,146,868.1,111.5,886,74.3c13.6-28.1,9-67.9,9-67.9L31,0L0,188.2z"/>
<path fill="#FFFFFF" d="M285.8,124.4l14,0.8l10.8,8.3l19.8-5l7,6.2c0,0,3.8-4.8,6.1-7.7c0.3-0.4,0.6-0.8,0.9-1.1
	c3.2-5.8,6.4-0.1,9,2c0.3,0.2,0.6,0.4,0.9,0.5c1.2,0.5,2.1,0.8,2.1,0.8s1.1,7.3,5.4,3.5c4.3-3.7-1.7,1.1,4.3-3.7
	c6-4.8,14.2,1,15.5-1.2c0.8-1.4,6.7-0.5,10.8,0.4c0.6,0.1,1.1,0.3,1.7,0.4c3-0.7,2.8,1.9,4.4,2.6c1.3,1.4,3.1,3.9,6.2,3.4
	c0.2-0.1,0.3-0.1,0.5-0.2c2.6-1,7.3-1,8.9-2.5c1.5-1.3,3.9-4.2,5.2-5.7c0.2-0.3,0.5-0.6,0.6-0.7c3.5-3.2,5.4,1.1,9.1,2.1
	c0.3,0.1,0.7,0.2,1,0.3c2.2,0.6,3.9,1,3.9,1s8.6,9,11.6,7.5c0.3-0.1,0.6-0.3,1.1-0.4c0.2,0,0.3-0.1,0.5-0.1
	c-0.1-0.7,0.7-0.4,1.2-0.3c0.2,0,0.4-0.1,0.7-0.1c2.1-0.4,4.7-0.8,7.4-1.1c5.4-0.7,10.7-1.2,10.7-1.2s3.1,2,5.5,3.7
	c0.2,0,0.3,0.1,0.4,0.1c2.1,1.2,4.9,1.4,7.3,1.6c0.1,0,0.3,0,0.4,0c3.7-0.2,8-0.5,8-0.5s2,0.9,4.4,2c0.2,0.1,0.3,0.1,0.4,0.2
	c3.6,2.9,7.3,3.5,11.4,3.1c0.2,0,0.3,0,0.5,0c2.8-0.3,6.1-0.7,6.1-0.7s2.6,1.6,5.1,3.2c0.1,0.1,0.3,0.2,0.4,0.3
	c4.1-1.4,4.6-0.3,8.3,0.2c0.1-0.1,0.3-0.1,0.4-0.2c6.5-3.1,17.1-8.3,17.1-8.3s5.5,2.6,9.6,4.6c0.1,0.1,0.3,0.1,0.4,0.2
	c1.9,1.9,5.1,1.4,7.3,0.9c0.1,0,0.3-0.1,0.4-0.1c3.1-1,7.2-2.3,7.2-2.3l13.8,4.7c0,0,5.4-8.4,5.2-11c-0.9-18.8-6.1-53.2-6.1-53.2
	L304.2,71L285.8,124.4z"/>
<path fill="#FFFFFF" d="M573.8,141.8l14,0.8l10.8,8.3l19.8-5l7,6.2c0,0,3.8-4.8,6.1-7.7c0.3-0.4,0.6-0.8,0.9-1.1
	c3.2-5.8,6.4-0.1,9,2c0.3,0.2,0.6,0.4,0.9,0.5c1.2,0.5,2.1,0.8,2.1,0.8s1.1,7.3,5.4,3.5c4.3-3.7-1.7,1.1,4.3-3.7
	c6-4.8,14.2,1,15.5-1.2c0.8-1.4,6.7-0.5,10.8,0.4c0.6,0.1,1.1,0.3,1.7,0.4c3-0.7,2.8,1.9,4.4,2.6c1.3,1.4,3.1,3.9,6.2,3.4
	c0.2-0.1,0.3-0.1,0.5-0.2c2.6-1,7.3-1,8.9-2.5c1.5-1.3,3.9-4.2,5.2-5.7c0.2-0.3,0.5-0.6,0.6-0.7c3.5-3.2,5.4,1.1,9.1,2.1
	c0.3,0.1,0.7,0.2,1,0.3c2.2,0.6,3.9,1,3.9,1s8.6,9,11.6,7.5c0.3-0.1,0.6-0.3,1.1-0.4c0.2,0,0.3-0.1,0.5-0.1
	c-0.1-0.7,0.7-0.4,1.2-0.3c0.2,0,0.4-0.1,0.7-0.1c2.1-0.4,4.7-0.8,7.4-1.1c5.4-0.7,10.7-1.2,10.7-1.2s3.1,2,5.5,3.7
	c0.2,0,0.3,0.1,0.4,0.1c2.1,1.2,4.9,1.4,7.3,1.6c0.1,0,0.3,0,0.4,0c3.7-0.2,8-0.5,8-0.5s2,0.9,4.4,2c0.2,0.1,0.3,0.1,0.4,0.2
	c3.6,2.9,7.3,3.5,11.4,3.1c0.2,0,0.3,0,0.5,0c2.8-0.3,6.1-0.7,6.1-0.7s2.6,1.6,5.1,3.2c0.1,0.1,0.3,0.2,0.4,0.3
	c4.1-1.4,4.6-0.3,8.3,0.2c0.1-0.1,0.3-0.1,0.4-0.2c6.5-3.1,17.1-8.3,17.1-8.3s5.5,2.6,9.6,4.6c0.1,0.1,0.3,0.1,0.4,0.2
	c1.9,1.9,5.1,1.4,7.3,0.9c0.1,0,0.3-0.1,0.4-0.1c3.1-1,7.2-2.3,7.2-2.3l13.8,4.7c0,0,5.4-8.4,5.2-11c-0.9-18.8,17.5-95.6,17.5-95.6
	L592.2,88.5L573.8,141.8z"/>
</svg>
