<?xml version="1.0" encoding="utf-8"?>
<!-- Generator: Adobe Illustrator 18.0.0, SVG Export Plug-In . SVG Version: 6.00 Build 0)  -->
<!DOCTYPE svg PUBLIC "-//W3C//DTD SVG 1.1//EN" "http://www.w3.org/Graphics/SVG/1.1/DTD/svg11.dtd">
<svg version="1.1" id="Camada_1" xmlns="http://www.w3.org/2000/svg" xmlns:xlink="http://www.w3.org/1999/xlink" x="0px" y="0px"
	 viewBox="0 0 220 87.3" enable-background="new 0 0 220 87.3" xml:space="preserve">
<g id="Camada_1">
	<g>
		<g>
			<path fill="#F7F6DD" d="M24.2,69.4c-0.7,0-1.4,0-2.1,0c-0.6,0.1-1.3,0.2-1.9,0.3c-0.1,5.2-2.7,9.9-6.7,12.9
				c1.1,1.6,2.6,2.8,4.3,3.7l0.4-0.1C21.5,81.4,23.6,75.6,24.2,69.4z"/>
			<path fill="#F7F6DD" d="M28.2,75.8c0-0.2,0-0.3-0.1-0.5c-0.2-1.7,0-3.4,0.3-5c-0.8-0.3-1.7-0.5-2.6-0.7
				c-0.3,3.8-1.2,7.5-2.7,10.9C24.4,78.6,26.2,77,28.2,75.8z"/>
			<path fill="#F7F6DD" d="M21.8,83.6c-0.4,0.8-0.9,1.6-1.3,2.3l0.9-0.1C21.4,85.1,21.6,84.3,21.8,83.6z"/>
			<path fill="#F7F6DD" d="M11.9,74.8c-0.3,0.3-0.5,0.7-0.8,1c0,0.2,0,0.4,0,0.5c0.2,1.8,0.7,3.4,1.4,4.8c0.9-0.7,1.7-1.4,2.4-2.3
				c2-2.4,3.2-5.4,3.4-8.6C15.8,71.2,13.6,72.7,11.9,74.8z"/>
			<path fill="#F7F6DD" d="M11.3,72.9c1.9-2,4.3-3.6,7.1-4.4c0-0.1,0-0.2,0-0.3c-0.1-1.4-0.4-2.7-0.9-3.9
				C14.3,66.1,12,69.2,11.3,72.9z"/>
			<path fill="#F7F6DD" d="M26,67.9c1,0.2,2,0.4,3,0.7c0.5-1.4,1.1-2.7,1.9-3.8c-1.5-1-3.2-1.7-5-2c0,0.1,0,0.2,0,0.4
				C26,64.8,26,66.3,26,67.9z"/>
			<path fill="#F7F6DD" d="M33,72.9c-0.9-0.7-1.9-1.4-2.9-1.9c-0.3,1.3-0.3,2.6-0.2,3.9c1.3-0.6,2.6-1,4.1-1.2
				C33.6,73.4,33.3,73.2,33,72.9z"/>
			<path fill="#F7F6DD" d="M34.5,68.8c-0.6-1.1-1.4-2-2.3-2.9c-0.7,1.1-1.3,2.2-1.7,3.4c2.1,1,4,2.4,5.5,4.2c0,0,0,0,0,0
				C35.3,72,34.8,70.4,34.5,68.8z"/>
			<path fill="#F7F6DD" d="M21.9,67.8c0.8-0.1,1.6-0.1,2.4,0c0.1-1.5,0-2.9-0.1-4.4c0-0.2,0-0.5-0.1-0.7c-0.5,0-1,0-1.5,0
				c-1.3,0.1-2.5,0.4-3.6,0.8c0.6,1.4,0.9,2.9,1.1,4.5C20.7,67.9,21.3,67.8,21.9,67.8z"/>
			<path fill="#F7F6DD" d="M209.2,86c-1.4-0.7-3-1-4.6-1c-0.5,0.6-1,1.1-1.7,1.5c0.6,0.2,1.3,0.5,1.9,0.8h3.4
				C208.5,86.9,208.9,86.4,209.2,86z"/>
			<path fill="#F7F6DD" d="M210,87.3h1.2c-0.3-0.2-0.5-0.4-0.8-0.6C210.3,86.9,210.1,87.1,210,87.3z"/>
			<path fill="#F7F6DD" d="M7,84.8l0.2-0.4c0.4-0.9-0.1-1.9-1-2.3c-0.9-0.4-1.9,0.1-2.3,1l-1.6,4.2H4L5.2,84L7,84.8z"/>
			<path fill="#F7F6DD" d="M20.4,87.3h0.8c0,0,0-0.1,0-0.1L20.4,87.3z"/>
			<polygon fill="#F7F6DD" points="5.9,85.7 5.3,87.3 10,87.3 			"/>
			<path fill="#F7F6DD" d="M21.3,85.8L20.4,86l-2.2,0.3l-0.4,0.1l-4.8,0.7l-6-2.3L5.2,84L4,87.3h1.4l0.6-1.6l4,1.6h10.4l0.8-0.1
				C21.2,86.7,21.2,86.3,21.3,85.8z"/>
			<path fill="#F7F6DD" d="M107.3,33.5c-0.5-0.5-1-1-1.4-1.6l3.3-0.3l0.2,2.6c0.2-0.1,0.4-0.1,0.6-0.2l-0.2-2.5l3.4-0.3
				c-0.3,0.7-0.6,1.3-1,1.8c-0.1,0.2-0.3,0.4-0.5,0.5c0.3-0.1,0.6-0.1,1-0.2c0.5-0.7,0.9-1.4,1.2-2.3l1.8-0.2
				c-0.2,0.4-0.4,0.7-0.7,1c-0.4,0.5-0.8,0.9-1.3,1.2c0.6-0.1,1.1-0.1,1.7-0.2c1.6-1.7,2.6-4.1,2.3-6.7c-0.4-4.7-4.6-8.1-9.3-7.7
				c-4.7,0.4-8.2,4.6-7.7,9.3c0.3,3.4,2.6,6.2,5.7,7.3c0.7-0.3,1.4-0.6,2.2-0.8C108.1,34.2,107.6,33.9,107.3,33.5z M105.5,31.3
				c-0.5-1-0.9-2.1-1.1-3.3l4.3-0.4l0.3,3.4L105.5,31.3z M109,23.6l3.8-0.3c0.5,1,0.9,2.1,1,3.3l-4.5,0.4L109,23.6z M113.4,30.6
				l-3.7,0.3l-0.3-3.4l4.5-0.4C113.9,28.4,113.8,29.5,113.4,30.6z M116,30.3l-1.9,0.2c0.3-1.1,0.5-2.2,0.4-3.4l2.2-0.2
				C116.7,28.1,116.5,29.3,116,30.3z M115.4,23c0.6,1,1.1,2.1,1.2,3.3l-2.2,0.2c-0.1-1.2-0.5-2.3-1-3.3L115.4,23z M114,21.4
				c0.4,0.3,0.7,0.7,1,1l-1.9,0.2c-0.5-0.8-1-1.5-1.7-2.1c-0.3-0.3-0.6-0.5-1-0.7C111.8,20,113,20.6,114,21.4z M109.1,19.7
				c0.7,0.3,1.4,0.8,2,1.3c0.5,0.5,1,1.1,1.4,1.7L109,23l-0.3-3.3C108.8,19.7,108.9,19.7,109.1,19.7z M108.7,27l-4.3,0.4
				c-0.1-1.2,0.1-2.4,0.4-3.4l3.6-0.3L108.7,27z M107.8,19.8c0.1,0,0.2,0,0.2,0l0.3,3.3l-3.3,0.3c0.3-0.7,0.6-1.3,1.1-1.9
				C106.6,20.8,107.2,20.2,107.8,19.8z M103.3,22.4c0.8-1,1.9-1.8,3.1-2.2c-0.3,0.3-0.6,0.6-0.8,0.9c-0.5,0.7-1,1.5-1.3,2.4
				l-1.9,0.2C102.7,23.2,103,22.8,103.3,22.4z M102.2,24.2l2-0.2c-0.3,1.1-0.4,2.2-0.4,3.4l-2.2,0.2
				C101.5,26.5,101.7,25.3,102.2,24.2z M103,31.5c-0.7-0.9-1.1-2-1.3-3.3l2.2-0.2c0.2,1.2,0.5,2.3,1,3.3L103,31.5z M103.4,32.1
				l1.8-0.2c0.5,0.8,1,1.4,1.6,2c0.2,0.2,0.5,0.4,0.8,0.6c-1.2-0.2-2.4-0.8-3.3-1.6C104,32.7,103.7,32.4,103.4,32.1z"/>
			<path fill="#F7F6DD" d="M117.9,33c2.3-3.5,2.4-8.2-0.1-11.8c-0.1-0.2-0.2-0.4-0.4-0.5c-2.2-2.8-5.4-4.2-8.7-4.1l0,0.5
				c-0.4,0.1-0.8,0.2-1.2,0.3l0,0.4c3.3-0.5,6.7,0.8,8.9,3.6c0.1,0.2,0.2,0.3,0.3,0.5c2.4,3.4,2.1,8-0.4,11.1c0.2,0,0.4,0,0.7,0
				C117.5,33,117.7,33,117.9,33z"/>
			<path fill="#F7F6DD" d="M108.8,16.7l-0.1-1.3l-1.2,0.1l0.2,1.9c0,0,0,0,0,0c0.4-0.1,0.8-0.2,1.2-0.3L108.8,16.7z"/>
			<path fill="#F7F6DD" d="M131.7,37.1c1.2,0.7,2.3,1.6,3.3,2.5c1.7-0.4,2.8-1.1,2.8-2c0-0.1,0-0.1,0-0.2l0,0.3L131.7,37.1z"/>
			<path fill="#F7F6DD" d="M131.7,37.1l6.1,0.5l0-0.3l0.4-4.7l-5,1.7c-0.5,0.2-1.1,0.2-1.8,0.2c-0.6-0.1-1.3-0.2-1.7-0.5l-4.9-2.6
				l-0.2,2.6C127.1,34.7,129.5,35.8,131.7,37.1z"/>
			<path fill="#F7F6DD" d="M142.8,29.2l-9.1-3.7c-0.8-0.3-2.2-0.4-3-0.3l-9.6,2.1c-0.9,0.2-0.9,0.7-0.2,1.1l9.1,4.9
				c0.8,0.4,2.1,0.5,2.9,0.3l8.7-2.9l0-0.6l1.6-0.4l-0.1,0.3C143.5,29.8,143.4,29.5,142.8,29.2z"/>
			<polygon fill="#F7F6DD" points="141.6,30.1 141.6,30.7 141.3,36.5 143.2,30.1 143.2,29.8 			"/>
			<path fill="#F7F6DD" d="M96.8,29.2l0.1-0.2c0.4-1.5-0.5-3.1-2-3.5l-3.5-0.9c-1.5-0.4-3.1,0.5-3.5,2l-0.1,0.2l-2.4-0.6l0,0
				l-0.7,2.8c-0.5,1.7,0.3,3.5,1.7,4.4l0.2-0.6c0.1-0.2,0.3-0.4,0.6-0.3l1.2,0.3c0.2,0.1,0.4,0.3,0.3,0.6L88.4,34l4.4,1.2l0.2-0.8
				c0.1-0.2,0.3-0.4,0.6-0.3l1.2,0.3c0.3,0.1,0.4,0.3,0.3,0.6l-0.2,0.6c1.7-0.1,3.2-1.2,3.7-2.9l0.7-2.8l0,0L96.8,29.2z M95.8,28.7
				l-0.1,0.2l-7-1.9l0.1-0.2c0.3-1,1.2-1.5,2.2-1.3l3.5,0.9C95.5,26.8,96.1,27.8,95.8,28.7z"/>
			<path fill="#F7F6DD" d="M81,37.7c0.6-0.1,1.1-0.1,1.7-0.1c5.4,0,10.1,2.5,12.9,6.2c0.1,0,0.1,0,0.2,0c1-1.5,2.2-2.9,3.5-4.1
				l1.8-6.7c0.3-1.1-0.1-2.2-1-2.8l-0.7,2.6c-0.6,2.2-2.6,3.7-4.8,3.6l-0.3,1.1c-0.1,0.2-0.3,0.4-0.6,0.3l-1.2-0.3
				c-0.3-0.1-0.4-0.3-0.3-0.6l0.3-0.9l-4.3-1.2l-0.3,0.9c-0.1,0.2-0.3,0.4-0.6,0.3l-1.2-0.3c-0.2-0.1-0.4-0.3-0.3-0.6l0.3-1.1
				c-1.9-1.1-3-3.3-2.4-5.6l0.7-2.6c-1,0.1-2,0.9-2.2,2l-0.8,2.9C82.5,32.9,82.2,35.4,81,37.7z"/>
			<path fill="#F7F6DD" d="M11.9,53.3l-2.3,1.1c-0.2,0.1-0.3,0.3-0.1,0.5l1.9,1.7L11.9,53.3z"/>
			<path fill="#F7F6DD" d="M18.6,54.7c-0.1,0-0.1,0.1-0.2,0.1c0.5,0.4,0.7,0.8,0.6,1.3c-0.1,0.4-0.4,0.7-0.9,1l17.4,2.4
				c0.3-0.8,0.7-1.5,1.1-2.2L18.6,54.7z"/>
			<path fill="#F7F6DD" d="M18.5,57.6c0.2,0.3,0.2,0.5,0.2,0.8c-0.1,0.6-0.8,1.1-1.9,1.2L34.7,62c0.2-0.7,0.4-1.4,0.6-2.1L18.5,57.6
				z"/>
			<path fill="#F7F6DD" d="M36.6,55.9l1.1-1l-1.3-0.2L36,55.2l-0.5-0.6l-16.7-2.3c0.7,0.5,0.7,1,0.7,1.4c0,0.3,0,0.4-0.3,0.6
				l17.7,2.3c0-0.1,0.1-0.1,0.1-0.2L36.6,55.9z"/>
			<path fill="#F7F6DD" d="M17.5,52.3L15.9,52c-0.3,0-0.8,0-1,0.1l-2.3,1.1l-0.6,3.9l1.9,1.7c0.2,0.2,0.6,0.4,0.9,0.5l0.2,0
				c1.6,0.1,2.9-0.3,3-1.1c0.1-0.5-0.3-0.9-1-1.3c0.8-0.2,1.3-0.5,1.3-1c0.1-0.5-0.3-0.9-1-1.3c0.8-0.2,1.3-0.5,1.3-1
				C18.7,53.1,18.3,52.6,17.5,52.3z"/>
			<path fill="#F7F6DD" d="M204.6,85c0.2-0.3,0.4-0.6,0.6-0.9c1.6-3.1-2.5-4-0.1-6.6c2.2-2.4,5-2.4,4.7-5.8
				c-0.8-10.1-20.8-5.8-23.1,3.9c0,0.1,0,0.3,0,0.4c0,0.7-0.1,1.5-0.2,2.2c0,0.2,0,0.4,0.1,0.6c3.9,0.9,7.3,2.9,10,5.4
				c-0.1-0.7,0.4-1.3,1.2-1.5c0.8-0.1,1.5,0.3,1.7,1c0.1,0.7-0.4,1.4-1.2,1.6c-0.2,0-0.4,0-0.6,0c0.6,0.6,1,1.3,1.5,2h1.8
				c0.7-0.2,1.4-0.4,2-0.8C203.6,86.1,204.1,85.6,204.6,85z M190.7,79.4c-0.8,0.1-1.5-0.3-1.7-1c-0.1-0.7,0.4-1.4,1.2-1.6
				c0.8-0.1,1.5,0.3,1.7,1C192,78.6,191.5,79.3,190.7,79.4z M192.5,75c-0.8,0.1-1.5-0.3-1.7-1c-0.1-0.7,0.4-1.4,1.2-1.6
				c0.8-0.1,1.5,0.3,1.7,1C193.8,74.2,193.3,74.9,192.5,75z M196.1,71.4c-0.8,0.1-1.5-0.3-1.7-1c-0.1-0.7,0.4-1.4,1.2-1.6
				c0.8-0.1,1.5,0.3,1.7,1C197.5,70.6,196.9,71.3,196.1,71.4z M205.1,69c1.3-0.2,2.6,0.5,2.8,1.7c0.2,1.2-0.7,2.4-2,2.6
				c-1.3,0.2-2.6-0.5-2.8-1.7C202.9,70.4,203.8,69.2,205.1,69z"/>
			<path fill="#F7F6DD" d="M74.6,39.7c-0.1-0.2-0.1-0.4,0-0.7c0.1-0.7,0.8-1.1,1.4-1c0.4,0.1,0.6,0.3,0.8,0.7c1.4-0.5,2.8-0.9,4.3-1
				c1.2-2.3,1.5-4.8,0.3-6.8c-0.1-0.2-0.3-0.4-0.4-0.6c-1.9-2.3-4,0.7-5.3-2.1c-1.2-2.6-0.3-4.7-3.1-5.7
				c-9.1-2.9-12.1,18.1-2.2,20.9C71.4,41.9,72.9,40.7,74.6,39.7z M77.3,35.8c0.1-0.7,0.8-1.1,1.4-1c0.6,0.1,1,0.8,0.9,1.5
				c-0.1,0.7-0.8,1.1-1.4,1C77.6,37.2,77.2,36.5,77.3,35.8z M68.7,25.4c0.2-1.1,1.3-1.9,2.3-1.7c1,0.2,1.7,1.3,1.5,2.4
				c-0.2,1.1-1.3,1.9-2.3,1.7C69.1,27.6,68.5,26.5,68.7,25.4z M66.3,34.4c-0.6-0.1-1-0.8-0.9-1.5c0.1-0.7,0.8-1.1,1.4-1
				c0.6,0.1,1,0.8,0.9,1.5C67.6,34,66.9,34.5,66.3,34.4z M69.4,37.5c-0.1,0.7-0.8,1.1-1.4,1c-0.6-0.1-1-0.8-0.9-1.5
				c0.1-0.7,0.8-1.1,1.4-1C69.1,36.2,69.5,36.8,69.4,37.5z M70.1,39.9c0.1-0.7,0.8-1.1,1.4-1c0.6,0.1,1,0.8,0.9,1.5
				c-0.1,0.7-0.8,1.1-1.4,1C70.3,41.2,69.9,40.6,70.1,39.9z"/>
			<path fill="#F7F6DD" d="M62,37.6c0.4-1.2,0.5-2.1,0.5-2.7c0-0.6-0.1-1.2-0.3-1.8c-0.1-0.4-0.3-0.7-0.5-1.1
				c-0.7-1.3-1.8-2.1-3.2-2.5c-1.4-0.4-2.8-0.2-4.1,0.5c0,0,0,0,0,0c0,0,0,0,0,0c0,0,0,0,0,0c-1.3,0.7-2.1,1.8-2.5,3.2
				c-0.4,1.4-0.2,2.8,0.5,4c0.2,0.3,0.4,0.7,0.7,1c0.4,0.5,0.9,0.8,1.4,1.1c0.5,0.3,1.4,0.6,2.6,0.9c1.3,0.3,2.1,1.1,2.5,2.3
				l3.1-1.8C61.9,40,61.6,38.8,62,37.6z M61.2,33.3c-0.6-1-1.5-1.8-2.6-2.2c-1.1-0.4-2.3-0.5-3.5-0.2c-0.5,0.1-0.5,0-0.1-0.2
				c1.3-0.8,2.7-1,3.9-0.5c1.2,0.5,2.1,1.6,2.5,3C61.5,33.7,61.4,33.7,61.2,33.3z"/>
			<path fill="#F7F6DD" d="M63.2,42c0.2-0.1,0.3-0.4,0.2-0.6c-0.1-0.2-0.4-0.2-0.6-0.1L59.9,43c-0.2,0.1-0.3,0.4-0.2,0.6
				c0.1,0.2,0.4,0.2,0.6,0.1L63.2,42z"/>
			<path fill="#F7F6DD" d="M63.3,42.2l-2.9,1.7c-0.2,0.1-0.3,0.4-0.2,0.6c0.1,0.2,0.4,0.2,0.6,0.1l2.9-1.7c0.2-0.1,0.3-0.4,0.2-0.6
				C63.8,42.1,63.5,42,63.3,42.2z"/>
			<path fill="#F7F6DD" d="M63.2,43.3l-1.8,1.1c-0.2,0.1-0.3,0.4-0.2,0.6c0.1,0.2,0.4,0.2,0.6,0.1l1.8-1.1c0.2-0.1,0.3-0.4,0.2-0.6
				C63.7,43.2,63.5,43.2,63.2,43.3z"/>
			<path fill="#F7F6DD" d="M185.1,66.3c-0.2-0.2-0.5-0.2-0.6,0c-0.1,0.2-0.1,0.4,0.1,0.6l2.6,2.2c0.2,0.2,0.5,0.2,0.6,0
				c0.1-0.2,0.1-0.4-0.1-0.6L185.1,66.3z"/>
			<path fill="#F7F6DD" d="M184.4,67.1c-0.2-0.2-0.5-0.2-0.6,0c-0.1,0.2-0.1,0.4,0.1,0.6l2.6,2.2c0.2,0.2,0.5,0.2,0.6,0
				c0.1-0.2,0.1-0.4-0.1-0.6L184.4,67.1z"/>
			<path fill="#F7F6DD" d="M185.9,70.3c0.1-0.2,0.1-0.4-0.1-0.6l-1.6-1.4c-0.1-0.1-0.1-0.1-0.2-0.1c0.5,0.7,1,1.4,1.4,2.2
				C185.6,70.5,185.8,70.4,185.9,70.3z"/>
			<path fill="#F7F6DD" d="M195.7,56.6C195.7,56.6,195.7,56.6,195.7,56.6C195.6,56.6,195.6,56.6,195.7,56.6
				c-1.2-1.1-2.6-1.5-4.1-1.4c-1.5,0.1-2.8,0.8-3.8,1.9c-0.3,0.3-0.5,0.6-0.7,1c-0.3,0.6-0.5,1.2-0.6,1.7c-0.1,0.6-0.1,1.5,0,2.9
				c0.1,1.3-0.3,2.4-1.4,3.2l2.8,2.4c0.7-1.2,1.7-1.8,3-1.9c1.3-0.1,2.3-0.2,2.8-0.4c0.6-0.2,1.1-0.5,1.6-0.9
				c0.3-0.2,0.6-0.5,0.9-0.8c1-1.2,1.4-2.5,1.3-4C197.5,58.9,196.9,57.7,195.7,56.6C195.7,56.7,195.7,56.6,195.7,56.6z M197.1,61
				c-0.1,1.4-0.9,2.6-2.1,3.5c-0.4,0.3-0.4,0.2-0.1-0.2c0.8-0.9,1.2-2.1,1.3-3.3c0.1-1.2-0.3-2.4-1-3.4c-0.3-0.4-0.2-0.5,0.2-0.2
				C196.5,58.3,197.2,59.6,197.1,61z"/>
			<path fill="#F7F6DD" d="M154.7,48.9c0.4-0.1,0.9-0.2,1.3-0.3l0-0.4c-0.6,0.1-1.1,0.2-1.7,0.2C154.4,48.6,154.6,48.8,154.7,48.9z"
				/>
			<path fill="#F7F6DD" d="M149.7,31.1C149.7,31.1,149.7,31.1,149.7,31.1L149.7,31.1C149.6,31.1,149.6,31.1,149.7,31.1z"/>
			<path fill="#F7F6DD" d="M148.5,26.9l-0.4-0.8c-0.2-0.4-0.6-0.5-1-0.3c-0.4,0.2-0.6,0.6-0.4,1l0.4,0.8c0.2-0.1,0.4-0.3,0.6-0.4
				C147.9,27.1,148.2,27,148.5,26.9z"/>
			<path fill="#F7F6DD" d="M148.5,26.9c-0.3,0.1-0.6,0.2-0.8,0.3c-0.2,0.1-0.4,0.2-0.6,0.4c-1.9,1.3-2.8,3.6-2.2,5.8l4.7-2.3
				l0.1-0.1l4.6-2.3C153,27,150.6,26.2,148.5,26.9z"/>
			<path fill="#F7F6DD" d="M163,36.4C163,36.5,163.1,36.5,163,36.4L163,36.4C163,36.4,163,36.4,163,36.4z"/>
			<path fill="#F7F6DD" d="M167.5,33.8l-0.8,0.3c0.2,0.2,0.3,0.5,0.4,0.8c0.1,0.2,0.1,0.5,0.2,0.7l0.8-0.3c0.4-0.2,0.6-0.6,0.4-1
				C168.3,33.8,167.9,33.6,167.5,33.8z"/>
			<path fill="#F7F6DD" d="M166.7,34.1c-1.2-1.9-3.4-2.9-5.6-2.5l1.9,4.7l0.1,0.1l1.9,4.8c1.9-1.2,2.9-3.6,2.3-5.8
				c-0.1-0.2-0.1-0.5-0.2-0.7C167,34.6,166.9,34.3,166.7,34.1z"/>
			<path fill="#F7F6DD" d="M148.3,44.4c-1.8-2-2.4-4.9-1.4-7.6c1.5-3.8,5.8-5.8,9.6-4.3c3.8,1.5,5.8,5.8,4.3,9.6
				c-1.3,3.3-4.7,5.2-8.1,4.7c0.6,0.5,1.1,1.1,1.6,1.6c0.6,0,1.1-0.1,1.7-0.2c2.8-0.7,5.2-2.7,6.3-5.5c1.8-4.6-0.5-9.8-5.2-11.6
				c-4.6-1.8-9.8,0.5-11.6,5.2c-1,2.6-0.7,5.4,0.6,7.6C146.8,44,147.5,44.2,148.3,44.4z"/>
			<path fill="#F7F6DD" d="M154.3,38.2C154.3,38.2,154.3,38.3,154.3,38.2l0.1-4.6c0-0.3-0.3-0.6-0.6-0.6c-0.3,0-0.6,0.3-0.6,0.6
				l0,4.8C153.5,38.2,153.9,38.1,154.3,38.2z"/>
			<path fill="#F7F6DD" d="M152.6,39.8l-3.4,2.3c-0.2,0.2-0.3,0.5-0.1,0.7c0.2,0.2,0.5,0.3,0.7,0.1l3.5-2.4
				C152.9,40.5,152.7,40.2,152.6,39.8z"/>
			<path fill="#F7F6DD" d="M155.1,39.9c0.3-0.7-0.1-1.4-0.7-1.7c0,0,0,0,0,0c-0.4-0.2-0.9-0.1-1.2,0.2c-0.2,0.1-0.4,0.3-0.5,0.6
				c-0.1,0.3-0.1,0.6,0,0.8c0.1,0.3,0.3,0.6,0.7,0.8c0,0,0.1,0.1,0.1,0.1C154.1,41,154.8,40.6,155.1,39.9z"/>
			<path fill="#F7F6DD" d="M36.5,54.8l1.3-1.2c0.2-0.2,0.5-0.2,0.7,0c0.2,0.2,0.2,0.5,0,0.7L37.7,55l-1.1,1l0.4,0.5
				c1-1.5,2.2-3,3.5-4.2c-0.7-0.4-1.4-1-2-1.7c-0.7-0.8-1.1-1.7-1.3-2.6L27,36.1c-0.3-0.4-1-0.4-1.3-0.1l-2.9,2.6
				c-0.4,0.3-0.4,1-0.1,1.3l2,2.3l1.8-1.6c0.2-0.2,0.5-0.2,0.7,0c0.2,0.2,0.2,0.5,0,0.7L25.3,43l0.6,0.7l1.8-1.6
				c0.2-0.2,0.5-0.2,0.7,0c0.2,0.2,0.2,0.5,0,0.7l-1.8,1.6l0.6,0.7l2.7-2.3c0.2-0.2,0.5-0.2,0.7,0c0.2,0.2,0.2,0.5,0,0.7l-2.7,2.3
				l0.6,0.7l1.8-1.6c0.2-0.2,0.5-0.2,0.7,0c0.2,0.2,0.2,0.5,0,0.7l-1.8,1.6l0.6,0.7l1.8-1.6c0.2-0.2,0.5-0.2,0.7,0
				c0.2,0.2,0.2,0.5,0,0.7l-1.8,1.6l0.6,0.7l1.8-1.6c0.2-0.2,0.5-0.2,0.7,0c0.2,0.2,0.2,0.5,0,0.7l-1.8,1.6l0.6,0.7l1.8-1.6
				c0.2-0.2,0.5-0.2,0.7,0c0.2,0.2,0.2,0.5,0,0.7l-1.8,1.6l0.7,0.8l2.7-2.4c0.2-0.2,0.5-0.2,0.7,0c0.2,0.2,0.2,0.5,0,0.7l-2.7,2.4
				l0.6,0.7l1.8-1.6c0.2-0.2,0.5-0.2,0.7,0c0.2,0.2,0.2,0.5,0,0.7l-1.8,1.6l0.1,0.1l0.5,0.6L36.5,54.8z M26.2,39.7
				c-0.4,0.4-1,0.3-1.4-0.1c-0.4-0.4-0.3-1,0.1-1.4c0.4-0.4,1-0.3,1.4,0.1C26.6,38.7,26.6,39.3,26.2,39.7z"/>
			<path fill="#F7F6DD" d="M197,41.6c0.2-0.3,0.3-0.5,0.4-0.6c0.1-0.2,1.5-1.6,2.1-2.1c0.2-0.1,0.2-0.3,0.1-0.4
				c-0.5-0.5-0.8-0.4-1.4,0.3c-0.6,0.6-1.2,1.4-1.6,2.2c0,0.3-0.1,0.7-0.2,1C196.5,41.8,196.8,41.7,197,41.6z"/>
			<path fill="#F7F6DD" d="M199.6,41.2c-0.9-0.1-1.8,0.1-2.6,0.4c-0.2,0.1-0.5,0.2-0.7,0.4c0.1-0.4,0.2-0.7,0.2-1
				c0.3-4.5-7.1-5-8.8,0.7c-1,3.4,0.8,7.7,4.6,6.3c1.7,3.7,7.3,2.5,9.4-0.3C203.6,45.1,203.2,41.5,199.6,41.2z M198.9,48.6
				c-0.2,0.3-0.6,0.4-0.9,0.2c-0.3-0.2-0.4-0.6-0.2-0.9c0.2-0.3,0.6-0.4,0.9-0.2C198.9,47.9,199,48.3,198.9,48.6z M201.6,46.1
				c-0.3,0.5-0.7,0.9-1.2,1.1c-0.2,0.1-0.3,0.1-0.5,0c-0.1,0-0.1-0.1-0.2-0.2c-0.1-0.2,0-0.5,0.2-0.7c0.3-0.2,0.6-0.4,0.8-0.7
				c0.3-0.6,0.4-1.3-0.1-2c-0.2-0.2-0.1-0.5,0.1-0.7c0.2-0.2,0.5-0.1,0.7,0.1C202.2,44,202.1,45.2,201.6,46.1z"/>
			<path fill="#F7F6DD" d="M44.2,43.2c0-0.3,0.1-0.6,0.1-0.8c-0.1-0.3-0.2-0.5-0.3-0.7c-0.1-0.3-0.5-2.3-0.6-3.2
				c0-0.2-0.1-0.4-0.3-0.4c-0.7,0.1-0.8,0.5-0.7,1.4c0.1,0.8,0.4,1.9,0.9,2.8C43.7,42.6,43.9,42.9,44.2,43.2z"/>
			<path fill="#F7F6DD" d="M40.6,52.2c3.1-2.8,7.1-4.7,11.6-5.4c0.6-1.6,0.7-3.3,0.3-4.8c-1-3.2-4.5-5.1-6.9-2.2
				c-0.6,0.7-1.1,1.6-1.3,2.5c-0.1,0.3-0.1,0.6-0.1,0.8c-0.2-0.3-0.5-0.6-0.8-0.8c-3.1-2.6-7.1,1.3-6.1,5.5c0.2,0.9,0.6,1.7,1.3,2.6
				C39.2,51.2,39.9,51.8,40.6,52.2z M51.6,45c0.2,0.3,0,0.7-0.3,0.9c-0.3,0.2-0.7,0-0.9-0.3c-0.2-0.3,0-0.7,0.3-0.9
				C51,44.6,51.4,44.7,51.6,45z M48.3,39.4c1.3-0.1,2.4,0.7,2.8,1.7c0.2,0.5,0.3,1.1,0.3,1.7c0,0.2-0.1,0.3-0.3,0.4
				c-0.1,0-0.2,0.1-0.3,0c-0.3,0-0.5-0.3-0.4-0.6c0.1-0.4,0-0.8-0.2-1.1c-0.3-0.7-0.9-1.2-1.8-1.1l0,0c-0.3,0-0.5-0.2-0.5-0.5
				C47.8,39.6,48,39.4,48.3,39.4z"/>
			<path fill="#F7F6DD" d="M210.2,58.1l-2.2,0.1c-0.2,0-0.5-0.1-0.6-0.3l-1.3-1.7c-0.1-0.2-0.3-0.1-0.3,0.1l-0.6,2.1
				c-0.1,0.2-0.3,0.4-0.5,0.5l-2,0.7c-0.2,0.1-0.2,0.2,0,0.3l1.8,1.2c0.2,0.1,0.3,0.4,0.3,0.6l0,2.1c0,0.2,0.1,0.3,0.3,0.1l1.7-1.3
				c0.2-0.1,0.5-0.2,0.7-0.1l2.1,0.6c0.2,0.1,0.3,0,0.2-0.2l-0.8-2c-0.1-0.2,0-0.5,0.1-0.7l1.2-1.8
				C210.5,58.3,210.4,58.1,210.2,58.1z"/>
			<path fill="#F7F6DD" d="M172.3,54.6C172.3,54.6,172.3,54.6,172.3,54.6l1.3,0.6c0.2,0.1,0.3,0.4,0.2,0.6l-0.3,0.7
				c0.1,0.3,0.3,0.6,0.4,0.8l0.6-1.2c0.1-0.2,0.4-0.3,0.6-0.2l1.3,0.6c0.2,0.1,0.3,0.4,0.2,0.6l-0.6,1.3c-0.1,0.2-0.4,0.3-0.6,0.2
				l-1.2-0.6c0.2,0.5,0.3,1,0.4,1.5l0.3,0.1c0.2,0.1,0.3,0.4,0.2,0.6l-0.3,0.5c0.1,0.5,0.1,1,0.1,1.4c0,0.1,0,0.2,0,0.4
				c1,0.2,2,0.5,3,0.9c-0.1-0.1-0.1-0.3,0-0.4l0.6-1.3c0.1-0.2,0.4-0.3,0.6-0.2l1.3,0.6c0.2,0.1,0.3,0.4,0.2,0.6l-0.6,1.3
				c-0.1,0.1-0.2,0.2-0.4,0.2c0.6,0.3,1.2,0.7,1.8,1.1c0.1-0.1,0.2-0.2,0.2-0.4l6.4-13.5c0.5-1,0.1-2.1-0.9-2.6l-10.1-4.8
				c-1-0.5-2.1-0.1-2.6,0.9l-3.6,7.6C171.2,53.2,171.8,53.9,172.3,54.6z M175.5,54.8c-0.2-0.1-0.3-0.4-0.2-0.6l0.6-1.3
				c0.1-0.2,0.4-0.3,0.6-0.2l1.3,0.6c0.2,0.1,0.3,0.4,0.2,0.6l-0.6,1.3c-0.1,0.2-0.4,0.3-0.6,0.2L175.5,54.8z M178.6,54.2
				c0.1-0.2,0.4-0.3,0.6-0.2l1.3,0.6c0.2,0.1,0.3,0.4,0.2,0.6l-0.6,1.3c-0.1,0.2-0.4,0.3-0.6,0.2l-1.3-0.6c-0.2-0.1-0.3-0.4-0.2-0.6
				L178.6,54.2z M177.7,61.4l-0.6,1.3c-0.1,0.2-0.4,0.3-0.6,0.2l-1.3-0.6c-0.2-0.1-0.3-0.4-0.2-0.6l0.6-1.3c0.1-0.2,0.4-0.3,0.6-0.2
				l1.3,0.6C177.7,61,177.8,61.2,177.7,61.4z M178.6,59.6c-0.1,0.2-0.4,0.3-0.6,0.2l-1.3-0.6c-0.2-0.1-0.3-0.4-0.2-0.6l0.6-1.3
				c0.1-0.2,0.4-0.3,0.6-0.2l1.3,0.6c0.2,0.1,0.3,0.4,0.2,0.6L178.6,59.6z M181.9,59.6l-0.6,1.3c-0.1,0.2-0.4,0.3-0.6,0.2l-1.3-0.6
				c-0.2-0.1-0.3-0.4-0.2-0.6l0.6-1.3c0.1-0.2,0.4-0.3,0.6-0.2l1.3,0.6C181.9,59.1,182,59.4,181.9,59.6z M183.4,56.5l-0.6,1.3
				c-0.1,0.2-0.4,0.3-0.6,0.2l-1.3-0.6c-0.2-0.1-0.3-0.4-0.2-0.6l0.6-1.3c0.1-0.2,0.4-0.3,0.6-0.2l1.3,0.6
				C183.4,56,183.5,56.3,183.4,56.5z M174.3,48.1l0.6-1.2c0.4-0.9,1.5-1.3,2.4-0.8l8.2,3.9c0.9,0.4,1.3,1.5,0.8,2.4l-0.6,1.2
				c-0.4,0.9-1.5,1.3-2.4,0.8l-8.2-3.9C174.2,50,173.8,49,174.3,48.1z M172.6,52.9l0.6-1.3c0.1-0.2,0.4-0.3,0.6-0.2l1.3,0.6
				c0.2,0.1,0.3,0.4,0.2,0.6l-0.6,1.3c-0.1,0.2-0.4,0.3-0.6,0.2l-1.3-0.6C172.6,53.4,172.5,53.1,172.6,52.9z"/>
			<path fill="#F7F6DD" d="M175.4,49.9l8.2,3.9c0.6,0.3,1.3,0,1.6-0.6l0.6-1.2c0.3-0.6,0-1.3-0.6-1.6l-8.2-3.9
				c-0.6-0.3-1.3,0-1.6,0.6l-0.6,1.2C174.5,48.9,174.8,49.6,175.4,49.9z"/>
			<path fill="#F7F6DD" d="M20.6,45.5c-0.4-0.2-1.9-0.4-2.1-0.5c-0.1-1.5-1.1-3.3-2.7-3.7c-2.2-0.5-4.2,0.9-4.2,3.1
				c-0.7,0-1.3-0.1-2-0.1C9,42.8,7.9,41.6,6.5,41c-1.9-0.9-7.7-2.2-6.2,1.3C1,44.1,5,44.6,6.7,44.8c0.2,0,0.6,0.1,0.6,0.1
				c0.3,0.7,2,4.6,5.2,5.3c3.1,0.6,5.7-0.8,6-4.3c1.7,0,3.1,1,3.4,2.6c-0.6-1.9-3.4-1.2-2.9,0.7c0.4,1.7,2.4,1.4,3.3-0.2
				C22.9,47.8,22.6,46.3,20.6,45.5z M2.6,42.7c-0.7-0.6-0.9-1.4-0.4-1.9c1.8-1.5,4.4,1.7,4.9,3.4C5.5,44,4,43.7,2.6,42.7z
				 M13.9,43.2c1.3-1.2,3.3-0.1,3.5,1.8c0,0-4.2-0.2-4.3-0.2C13.2,44,13.5,43.6,13.9,43.2z M9.9,45.2c0.4,0,1.6,0.2,1.6,0.2
				c0,2.1,3.4,4.4,4.5,1.5c-0.9,1-2.5,0.3-2.9-0.9c-0.1-0.2-0.1-0.5-0.1-0.7c0.1,0,4.5,0.4,4.5,0.4C16.1,51.1,11.3,49.3,9.9,45.2z"
				/>
			<path fill="#F7F6DD" d="M219.5,78c-0.8-0.5-2.6,0.4-3.3,0.7c-0.1,0-0.2,0.1-0.3,0.1c-0.3-0.2-2-1.3-3.5-0.7
				c-1.4,0.6-2.1,1.9-1.2,3.3c-0.7,0.4-1.5,0.5-2.1-0.1c0.8,0.6,1.7-0.4,1-1.1c-0.6-0.6-1.3,0.1-1.3,1c0,0.6,0.6,1.2,1.6,0.9
				c0.2,0,0.9-0.3,1-0.4c0.5,0.6,1.3,1,2.1,0.7c1-0.4,1.4-1.5,0.8-2.4c0.3-0.2,0.5-0.3,0.8-0.5c0.7,0.4,1.4,0.6,2.2,0.5
				C218.4,80.1,221.1,79.1,219.5,78z M213.8,81.4c-0.2,0.8-1.3,0.9-1.9,0.2c0,0,1.8-1.1,1.8-1.1C213.8,80.9,213.9,81.1,213.8,81.4z
				 M214.2,79.9c-0.6-0.8-2.6-0.8-2.2,0.6c0.1-0.7,0.9-0.8,1.4-0.4c0.1,0.1,0.2,0.1,0.2,0.2c0,0-1.9,1-1.9,1
				c-0.9-2.5,1.5-3.1,3.2-1.9C214.7,79.6,214.2,79.9,214.2,79.9z M216.2,79.1c0.7-0.3,1.4-0.6,2.2-0.6c0.4,0.1,0.8,0.3,0.7,0.6
				C218.8,80.3,216.9,79.7,216.2,79.1z"/>
			<path fill="#F7F6DD" d="M168.8,41.3l3.3,2.8c1.6-2.1,2.7-3.9,3.4-5.3l-2-1.6C172.2,38.1,170.6,39.5,168.8,41.3z"/>
			<path fill="#F7F6DD" d="M169.4,47.5c0.8-0.9,1.5-1.8,2.1-2.6l-3.4-2.9c-0.7,0.8-1.5,1.6-2.3,2.5c-1.2,1.4-2.3,2.8-3.2,4.1
				c1.6,0.3,3.1,0.8,4.4,1.5C167.8,49.3,168.6,48.5,169.4,47.5z"/>
			<path fill="#F7F6DD" d="M175.5,32.5c-2.3,0.7-2.4,3-1.1,4.7c1.5,2,4.8,1,6.1-0.6c1.5-1.7,1.8-4.6,0.8-6.6
				C181.1,33,177.6,31.9,175.5,32.5z"/>
			<path fill="#F7F6DD" d="M63.6,17.3L63.6,17.3l-0.1,6c-0.4-0.3-1-0.5-1.7-0.5c-0.6,0-1.1,0.1-1.5,0.3c-0.4,0.2-0.6,0.5-0.6,0.8
				c0,0.3,0.2,0.6,0.6,0.8c0.4,0.2,0.9,0.3,1.5,0.4c0.6,0,1.1-0.1,1.5-0.3c0.4-0.2,0.6-0.5,0.6-0.8l0-4.1c0-0.1-0.1-0.1-0.1-0.2
				C63.6,19.3,63.6,18.2,63.6,17.3z"/>
			<path fill="#F7F6DD" d="M66,18.9c-1-0.5-1.6-1.2-2-1.8c-0.1-0.2-0.3-0.6-0.4-0.6c-0.1,0-0.1,0.1-0.1,0.4c0,0.1,0,0.3,0,0.5
				c0,0.8,0,2,0.2,2.4c0,0.1,0.1,0.1,0.1,0.2c0.4,0.5,1.2,0.5,1.7,0.8c0.8,0.5,0.6,2,0.8,1.9C66.6,22.5,67.5,19.7,66,18.9z"/>
			<path fill="#F7F6DD" d="M144.2,12.3L144.2,12.3l-2.7,5.3c-0.2-0.5-0.7-0.9-1.3-1.3c-0.5-0.3-1-0.4-1.5-0.4
				c-0.5,0-0.8,0.2-0.9,0.5c-0.1,0.3-0.1,0.6,0.2,1c0.3,0.4,0.7,0.7,1.2,1c0.5,0.3,1,0.4,1.5,0.4c0.5,0,0.8-0.2,0.9-0.5l1.9-3.7
				c0-0.1,0-0.1,0-0.2C143.3,14.1,143.8,13.1,144.2,12.3z"/>
			<path fill="#F7F6DD" d="M145.7,14.8c-0.6-0.9-0.9-1.8-0.9-2.5c0-0.2,0-0.6-0.1-0.7c-0.1,0-0.2,0.1-0.3,0.3
				c-0.1,0.1-0.1,0.3-0.2,0.4c-0.4,0.7-0.9,1.8-0.9,2.2c0,0.1,0,0.1,0,0.2c0.1,0.7,0.8,1,1.2,1.5c0.5,0.8-0.3,2-0.1,2.1
				C144.6,18.3,146.7,16.2,145.7,14.8z"/>
			<path fill="#F7F6DD" d="M134.8,14.2c0.3,0.1,0.7,0,1.1-0.1c0.4-0.1,0.7-0.3,1-0.6c0.2-0.3,0.3-0.5,0.2-0.7l-1-2.9
				c0,0-0.1-0.1-0.1-0.1c-0.2-0.2-0.5-1-0.7-1.6l0,0l1.4,4.3c-0.4-0.1-0.8-0.1-1.4,0c-0.4,0.1-0.7,0.3-1,0.6
				c-0.2,0.3-0.3,0.5-0.2,0.7C134.2,14,134.4,14.2,134.8,14.2z"/>
			<path fill="#F7F6DD" d="M136.2,9.8c0.4,0.3,0.9,0.1,1.4,0.1c0.7,0.1,0.9,1.2,1,1.2c0.1-0.1,0-2.3-1.2-2.5
				c-0.8-0.1-1.4-0.5-1.8-0.8c-0.1-0.1-0.3-0.3-0.4-0.3c-0.1,0-0.1,0.1,0,0.3c0,0.1,0.1,0.2,0.1,0.3c0.2,0.6,0.5,1.4,0.7,1.6
				C136.1,9.8,136.1,9.8,136.2,9.8z"/>
			<path fill="#F7F6DD" d="M105.5,5.5c0.2-0.1,0.1-0.2,0-0.3l-3.8-1.6c-0.2-0.1-0.4,0-0.5,0.1l-7,7.2c-0.1,0.1-0.1,0.2,0.1,0.1
				L105.5,5.5z"/>
			<path fill="#F7F6DD" d="M94.2,11.1C94.1,11.1,94.1,11.1,94.2,11.1l13.6,1.5c0.2,0,0.3-0.1,0.3-0.3l-0.1-2l-13.7,0.9
				C94.2,11.1,94.2,11.1,94.2,11.1z"/>
			<path fill="#F7F6DD" d="M114,9.7l-5.9-3.3c-0.1-0.1-0.4-0.1-0.6,0L94.3,11c-0.1,0-0.1,0-0.1,0.1c0,0,0,0,0.1,0l13.7-0.9l6-0.4
				C114.1,9.8,114.1,9.8,114,9.7z"/>
			<path fill="#F7F6DD" d="M44.3,23.9c-1.6-2.8-4.2-5.4-7.5-5.3c-2.5,0.1-4.5,1.4-6.4,2.8c0,0-0.1,0.1-0.1,0.1
				c-0.4,0.3-0.9,0.7-1.3,1c2.6-0.2,4,3.4,6.4,4.1c2.1,0.6,3.9-0.5,6-0.9c0.3-0.1,1-0.1,1.7-0.1c-2.4-1.7-6.4-3.7-10.3-4.1
				c3.9-0.3,7.5,1.5,10.6,3.7c2.4,1.7,3.4,3.9,3.9,3.8C47.6,28.9,47.1,25.9,44.3,23.9z"/>
			<path fill="#F7F6DD" d="M48,21.7c0.1-0.4,0.3-0.7,0.4-0.9c0.6-1.1,1.6-1.8,1.7-3.2c0.1-1.5-1.6-3-1-4.4c-0.3,0.2-0.6,0.3-0.8,0.5
				c0,0-0.1,0-0.1,0.1c-1.2,0.8-2.3,1.6-2.8,3c-0.7,1.9,0.2,3.8,1.5,5.3c0.6,2,2.2,2.8,2.3,2.6c0.2-0.2-0.9-1.2-1.4-2.9
				c-0.6-2.2-0.9-4.6,0-6.6C47.2,17.4,47.5,20,48,21.7z"/>
			<path fill="#F7F6DD" d="M83.4,12.7c0.9-0.4,2,0,3-0.2c-2.5-0.9-1.1-1.6,0.6-2.2c-1.7,0-4.9,0.1-3.8-2.3c-0.6,0.7-2.9,2.4-2.8,0.6
				c0-1.3,2.2-3.1,3-4.1c-1.9,1.1-3.6,1.2-2.2-1.2c-1.8,2-1.1-2.6-1-3.3c-0.4,0.7-2.8,5.4-3.2,3.1c-0.7,1.4-0.7,3.5-2.2,1.4
				c0.3,0.8,1.2,2.9-0.2,3.2c-1.3,0.2-1.8-1.9-2-2.8c-0.2,0.6,0,1.8-0.6,2.1c-0.7,0.2-2-1.2-2.5-1.6c-0.1,1.6,2.8,4.6-0.1,4.1
				c0.7,0.5,1.7,0.9,2.5,1.1c-0.6,0.1-1.3,0.3-1.7,0.8c1.2-0.2,2.8,0,3.9,0.5c-0.8,0.4-1.8,0.9-1.8,1.9c1.1-0.6,3.6,0.3,4.6-0.6
				c0,0.7,0.1,1.3,0.2,1.8c0.5,2.7,2.2,4.2,2.3,4c0.2-0.2-1-1.8-1.5-4.2c-0.1-0.4-0.2-0.9-0.2-1.4c0,0,0.1,0,0.1,0.1
				c1.6,1.2,4.9,0.7,6.9,0.7C84.2,13.8,83.6,13.3,83.4,12.7z"/>
			<path fill="#F7F6DD" d="M175.5,25.2c4.1,3.5,8.6,3,12.8-1C184.6,21.1,179.8,21.3,175.5,25.2z"/>
			<path fill="#F7F6DD" d="M181.6,16.1c-3.2,0.3-5.6,2.7-6,6.4C179.1,22.2,181.1,19.9,181.6,16.1z"/>
			<path fill="#F7F6DD" d="M171.2,18.8c-2.2,2-2.6,4.9-0.9,7.8C172.7,24.4,172.9,21.7,171.2,18.8z"/>
			<path fill="#F7F6DD" d="M197.6,85.3c-0.3-0.4-0.7-0.7-1-1.1c-2.7-2.6-6.1-4.5-10-5.4c-0.1,0-0.1,0-0.2,0c0-0.2,0.1-0.4,0.1-0.6
				c0.1-0.7,0.2-1.4,0.2-2.2c0-0.1,0-0.3,0-0.4c-0.1-1.9-0.5-3.7-1.3-5.3c-0.4-0.8-0.8-1.5-1.4-2.2c-0.8-1-1.8-2-2.8-2.8
				c-0.6-0.4-1.1-0.8-1.8-1.1c-0.5-0.3-1.1-0.6-1.6-0.8c-0.9-0.4-1.9-0.7-3-0.9c0-0.1,0-0.2,0-0.4c0-0.5,0-1-0.1-1.4
				c0-0.4-0.1-0.8-0.2-1.3c-0.1-0.5-0.3-1-0.4-1.5c-0.1-0.2-0.2-0.4-0.3-0.6c-0.1-0.3-0.2-0.6-0.4-0.8c-0.3-0.7-0.7-1.3-1.2-1.9
				c-0.5-0.7-1.1-1.3-1.7-1.9c-1-1-2.2-1.8-3.6-2.5c-1.4-0.7-2.8-1.2-4.4-1.5c-1.1-0.2-2.2-0.3-3.3-0.3c-1.1,0-2.3,0.1-3.3,0.3
				c-0.4,0.1-0.9,0.2-1.3,0.3c-0.1-0.2-0.3-0.3-0.4-0.5c-0.5-0.6-1-1.1-1.6-1.6c-1.3-1-2.8-1.8-4.4-2.4c-0.7-0.2-1.5-0.4-2.2-0.5
				c-0.8-0.1-1.5-0.2-2.3-0.2c-1.6,0-3.2,0.3-4.6,0.7c-1.1-1.8-2.5-3.4-4.1-4.8c-1-0.9-2.1-1.7-3.3-2.5c-2.2-1.4-4.6-2.4-7.1-3.1
				c-2.1-0.6-4.3-0.9-6.6-1c-0.2,0-0.5,0-0.7,0c-0.2,0-0.4,0-0.7,0c-0.4,0-0.8,0-1.3,0.1c-0.6,0-1.1,0.1-1.7,0.2
				c-0.3,0-0.7,0.1-1,0.1c-0.3,0.1-0.6,0.1-1,0.2c-0.6,0.1-1.1,0.3-1.7,0.4c-0.2,0.1-0.4,0.1-0.6,0.2c-0.3,0.1-0.6,0.2-0.9,0.3
				c-0.7,0.3-1.5,0.5-2.2,0.8c-2.6,1.1-5,2.7-7,4.5c-1.3,1.2-2.5,2.6-3.5,4.1c0,0,0,0.1-0.1,0.1c0,0-0.1-0.1-0.1-0.1
				c-2.8-3.8-7.5-6.2-12.9-6.2c-0.6,0-1.2,0-1.7,0.1c-1.5,0.2-3,0.5-4.3,1c-0.7,0.3-1.4,0.6-2.1,1c-1.7,1-3.2,2.2-4.4,3.7
				c-1.4,1.8-2.4,3.8-2.8,6.1c-3.3-1.9-7.3-3-11.5-3c-1.3,0-2.5,0.1-3.7,0.3c-4.5,0.7-8.5,2.6-11.6,5.4c-1.4,1.2-2.6,2.7-3.5,4.2
				c0,0.1-0.1,0.1-0.1,0.2c-0.1,0.2-0.2,0.3-0.3,0.5c-0.4,0.7-0.8,1.5-1.1,2.2c-0.1,0.2-0.1,0.3-0.2,0.5c-0.3,0.7-0.5,1.4-0.6,2.1
				c-0.3,1.2-0.4,2.5-0.4,3.9c0,1,0.1,2,0.2,2.9c0.3,1.7,0.8,3.3,1.5,4.7c0,0,0,0,0,0c-0.7,0-1.4,0.1-2.1,0.2
				c-1.4,0.2-2.8,0.6-4.1,1.2c-0.6,0.2-1.1,0.5-1.6,0.8c-2.1,1.2-3.8,2.8-5,4.8c-0.6,1-1.1,2-1.4,3.1c-0.2,0.7-0.4,1.5-0.5,2.2
				c-0.1,0.4-0.1,0.9-0.1,1.3c0,0,0,0.1,0,0.1h177.9C198.6,86.6,198.1,85.9,197.6,85.3z"/>
		</g>
	</g>
</g>
</svg>
